<?xml version="1.0" encoding="UTF-8"?>
<svg id="Layer_1" data-name="Layer 1" xmlns="http://www.w3.org/2000/svg" viewBox="0 0 2266.43 1371.91">
  <defs>
    <style>
      .cls-1 {
        font-size: 36px;
      }

      .cls-1, .cls-2 {
        font-family: FranklinGothic-Heavy, 'Franklin Gothic Heavy';
        font-weight: 800;
      }

      .cls-1, .cls-2, .cls-3 {
        fill: #0f6bf1;
      }

      .cls-4 {
        fill: #e00706;
      }

      .cls-4, .cls-5, .cls-6, .cls-7, .cls-8, .cls-9, .cls-10, .cls-11, .cls-12, .cls-13, .cls-14, .cls-15, .cls-16, .cls-17, .cls-18, .cls-19, .cls-20, .cls-21, .cls-22, .cls-23, .cls-24, .cls-25, .cls-26, .cls-27, .cls-28, .cls-29, .cls-30, .cls-31, .cls-32, .cls-3, .cls-33 {
        stroke-width: 0px;
      }

      .cls-5 {
        fill: #fefefe;
      }

      .cls-6 {
        fill: #717171;
      }

      .cls-7 {
        fill: #0489f4;
      }

      .cls-8 {
        fill: #c9e5fe;
      }

      .cls-9 {
        fill: #a2a1a2;
      }

      .cls-34 {
        letter-spacing: 0em;
      }

      .cls-35 {
        letter-spacing: -.05em;
      }

      .cls-36 {
        letter-spacing: -.08em;
      }

      .cls-10 {
        fill: #116df1;
      }

      .cls-11 {
        fill: #e1e1e1;
      }

      .cls-12 {
        fill: #fafafb;
      }

      .cls-13 {
        fill: #ddedfc;
      }

      .cls-14 {
        fill: #f6f6f7;
      }

      .cls-15 {
        fill: #d8d7d6;
      }

      .cls-16 {
        fill: #133e6d;
      }

      .cls-17 {
        fill: #dfdfdf;
      }

      .cls-18 {
        fill: #ecf2f9;
      }

      .cls-19 {
        fill: #b3b3b3;
      }

      .cls-37 {
        letter-spacing: .02em;
      }

      .cls-20 {
        fill: #fff;
      }

      .cls-21 {
        fill: #0a7bdb;
      }

      .cls-38 {
        letter-spacing: 0em;
      }

      .cls-22 {
        fill: #3c8efa;
      }

      .cls-23 {
        fill: #fafafa;
      }

      .cls-24 {
        fill: #f1f1f2;
      }

      .cls-25 {
        fill: #f4f4f4;
      }

      .cls-39 {
        font-family: MyriadPro-Regular, 'Myriad Pro';
        font-size: 48px;
      }

      .cls-26 {
        fill: #dbebf9;
      }

      .cls-27 {
        fill: #b1d9fe;
      }

      .cls-28 {
        fill: #fbfbfc;
      }

      .cls-40 {
        letter-spacing: 0em;
      }

      .cls-29 {
        fill: #ebeff5;
      }

      .cls-30 {
        fill: #0953a7;
      }

      .cls-2 {
        font-size: 198.44px;
      }

      .cls-31 {
        fill: #e03435;
      }

      .cls-41 {
        letter-spacing: 0em;
      }

      .cls-42 {
        letter-spacing: 0em;
      }

      .cls-43 {
        letter-spacing: -.02em;
      }

      .cls-32 {
        fill: #c0e3fe;
      }

      .cls-33 {
        fill: #464546;
      }
    </style>
  </defs>
  <rect class="cls-20" x="139.3" width="2127.13" height="1317.13"/>
  <g>
    <path class="cls-5" d="m408.56,137.82h1540.53v1094.37H408.56V137.82Zm730.56,240.91l1.2,2.88c.48.75,1.04,1.46,1.42,2.26,9.33,19.58,25.81,25.89,46.18,24.52,20.39-1.37,32.83-11.4,39.44-31.3,7.37-22.2,7.13-44.79,2.72-67.39-3.71-18.98-12.67-34.17-32.8-39.91-.92-.25-1.84-.5-2.76-.76-1.79-.25-3.58-.5-5.37-.75-4.13.02-8.25.04-12.38.06-1.35.2-2.69.4-4.04.6-.92.18-1.83.36-2.75.55-.89.28-1.78.57-2.67.85-8.38-2.32-18.36,4.24-19.91,13.08-1.1,1.57-2.2,3.13-3.29,4.7-2.48,2.3-7.43,3.37-4.2,8.49-.45,1.23-.9,2.46-1.36,3.68-1.31,5.87-2.62,11.74-3.93,17.6-.08.9-.16,1.81-.25,2.71-.34,4.97-.69,9.95-1.03,14.92l.02,10.92c.33,3.62.65,7.25.98,10.87.09.9.18,1.8.28,2.7.8,4.07,1.6,8.14,2.41,12.2.15.49.3.98.44,1.47.57,1.71,1.13,3.41,1.7,5.12l-.04-.08Zm-33.45-104.31c.11-.16.36-.39.32-.48-.17-.35-.44-.65-.67-.97-2.6-4.83-10.68-5.44-15.21-1.15-3.16.18-6.32.36-9.48.55-1.35,0-2.7-.02-4.05-.03-.9-.17-1.81-.34-2.71-.52-.45.03-.91.07-1.36.1-.26.24-.56.31-.91.22-5.83-.53-5.12,3.78-5.43,7.33-.65,1.08-1.3,2.16-1.95,3.24-1.74,2.73-3.48,5.47-5.22,8.2,0,0,0-.02,0-.02-2.66,4.18-5.32,8.36-7.98,12.54.04.41-.12.72-.48.93-1.23,1.89-2.45,3.78-3.68,5.66-.28.47-.57.95-.85,1.42-1.49,2.31-2.97,4.61-4.46,6.92.04.4-.11.7-.46.9-1.63,2.46-3.27,4.91-4.9,7.37.05.36-.09.62-.42.78-1.2,1.91-2.4,3.83-3.6,5.74h.02c-5.39.41-5.53,4.31-5.52,8.3.05.39-.09.67-.44.85-5.12.29-5.26,3.74-4.81,7.57-.14,3.36-.28,6.72-.42,10.09.04,4.95.07,9.9.11,14.84,0,0,0-.04,0-.04,1.92.93,3.83,2.62,5.76,2.65,14.4.23,28.8.31,43.2.03,4.89-.09,6.99,1.15,6.62,6.38-.4,5.82-.51,11.74.16,17.51.25,2.14,2.9,5.51,4.73,5.7,6.68.69,13.48.39,20.22.15,1.1-.04,2.14-1.64,3.21-2.53.18-.46.36-.91.54-1.37.14-.12.42-.25.41-.35-.04-.33-.17-.64-.27-.96,0-1.34,0-2.68,0-4.02.9-4.09,2.75-8.24,2.49-12.25-.49-7.39-.49-7.79,7.18-8.28,2.03-.13,3.98-1.61,5.97-2.48.13-.49.26-.99.39-1.48.02-.88.04-1.77.06-2.65-.03-1.82-.06-3.65-.08-5.47-.02-.89-.04-1.78-.05-2.67,0-.92-.02-1.83-.02-2.75,0-1.34,0-2.68,0-4.02-.11-.44-.22-.88-.34-1.32-1.25-.91-2.39-2.38-3.77-2.65-7.4-1.44-9.78-4.06-9.78-11.56-.02-13,.08-26-.09-39-.03-2.19-1.21-4.36-1.85-6.53-.24-5.84-.49-11.68-.73-17.53.21-.97.43-1.94.64-2.9Zm-42.44,858.05c-4.23,2.27-6.23.5-6.56-3.8-.19-2.43,0-4.88,0-7.32.14-.15.42-.32.4-.43-.08-.35-.28-.68-.43-1.01l-3.23,1.39c-1.8.47-3.59.94-5.39,1.41-3.88-4.7-8.5-5.7-11.41-2.46-3.14,3.49-3.43,10.68-.25,13.51,4.46,3.96,8.51,2.84,12-1.59,1.74,0,3.49-.02,5.23-.03,3.35,6.23,8.67,1.92,13.52,2.98v-17.68l-3.89-.06v15.09Zm-110.88-13.61c-1.59-.04-3.19-.08-4.78-.12-3.05.4-6.09.81-9.14,1.21-2.46.52-4.92,1.05-7.38,1.57-6.02-6.42-10.49-1.75-16.16,3.05,2.23,3.7,3.88,8.45,7.21,11.04,1.45,1.13,6.35-2.17,9.68-3.46,2.16,0,4.33,0,6.49,0,.47,1.27.94,2.55,1.4,3.82.49-.03.99-.07,1.48-.1l.98-9.24c3.15,1.85,6.3,3.71,9.46,5.56.53,1.26,1.07,2.52,1.6,3.78.81-.84,1.62-1.67,2.43-2.51,3.02,2.22,6.04,4.44,9.06,6.66,1.96,2.98,4.96,2.87,6.48-.86,2.65-6.5,4.64-13.28,6.9-19.94-.53-.3-1.06-.59-1.58-.89-.9.97-1.8,1.94-2.7,2.91-1.9,0-3.81-.01-5.71-.02-1.25-.76-2.51-1.51-3.76-2.27-1-.07-1.99-.15-2.99-.22-2.99,0-5.98.01-8.97.02Zm272.22-665.12l-.08.02c-2.16-1.93-4.32-3.86-6.48-5.78-1.07-.52-2.15-1.04-3.22-1.56-.42.12-.85.25-1.27.37l.04-.05c-4.67,2.65-9.37,2.99-14.1.14-1.71.37-3.42.74-5.12,1.11-1.29,1.42-2.59,2.83-3.88,4.25-.89.11-1.78.22-2.67.33-1.57-1.74-2.87-3.9-4.78-5.11-1.89-1.19-5.72-2.64-6.41-1.88-5.23,5.76-10.86,1.35-16.26,1.24-1.27-.12-2.54-.24-3.81-.36l-.87-.39c-.01.34-.03.67-.04,1.01v.02c-3.47.84-8.55-.86-8.62,5.42-1.28.02-2.57.04-3.85.07-2.37.48-4.74.96-7.11,1.45-3.27-.45-6.54-.9-9.81-1.34-1.64-1.34-3.46-2.53-4.89-4.07-1.76-1.89-3.2-4.07-5.72-7.36-.58,3.12-.81,4.32-1.04,5.53-.85.89-1.7,1.77-2.55,2.66-1.01.35-2.88.65-2.91,1.07-.39,5.56-.59,11.14-.56,16.72,0,.35,2.28.7,3.49,1.05l1.11,1.52c1.26.63,2.61,1.91,3.78,1.77,2.98-.36,5.88-1.35,8.81-2.08l2.33.56c.45.04.89.09,1.34.13,1.35-.12,2.71-.23,4.06-.35l1.41,1.91c.14-.9.29-1.8.43-2.7,0,0,.36-.2.36-.2,2.52.23,5.04.47,7.57.7,1.4-.38,2.8-.76,4.21-1.14,2.87.01,5.73.02,8.6.03,3.3,4.4,7.2,2.98,11.15,1.17,2.86-.02,5.71-.04,8.57-.06,1.2.02,2.41.03,3.61.05,2-.58,4.01-1.17,6.01-1.75l-.11.19c.51.48,1.02.96,1.53,1.44,2.55.13,5.09.26,7.64.4.64.76,1.28,1.51,1.91,2.27.7-.89,1.4-1.79,2.11-2.68,0,0,.54-.34.54-.33,1.73.71,3.42,1.62,5.22,2.02.69.15,1.64-.85,2.47-1.32,3.46-.16,6.91-.32,10.37-.48,2.09-.45,4.18-.9,6.27-1.36l11.87.4c1.92.36,3.83.73,5.75,1.09,4.03,1.34,5.26-.7,5.44-4.32.13-2.65.54-5.29.82-7.94.93-.03,1.85-.05,2.78-.08.23,2.96.29,5.95.75,8.87.21,1.32,1.22,2.52,1.87,3.77,1.01-1.19,2.92-2.41,2.88-3.56-.13-4.17-.91-8.32-1.44-12.48-2.55-4.33-5.87-3.82-9.47-1.51-.86.05-1.73.1-2.59.16-2.31.43-4.63.85-6.94,1.28-2.66-.3-5.31-.6-7.97-.89-.6-.45-1.21-.9-1.81-1.35-.23.78-.45,1.55-.68,2.33Zm-188.65,124.33c-1.36.9-2.71,1.81-4.07,2.71-.45,0-.9,0-1.35,0-1.36.9-2.71,1.81-4.07,2.71-7.88,6.2-16.2,11.93-23.52,18.73-6.02,5.6-11.62,11.98-16.01,18.9-5.3,8.35-9.03,17.69-13.61,26.52-12.75,24.55-17.44,50.61-14.43,78.02.21,1.95,2.53,3.67,3.87,5.49,0,3.16,0,6.32,0,9.48-1.35,2.95-3.82,5.91-3.82,8.86,0,6.51-2.93,11.14-8.12,13.76-3.38,1.71-7.95.85-11.74,1.99-4.72,1.42-6.36-.54-7.81-4.61-5.57-15.62-12.44-30.77-12.03-48.01.31-13.16-2.05-26.5-.67-39.48,2.55-24.06,11.91-45.95,26.68-65.2,6.78-8.84,14.51-16.95,21.83-25.37,5.2-5.98,10.45-11.92,15.48-17.65-.45.06-2.39-.25-3.49.57-4.26,3.18-5.7,1.24-7.97-2.7-2.75-4.76-6.54-9.15-10.66-12.84-11.02-9.89-22.44-19.34-33.73-28.92-10.64-9.03-21.38-17.03-36.1-19.47-18.68-3.1-32.62,4.21-44.52,16.69-20.43,21.44-40.21,43.51-60.23,65.34-9.58,10.44-19.32,20.73-28.61,31.42-13.66,15.72-24.23,33.6-32.64,52.45-7.12,15.96-12.46,32.76-17.81,49.44-8.37,26.08-16.62,52.22-23.94,78.61-9.07,32.72-10.78,66.02-3.19,99.29,5.63,24.68,15.32,47.73,29.7,68.83,16.33,23.96,39.44,35.44,67.31,40.08,11.22,1.87,24.3-.44,32.58,10.91.52.72,2.06.69,3.13,1.02,5.31,1.79,10.5,4.31,15.96,5.23,16.09,2.71,32.25,5.22,48.47,7,27.58,3.02,55.18,5.98,82.85,7.91,19.95,1.4,40.02,1.09,60.03,1.55,3.6,3.85,8.58,3.86,12.2,0,.9,0,1.8,0,2.7,0,4.55,5.12,9.78,2.69,14.91,1.34,92.59,0,185.19,0,277.78,0,2.26,0,4.52,0,6.78,0,6.69-.45,13.37-1.11,20.07-1.3,8.32-.24,16.67.28,24.97-.2,27.9-1.6,55.79-3.5,83.69-5.28,8.17-.47,16.35-.77,24.5-1.5,2.28-.2,4.45-1.67,6.67-2.55,18.5.16,36.43-3.47,54.2-8.13,2.71-.9,5.41-1.8,8.12-2.7,1.36-.45,2.73-.91,4.09-1.36,1.35,0,2.7,0,4.05,0,2.4,4.66,5.94,1.78,7.93.34,5.77-4.17-.33-8.24-1.37-13.78,8.19-2.31,16.15-5.48,24.39-6.72,27.14-4.07,49.11-16.92,66.4-37.85,13.32-16.12,23.32-34.21,28.02-54.71,3.09-13.47,6.29-27.14,7.09-40.86.96-16.57-.4-33.28-1.06-49.92-.71-17.95-1.96-35.88-2.61-53.84-.7-19.35-.26-38.76-1.62-58.05-1.35-19.17-3.32-38.42-6.85-57.29-4.43-23.66-11.74-46.87-23.32-67.95-15.57-28.35-33.37-55.47-49.76-83.38-7.16-12.2-13.58-24.88-19.66-37.66-6.92-14.54-12.42-29.79-19.75-44.11-10.38-20.3-29.06-28.57-50.59-29.33-26.5-.93-50.04,9.31-72.17,23.09-15.59,9.71-28.78,22-41.19,35.51-9.87,10.74-16.17,23.24-21.04,36.41-5.15,13.92-5.91,15.27-20.07,12.11-10.67-2.38-20.37-.22-30.33,4.58,1.05,1.01,1.33,1.51,1.66,1.55,1.33.17,2.69.36,4.03.26,17.36-1.19,34.11,2.57,50.26,7.93,25.42,8.43,49.1,20.6,67.8,40.33,6.49,6.85,11.14,15.45,17.22,24.1-3.27,1.17-4.78,2.29-6.04,2.06-10.3-1.88-21.03-2.75-30.7-6.39-10.79-4.07-20.61-10.72-30.85-16.26-2.53-1.37-4.9-3.16-7.57-4.13-11.25-4.12-22.5-8.26-33.92-11.86-6.13-1.93-12.7-4.29-18.89-3.85-22.38,1.58-44.43,5.15-65.67,13.15-7.8,2.94-16.46,4.13-24.84,4.86-6.85.6-14.08-1.97-20.76-.86-16.52,2.74-32.87,6.54-49.18,10.4-9.77,2.31-19.34,5.49-28.95,8.43-1.02.31-1.71,1.68-2.55,2.56h-2.71c-.22-.63-.34-1.76-.66-1.81-9.55-1.65-19.12-3.24-28.72-4.65-.47-.07-1.19,1.56-1.79,2.4h-20.33c-6.27-1.71-12.58-3.64-17.62,2.71-2.71,0-5.42,0-8.13,0-10.37,2.7-20.85,5.07-31.06,8.27-3.95,1.24-7.31,4.36-10.94,6.63Zm203.07,551.73c.54-5.13.52-9.88-6.63-9.84-3.69-.62-7.47-.05-7.33,4.31.12,3.58,1.3,8.11,3.73,10.42,3.77,3.59,9.58.39,10.23-4.89Zm43.54.98c-.24,5.71,4,4.91,7.33,4.72,4.06-.23,6.07-2.39,4.44-6.69.04-1.8.08-3.59.12-5.39-1.27-5.42-5.56-5.87-9.32-4.25-1.6.69-1.68,4.9-2.45,7.51-.04,1.37-.09,2.73-.13,4.1Zm-382.14-.01c-.63,4.34,1.9,5.87,5.45,4.99,2.47-.62,4.57-2.68,6.84-4.1-1.92-1.7-3.76-3.51-5.8-5.06-1.54-1.17-3.34-1.99-5.03-2.97.16-.62.31-1.25.47-1.87,3.55.7,7.1,1.4,10.65,2.1.18-.73.36-1.45.54-2.18-3.74-.95-7.45-2.33-11.22-2.53-.86-.05-1.93,3.98-2.91,6.14.34,1.83.68,3.66,1.02,5.49Zm440.53-17.14c-.9.34-2.03.46-2.65,1.08-1.22,1.22-2.16,2.71-3.21,4.09-1.17-.37-2.48-.53-3.49-1.17-1.16-.73-2.06-1.88-3.08-2.84-.72,2.32-2.04,4.64-2,6.94.06,2.61,1.88,5.17,1.98,7.79.19,5.03,1.9,7.24,7.05,5.35l4.26-.25c2.94.73,3.99-.32,3.74-3.39-.27-3.21-.06-6.45-.06-9.72h7.77c.15-.6.31-1.19.47-1.79-2.56-.65-5.11-1.29-6.87-1.73-1.53-1.71-2.72-3.05-3.91-4.38Zm-214.09,6.37c-2.53-.23-5.05-.46-7.63-.7-.5,2.03-.94,3.79-1.43,5.81-1.84-1.53-3.22-2.68-4.59-3.82-6.87-4.49-10.33-3.99-12.81,1.79h9.83c.09.8.19,1.61.28,2.41-2.17.62-4.57.86-6.42,1.99-1.54.95-3.5,3.09-3.33,4.46.18,1.48,2.52,3.67,4.08,3.81,3.03.28,6.18-.66,9.28-1.1.88.08,1.79.04,2.64.25,6.97,1.75,8.08.83,7.21-6.3-.17-1.41-.88-2.75-1.6-4.88,2.41-.36,4.69-.71,6.96-1.05v13.05c.55.18,1.11.37,1.66.55.69-1.23,1.91-2.43,1.96-3.68.12-2.59-.71-5.22-.55-7.8.27-4.31-1.57-5.65-5.54-4.8Zm293.9-.06c-3.67,1.36-7.34,2.73-11,4.09-3.25-6.76-6.65-7.75-14.72-4.15,0,3.92-.15,7.93.08,11.92.08,1.33,1.21,3.75,1.73,3.71,4.51-.31,9.96,2.51,13.01-3.37,1.5-.43,3.01-.86,4.51-1.29,2.37,9.68,9.32,2.48,13.9,4.49,1.08-14.31.57-15.31-7.51-15.4Zm46.12,8.2c1.31-4.4-.2-8-4.36-9.26-3.53-1.07-7.78-1.24-9.38,3.76-2.19-.44-4.39-.89-6.58-1.33-4.46-5.63-8.92-3.34-13.51-.03.51,4.36,1.02,8.69,1.53,13.02-.19,3.8-.94,8.11,4.55,8.67,4.91.5,7.82-1.78,8.98-6.93.36-1.61,3.39-2.61,5.2-3.89,6.16,5.34,8.63,5.32,12.67-.11.3-1.29.61-2.59.91-3.88Zm-436.47-10.94c.39-1.55.78-3.09,1.55-6.16-4.35,3.17-7.36,5.37-10.04,7.32-2.06-2.33-3.79-4.28-5.51-6.24-.26.29-.52.58-.78.87,2.79,7.49,5.58,14.99,8.38,22.51,1.53-4.9,3.21-10.29,4.9-15.69.5-.87.99-1.74,1.49-2.61Zm213.97-754.63c.06,16.66,4.31,30.99,19.21,38.99,19.64,10.55,40.24,10.26,59.62-.56,19.07-10.63,25.66-37.16,14.62-55.54-3.28-5.45-8.08-9.98-12.38-15.16-.69.65.09-.12.9-.84,18.65-16.7,14.6-45.81-8.16-56.04-16.24-7.3-32.92-7.3-49.27-.05-13.93,6.18-23.35,23.87-20.71,38.93,6.14,0,12.41.02,18.69-.01,1.77,0,3.53-.19,5.76-.31.38-2.63.61-5.06,1.09-7.44,1.91-9.5,9.53-14.79,20.09-14.01,9.65.71,15.63,6.52,16.23,15.8.66,10.03-4.52,16.6-14.69,18.65q-11.84,2.38-11.37,14.9c.06,1.52.31,3.03.46,4.44,24.99,4.04,29.77,7.67,29.41,22.03-.29,11.45-6.78,18.13-18.58,19.13-14.71,1.25-21.19-4.54-25.25-22.9h-25.68Zm27.67,756.21c-9.32-.7-8.91,4.25-9.23,8.37-.39,4.94,1.76,8.38,6.96,8.85,4.66.42,7.87-4.02,7.03-11.44-.3-2.63-3.97-4.88-4.76-5.78Zm104.03-.04c-6.4-.67-7.09,2.31-6.88,6.1.12,2.18-.14,4.43.28,6.54.25,1.26,1.41,3.25,2.3,3.32,2.96.25,5.99-.21,8.99-.39-.22-2.35-.43-4.7-.66-7.05-.06-.65-.46-1.45-.22-1.93,3.24-6.3-1.67-6.07-3.82-6.6Zm-159.84,7c-2.05.19-3.66-.13-4.6.53-2.15,1.5-4.16,3.32-5.73,5.39-.24.31,2.17,3.8,3.38,3.82,3.51.05,7.03-.91,10.54-1.48-1.14-4.71-2.29-9.41-3.43-14.12-.41.1-.81.21-1.76.45.47,1.57.92,3.11,1.6,5.41Zm86.77-4.12c4.06.52,6.76.87,9.99,1.29-2.25-5.36-6.38-4.89-9.84-3.86-1.2.36-1.96,3.89-2.02,6-.08,2.69.75,5.41,1.37,9.31,2.67,1.63,7.85,3.2,10.02-1.13,4.01-8.03-6.61-5.31-9.52-11.61Zm-45.07,2.09c-2-3.72-5.34-7.12-9.95-4.45-2.59,1.5-4.65,6-4.75,9.23-.14,4.34,3.25,7.75,7.96,7.34,2.46-.21,4.72-2.61,8.31-4.77-5.26.35-8.12.54-10.98.73-.08-2.93-.15-5.86-.23-8.78,3.19.23,6.38.47,9.64.71Zm-111.94-4.71v18.04c7.55-4.08,1.88-11.03,4.93-15.44,3.39-.86,6.2-.67,6.31,3.95.06,2.89.01,5.79.01,8.69,2.15-17.82,4.09-15.91-11.25-15.24Zm-50.93,13.33c-.45-.29-.9-.58-1.35-.87-2.78,0-6.56,1.07-8.05-.31-1.38-1.28-.33-5.2-.35-7.96h9.44c-1.75-4.2-5.85-6-9.72-4.09-2.26,1.11-3.62,5.57-3.97,8.68-.46,4.11,1.81,7.82,6.36,7.85,2.54.01,5.09-2.13,7.64-3.3Zm84.74-4.66c-.29-4.64-.94-8.97-7.13-9.12-5.88-.14-7.76,3.2-8.23,8.49-.55,6.13,3.1,8.64,8.04,8.97,5.19.34,7.41-3.26,7.31-8.34Zm13.62-7.66c-1.71-1.08-3.59-1.59-4.05-2.68-2.18-5.21-2.55-3.41-4.65.33-3.26,5.8,1.59,10.4,1.29,15.67-.04.75,4.18,1.74,6.43,2.62-4.46-6.29-4.46-11.71.98-15.93Zm165.93,15.57c.89-.26,2.97-.62,2.96-.91-.17-5.67,1.9-11.65-2.96-16.86v17.77Z"/>
    <path class="cls-28" d="m1157.89,564.51c.84-.88,1.53-2.25,2.55-2.56,9.61-2.94,19.18-6.12,28.95-8.43,16.31-3.86,32.66-7.66,49.18-10.4,6.68-1.11,13.91,1.46,20.76.86,8.38-.73,17.04-1.92,24.84-4.86,21.24-8.01,43.29-11.57,65.67-13.15,6.19-.44,12.77,1.92,18.89,3.85,11.42,3.6,22.67,7.75,33.92,11.86,2.67.98,5.04,2.76,7.57,4.13,10.23,5.54,20.05,12.19,30.85,16.26,9.67,3.64,20.4,4.52,30.7,6.39,1.26.23,2.77-.9,6.04-2.06-6.08-8.64-10.73-17.25-17.22-24.1-18.7-19.73-42.39-31.9-67.8-40.33-16.15-5.36-32.9-9.12-50.26-7.93-1.33.09-2.69-.09-4.03-.26-.33-.04-.61-.54-1.66-1.55,9.96-4.81,19.66-6.96,30.33-4.58,14.16,3.15,14.92,1.8,20.07-12.11,4.87-13.17,11.17-25.67,21.04-36.41,12.42-13.51,25.61-25.8,41.19-35.51,22.13-13.78,45.66-24.02,72.17-23.09,21.52.76,40.21,9.03,50.59,29.33,7.32,14.32,12.83,29.57,19.75,44.11,6.08,12.78,12.49,25.46,19.66,37.66,16.39,27.91,34.19,55.03,49.76,83.38,11.58,21.08,18.89,44.29,23.32,67.95,3.53,18.87,5.5,38.12,6.85,57.29,1.36,19.29.92,38.71,1.62,58.05.65,17.95,1.9,35.88,2.61,53.84.66,16.64,2.02,33.36,1.06,49.92-.8,13.72-4,27.39-7.09,40.86-4.7,20.5-14.7,38.58-28.02,54.71-17.29,20.93-39.26,33.78-66.4,37.85-8.25,1.23-16.2,4.4-24.39,6.72,1.04,5.54,7.14,9.61,1.37,13.78-1.99,1.44-5.53,4.32-7.93-.34,4-6.26,3.72-6.93-4.07-9.48-21-5.51-41.84-11.89-63.96-10.89-1.31.06-2.63-.55-3.96-.68-12.14-1.14-24.28-2.24-36.42-3.35-.94-3.8-1.69-7.66-2.95-11.35-.34-1-2.22-1.48-3.39-2.2.03-24.42.06-48.84.09-73.26.86.23,1.89.23,2.55.73,6.02,4.61,7.4,4.16,12.41-1.35,3.58-3.93,8.25-6.84,12.2-10.46,5.59-5.13,11.8-9.88,16.2-15.92,5.99-8.22,10.98-17.28,15.58-26.39,5.07-10.04,9.7-20.36,13.58-30.91,2.68-7.29,3.24-15.35,5.68-22.76,5.1-15.5-.07-29.75-4.33-45.42-2.05,1.77-3.61,2.87-4.86,4.24-12.57,13.69-17.8,31.22-22.78,48.22-3.83,13.06-7.9,25.6-15.17,37.06-3.07,4.83-5.45,10.57-9.65,14.1-4.48,3.76-7.78,10.23-15.16,9.71,14.52-18.64,25.43-39.1,30.42-62.33,3.24-15.09,6.85-30.2,8.49-45.49,1.7-15.83,2.66-32.01,1.35-47.83-1.9-22.92-6.27-45.49-14.21-67.43-7.61-21.03-18.14-40.08-32.94-56.57-18.08-20.14-39.56-35.77-65.07-45.59-28.06-10.8-56.12-13.37-84.62-1.69-7.68,3.15-15.47,6.48-23.54,8.08-7.8,1.55-16.19,2.18-24.02,1.08-17.62-2.46-33.78,2.64-50.11,7.49-.55.16-.84,1.22-.95,1.4h45.18c12.72,3.24,25.51,6.25,38.14,9.82,5.49,1.55,10.65,4.25,15.96,6.43,2.6,1.58,5.54,2.78,7.73,4.8,9.57,8.82,19.9,17.06,28.17,26.99,25.85,31.06,35.74,67.82,35.99,107.63.11,17.35.15,34.7.22,52.05l-.23.35h-56.88c0,6.86-.18,13.34.09,19.81.11,2.71,1.18,5.37,1.82,8.06-2.75,3.35-5.51,6.69-8.26,10.04-5.79.32-11.58.74-17.37.92-4.14.13-7.46.39-7.3,6.12.16,5.66,3.91,4.23,7.03,4.52,5.93.55,11.85,1.16,17.77,1.74,2.12,2.89,4.23,5.78,6.35,8.67-.44,7.15-1.25,14.3-1.23,21.45.03,9.78.52,19.57,1.17,29.33.39,5.79-1.54,8.07-7.61,7.89-12.83-.37-25.68-.1-38.52-.1-13.95,0-27.9.27-41.84-.14-5.81-.17-7.08,1.89-7.06,7.32.2,38.23.1,76.46.1,114.69-40.19.02-80.37.04-120.56.06-3.85-.66-7.7-1.32-11.89-2.04-.11-2.17-.21-4.11-.31-6.05,5.85-6.35,11.71-12.69,17.56-19.04,7.93-10.94,13.02-22.84,12.35-36.68,9.64-14.32,19.65-28.45,22.88-45.96,1.33-11.47,3.16-22.91,3.81-34.42.48-8.47-.56-17.03-.93-25.55,5.03-3,10.07-5.99,15.1-8.99,4.41-3.27,8.81-6.54,13.22-9.81,4.01-2.66,8.03-5.32,12.04-7.98,2.76-3.03,5.53-6.06,8.3-9.09,11.68.47,18.61-6.45,24.15-15.53,7.8,1.36,14.24-.09,18.44-7.76,1.24-2.26,4.04-3.65,6.13-5.45,2.39-.38,4.88-.43,7.14-1.19,12.41-4.18,24.31-9.16,34.74-17.54,18.35-14.74,29.47-33.22,31.59-56.83.15-.15.42-.3.42-.46,0-.39-.12-.78-.19-1.17,0-4.12.01-8.23.02-12.35.12-.19.36-.41.32-.55-.11-.4-.34-.76-.53-1.14-.1-1.22-.21-2.44-.31-3.66l-1.26-6.83h0c-3.13-8.19-6.27-16.39-9.4-24.6-.45-.76-.91-1.52-1.36-2.28-.39-.62-.79-1.23-1.18-1.85l-.31.26.34-.22c-.96-1.36-1.93-2.72-2.89-4.08l-.98-1.34c-4.27-4.33-8.55-8.67-12.82-13-1.97-1.33-3.86-2.8-5.93-3.96-6.12-3.42-12.3-6.7-18.46-10.04-1.33-.82-2.67-1.64-4-2.47-.47-.11-.95-.22-1.42-.34-.91-.3-1.81-.59-2.72-.89-1.34-.03-2.67-.07-4.01-.1-.46-.27-.91-.54-1.37-.81-.5-.17-1-.34-1.49-.51-1.3-.16-2.6-.32-3.91-.48-6.79-3.7-13.56-2.96-20.33.1-1.39.43-2.77.85-4.16,1.28-.87.15-1.74.3-2.61.44-3.64.86-7.28,1.73-10.92,2.59-9.49,5.38-18.98,10.75-28.47,16.13-.42.5-.84,1.01-1.26,1.51-1.37,1.35-2.74,2.69-4.11,4.04-1.97,2.64-3.93,5.27-5.9,7.91-.87,1.22-1.74,2.44-2.61,3.66-.41.62-.82,1.25-1.23,1.87-.87.94-1.74,1.88-2.61,2.83-.83,1.83-1.65,3.65-2.48,5.48h0c-.93,1.75-1.87,3.49-2.8,5.23l-.47,1.48-3.24,11.44c-.46,7.02-.91,14.05-1.37,21.07.02.47.05.94.07,1.42.3,2.71.6,5.42.89,8.12-.05.16-.16.33-.13.47.06.3.19.58.3.87.25,2.36.51,4.72.76,7.09.76,3.42,1.53,6.84,2.29,10.27,5.3,8.17,10.59,16.34,15.89,24.51.43.49.87.98,1.3,1.47,1.34,1.42,2.68,2.84,4.01,4.26,1.37,6.26,1.35,13.06,6.96,17.64-1.46,5.34-2.92,10.68-4.38,16.02-5.44.02-6.87,3.33-6.6,8.04-.29.21-.61.3-.96.27-1.97.2-3.93.5-5.91.58-5.83.25-11.67.41-17.51.61,0-4.97,0-9.94,0-14.9.63-.22,1.65-.28,1.83-.7,2.12-4.79,4.38-9.55,5.99-14.51.63-1.94.15-4.53-.58-6.55-1.28-3.57-3.29-6.87-4.74-10.39-5.77-14.01-11.69-27.97-17.02-42.15-2.08-5.53-2.72-11.6-3.79-16.44h-21.04c-.43-.02-.85-.05-1.27-.08-.47-1.33-.95-2.66-1.42-4,.42-1.91.83-3.83,1.25-5.74,1.89-3.07,3.77-6.14,5.66-9.2,1.7-4.15,3.41-8.31,5.6-13.66,5.83,5.12,9.96,8.76,14.52,12.76,2.2-3.28,5.18-6.97,7.32-11.09,3.48-6.71,6.82-13.56,9.41-20.64,1.26-3.44,2.3-8.66.6-11.13-3.98-5.79-9.67-10.41-15.3-16.16.14-1.19.45-3.83.76-6.48l4.08-6.73c2.45-1.32,5.07-2.39,7.31-3.99,7.21-5.15,14.16-10.67,21.43-15.71,4.21-2.92,8.85-5.21,13.3-7.78-.26-.32-.52-.65-.78-.97h-18.22Zm271.98-53.85c-.52.7-1.03,1.4-1.55,2.1,1.17.58,2.4,1.05,3.5,1.75,23.86,15.1,43.46,34.8,60.16,57.3,18.17,24.48,30.68,51.67,36.91,81.69,5.45,26.23,9.51,52.58,8.35,79.46-.57,13.21-.86,26.54-2.85,39.57-2.76,18.11-5.14,36.63-11.1,53.79-6.58,18.94-17.06,36.53-25.73,54.76-.7,1.47-.47,3.38-.67,5.09,1.74-.95,3.49-1.88,5.22-2.84,2.69-1.49,5.35-4.09,8.04-4.1,1.81-.01,4.17,3.36,5.34,5.69,2.1,4.17,2.45,9.63,5.37,12.91,17.52,19.66,39.57,29.51,66.05,26.65,8.87-.96,17.47-5.13,23.17-12.65,7.55-9.95,12.09-21.32,15.5-33.41,7.36-26.11,6.72-52.99,7.53-79.54.86-28.5-1.43-57.08-2.3-85.63-.74-24.41-5.61-48.12-13.48-71.1-4.41-12.89-10.02-25.47-16.2-37.63-7.82-15.39-16.66-30.27-25.27-45.25-8.73-15.2-17.6-30.31-26.62-45.34-8.55-14.26-16.64-28.88-26.32-42.35-6.64-9.24-16.44-15.8-28.67-15.32-17.98.72-31.83,9.81-40.88,24.77-5.77,9.55-9.02,20.62-13.84,32.05-2.29-.57-5.98-1.49-9.67-2.41Zm44.77,479.16c7.01-.3,10.5-4,12.5-8.65.89-2.06.14-6.07-1.43-7.59-1.57-1.52-5.22-1.73-7.7-1.22-2.2.45-3.9,2.95-6.08,4.03-3.26,1.63-6.63,3.69-4.71,7.49,1.3,2.57,4.86,4,7.42,5.93Z"/>
    <path class="cls-23" d="m812.37,1015.63c-1.07-.32-2.61-.3-3.13-1.02-8.27-11.34-21.36-9.04-32.58-10.91-27.86-4.63-50.98-16.11-67.31-40.08-14.38-21.11-24.08-44.15-29.7-68.83-7.59-33.28-5.88-66.57,3.19-99.29,7.32-26.39,15.57-52.53,23.94-78.61,5.35-16.68,10.69-33.48,17.81-49.44,8.41-18.85,18.98-36.74,32.64-52.45,9.29-10.69,19.03-20.98,28.61-31.42,20.03-21.83,39.8-43.9,60.23-65.34,11.89-12.48,25.84-19.79,44.52-16.69,14.72,2.44,25.46,10.44,36.1,19.47,11.3,9.58,22.71,19.03,33.73,28.92,4.11,3.69,7.91,8.08,10.66,12.84,2.27,3.93,3.71,5.88,7.97,2.7,1.1-.82,3.04-.51,3.49-.57-5.03,5.73-10.28,11.67-15.48,17.65-7.32,8.42-15.05,16.53-21.83,25.37-14.78,19.25-24.13,41.14-26.68,65.2-1.38,12.99.99,26.33.67,39.48-.41,17.24,6.46,32.39,12.03,48.01,1.45,4.07,3.09,6.03,7.81,4.61,3.78-1.14,8.36-.28,11.74-1.99,5.19-2.62,8.12-7.25,8.12-13.76,0-2.95,2.47-5.91,3.82-8.86.04,9.48.08,18.95.12,28.43-4.98.46-9.97,1.32-14.95,1.27-6.12-.06-8.4,2.59-8.29,8.53.07,3.95-.8,7.93-1.24,11.89-5.43,7.18-10.87,14.37-16.3,21.55-2.25,4.56-4.51,9.12-6.76,13.68-1.95,1.71-3.89,3.43-4.7,4.14-9.28-7.44-17.47-15.56-27.1-21.29-9.94-5.92-21.72-6.99-33.46-6.55,7.64,6.05,15.76,11.19,23.24,17.14,3.3,2.62,6.51,6.55,7.59,10.48,1.94,7.06,2.52,14.54,3.06,21.89.15,2.04-1.4,4.68-2.96,6.27-2.32,2.37-5.38,4-8.07,6.03-4.9,3.7-9.45,4.05-14.3-.41-3.11-2.87-6.62-5.56-10.41-7.39-8.73-4.21-11-11.41-11.66-20.32-.51-6.85-2.59-13.58-3.97-20.37-2.33,1.8-2.81,3.44-3.49,4.99-8.45,19.12-7.38,37.13,2.5,56.07,6.32,12.11,13.97,16.36,26.49,14.47,3.18,5.41,5.95,11.14,9.65,16.17,5.6,7.61,13.38,11.9,23.03,12.13,19.11.44,37.18-16.58,29.95-41.95,1.3-4.59,2.61-9.19,3.91-13.78,1.43-4.89,2.86-9.78,4.29-14.68,2.74-4.06,5.47-8.11,8.21-12.17.45,8.59.9,17.18,1.35,25.77-.74,25.41,5.28,48.82,20.46,69.57,1.69,2.31,2.69,5.11,4.02,7.68,1.66,14.99,6.61,28.67,16.1,40.55.46,1.33.92,2.66,1.38,3.99-4.5,1.38-8.94,3.67-13.52,3.99-18.76,1.29-37.56,1.92-56.35,2.93-6.69.36-13.39.88-20.04,1.7-12.39,1.53-24.8,3-37.1,5.11-11.21,1.92-22.36,4.35-33.39,7.15-4.77,1.21-8.37,4.5-7.67,10.36Z"/>
    <path class="cls-24" d="m812.37,1015.63c-.7-5.86,2.89-9.14,7.67-10.36,11.03-2.8,22.17-5.23,33.39-7.15,12.3-2.11,24.71-3.58,37.1-5.11,6.65-.82,13.35-1.34,20.04-1.7,18.78-1.01,37.59-1.64,56.35-2.93,4.58-.32,9.02-2.6,13.52-3.98,7.44,5.74,14.15,13.09,22.47,16.93,28.69,13.24,57.25,13.18,84.55-4.6.1,1.94.2,3.88.31,6.05,4.19.72,8.04,1.38,11.89,2.04,4.06,1.79,8.03,4.88,12.18,5.15,15.71,1.02,31.47,1.33,47.22,1.54,18.62.25,37.25-.17,55.87.27,11.19.27,22.34,2.19,33.53,2.37,24.6.38,49.22.25,73.82.06,10.93-.09,21.87-.56,32.77-1.35,9.02-.66,18.08-1.6,26.93-3.35,3.27-.65,6.01-3.97,8.99-6.07h58.17c.23-4.64.43-8.42.62-12.2,2.08,0,4.16.01,6.24.01,12.14,1.11,24.28,2.21,36.42,3.35,1.33.12,2.65.73,3.96.68,22.11-1,42.96,5.39,63.96,10.89-1.43.98-2.77,2.18-4.32,2.9-4.61,2.13-8.56,4.64-7.86,10.64-17.77,4.66-35.71,8.29-54.2,8.13-4.01-5.28-9.03-2.36-13.53-1.31-5.97,1.39-11.77,3.54-17.64,5.36-27.89,1.78-55.78,3.68-83.69,5.28-8.3.48-16.65-.04-24.97.2-6.7.19-13.38.85-20.07,1.3-2.26,0-4.52,0-6.78,0-92.59,0-185.19,0-277.78,0-4.97-.45-9.94-.89-14.91-1.34-.9,0-1.8,0-2.7,0-4.07,0-8.14,0-12.2,0-20.01-.45-40.08-.15-60.03-1.55-27.67-1.94-55.27-4.89-82.85-7.91-16.22-1.78-32.37-4.3-48.47-7-5.46-.92-10.65-3.44-15.96-5.23Z"/>
    <path class="cls-3" d="m1137.47,373.7c-.15-.49-.3-.98-.44-1.47-.8-4.07-1.6-8.14-2.41-12.2-.09-.9-.18-1.8-.28-2.7-.33-3.62-.65-7.25-.98-10.87,0-3.64-.02-7.28-.02-10.92.34-4.97.69-9.95,1.03-14.92.08-.9.16-1.81.25-2.71,1.31-5.87,2.62-11.74,3.93-17.6.45-1.23.9-2.46,1.36-3.68,1.4-2.83,2.8-5.66,4.2-8.49,1.1-1.57,2.2-3.13,3.29-4.7,6.64-4.36,13.28-8.72,19.91-13.08.89-.28,1.78-.57,2.67-.85.92-.18,1.83-.36,2.75-.55,1.35-.2,2.69-.4,4.04-.6,4.13-.02,8.25-.04,12.38-.07,1.79.25,3.58.5,5.37.75.92.25,1.84.5,2.76.76,20.13,5.74,29.09,20.93,32.8,39.91,4.41,22.59,4.66,45.19-2.72,67.39-6.61,19.9-19.05,29.93-39.44,31.3-20.36,1.37-36.84-4.94-46.18-24.52-.38-.8-.94-1.51-1.42-2.26-.4-.96-.8-1.92-1.2-2.88,0,0,.04.08.04.08-.57-1.71-1.13-3.41-1.7-5.12Zm68.52-34.71c-2.27-12.36-3.8-24.41-6.88-36.05-2.01-7.58-8.42-11.5-16.56-11.49-7.16,0-13.43,4.53-15.89,12.51-1.98,6.4-3.43,13.11-3.98,19.78-1.41,17.11-2.18,34.38,4.9,50.57,1.72,3.93,5.52,7.93,9.38,9.74,9.08,4.26,18.77.46,21.85-9.5,3.54-11.46,4.87-23.6,7.18-35.57Z"/>
    <path class="cls-10" d="m1244.36,362.57h25.68c4.06,18.37,10.54,24.15,25.25,22.9,11.79-1,18.28-7.69,18.58-19.13.37-14.36-4.42-17.99-29.41-22.03-.15-1.4-.4-2.92-.46-4.44q-.48-12.52,11.37-14.9c10.18-2.05,15.35-8.62,14.69-18.65-.61-9.27-6.59-15.09-16.23-15.8-10.56-.77-18.18,4.51-20.09,14.01-.48,2.38-.71,4.81-1.09,7.44-2.22.13-3.99.3-5.76.31-6.28.04-12.55.01-18.69.01-2.64-15.06,6.78-32.75,20.71-38.93,16.34-7.25,33.03-7.25,49.27.05,22.76,10.22,26.82,39.33,8.16,56.04-.81.73-1.58,1.49-.9.84,4.29,5.18,9.1,9.71,12.38,15.16,11.04,18.38,4.44,44.91-14.62,55.54-19.39,10.81-39.98,11.1-59.62.56-14.9-8-19.14-22.33-19.21-38.99Z"/>
    <path class="cls-23" d="m1157.89,564.51h18.22c.26.32.52.65.78.97-4.45,2.57-9.09,4.86-13.3,7.78-7.28,5.05-14.23,10.56-21.43,15.71-2.24,1.6-4.86,2.68-7.31,3.99-7.77,0-15.67-.85-23.29.21-11.02,1.53-22.27,3.32-32.66,7.08-12.48,4.52-24.16,11.24-36.19,17.01-1.56.19-3.17.17-4.66.61-13.99,4.15-28.03,8.16-41.87,12.76-2.74.91-5.12,3.87-6.92,6.42-3.86,5.47-6.71,11.73-10.92,16.89-9.4,11.5-9.64,11.89.18,22.93.29.33.51.74.76,1.11-2.79,5.34-5.69,10.63-8.35,16.04-5.75,11.7-6.84,24.46-8.18,37.14-1.34-1.83-3.65-3.54-3.87-5.49-3-27.42,1.69-53.47,14.43-78.02,4.58-8.82,8.31-18.16,13.61-26.52,4.39-6.92,9.99-13.3,16.01-18.9,7.32-6.81,15.63-12.54,23.52-18.73,1.36-.9,2.71-1.81,4.07-2.71.45,0,.9,0,1.35,0,1.36-.9,2.71-1.81,4.07-2.71,13.59-4.21,27.19-8.41,40.76-12.72.59-.19.84-1.43,1.25-2.18,2.71,0,5.42,0,8.13,0,5.87-.9,11.74-1.81,17.62-2.71h20.33c10.39,1.35,20.78,2.71,31.17,4.06h2.71Z"/>
    <path class="cls-3" d="m1105.04,277.32c.24,5.84.49,11.68.73,17.53-.19,14.37-.44,28.73-.54,43.1-.1,15.28-.04,15.28,14.72,16.4.45.03.88.17,1.32.25.11.44.22.88.34,1.32,0,1.34,0,2.68,0,4.02,0,.92.02,1.83.02,2.75.02.89.04,1.78.05,2.67.03,1.82.06,3.65.08,5.47-.02.88-.04,1.77-.06,2.65-.13.49-.26.99-.39,1.48-3.54.09-7.09.34-10.63.22-3.98-.13-5.65,1.47-5.43,5.53.31,5.74.3,11.51.43,17.26,0,1.34,0,2.68,0,4.02-.04.44-.09.87-.13,1.31-.18.46-.36.91-.54,1.37-6.31,0-12.65-.39-18.93.08-6.16.47-8.03-2.06-7.54-7.81.36-4.25.13-8.56.1-12.84q-.07-8.74-9.03-8.87c-15.75-.23-31.49-.47-47.24-.71,4.95-.87,9.87-2.05,14.86-2.56,9.55-.97,11.92-4.26,9.39-13.33-.27-.98.96-2.38,1.5-3.59,1.4,0,2.81-.02,4.21-.03,4.88-.02,9.75-.03,14.63-.05.97,0,1.94,0,2.91,0,.41-.01.82-.02,1.22-.04,2.4-.32,4.8-.64,7.8-1.05,0-17.9.04-35.58-.1-53.26,0-1.04-1.45-2.06-2.22-3.09-1.35-2.04-2.81-4.02-4.02-6.14-.9-1.57-2.49-3.66-2.06-4.94,1.65-4.83,4-9.43,6.09-14.11,1.35,0,2.7.02,4.05.03.63,9.5,7.81,3.53,11.83,4.82,3.5,1.13,4.74-1.4,4.44-4.68,1.35,0,2.7,0,4.04,0,.91,1.99-2.41,7.55,4.08,4.82Z"/>
    <path class="cls-32" d="m962.75,731.15c1.34-12.69,2.43-25.44,8.18-37.14,2.66-5.41,5.56-10.7,8.35-16.04,1.28.62,2.57,1.24,3.85,1.85-5.29,14.8-5.92,30.08-5.62,45.65.26,13.83,10.96,26.3,22.73,29.17,6.08,1.48,12.2,3.16,18.4,3.81,21.11,2.2,42.18,2.74,62.7-4.26,8.7-2.96,14.35-8.89,17.54-17.42,5.69-15.16,3.54-30.54,1.65-45.97-.22-1.82,1.19-3.84,1.84-5.77.42.03.85.06,1.28.08,9.58,15.87,13.36,33.04,12.38,51.53-.57,10.79-.11,21.63-.12,32.45-21.33,0-42.66.03-63.99-.03-3.59-.01-6.94-.08-6.92,4.86l-6.68-1.62c-3.99-1.07-7.97-3-11.98-3.06-21.15-.32-42.31-.16-63.46-.17-.04-9.48-.08-18.95-.12-28.43,0-3.16,0-6.32,0-9.48Z"/>
    <path class="cls-10" d="m1076.59,272.33c-2.09,4.68-4.44,9.28-6.09,14.11-.43,1.27,1.15,3.36,2.06,4.94,1.22,2.12,2.67,4.1,4.02,6.14-2.14,3.83-4.13,7.76-6.44,11.48-8.09,13.02-16.32,25.96-24.45,38.96-1.11,1.77-1.95,3.7-3.08,5.89,2.48.54,4,.87,5.52,1.19-.54,1.21-1.77,2.61-1.5,3.59,2.53,9.07.16,12.36-9.39,13.33-4.99.51-9.91,1.68-14.86,2.56-.4.22-.82.3-1.27.24,0,0,0,.04,0,.04-.04-4.95-.07-9.9-.11-14.84.14-3.36.28-6.72.42-10.09,1.6-2.52,3.21-5.05,4.81-7.57.34-.18.49-.47.44-.85,1.84-2.76,3.68-5.53,5.52-8.29,0,0-.02-.01-.02-.01,1.2-1.91,2.4-3.82,3.6-5.74.33-.15.47-.41.42-.78,1.63-2.46,3.27-4.91,4.9-7.37.35-.2.5-.5.46-.9,1.49-2.31,2.97-4.61,4.46-6.92.28-.47.57-.95.85-1.42,1.23-1.89,2.45-3.78,3.68-5.66.36-.2.52-.51.48-.93,2.66-4.18,5.32-8.36,7.98-12.54,0,0,0,.02,0,.02,1.74-2.73,3.48-5.47,5.22-8.2.65-1.08,1.3-2.16,1.95-3.24,1.36-1.66,2.73-3.31,4.1-4.97.41-.22.69-.55.85-.98l.49-1.38c.34.09.65.02.91-.22.45-.03.91-.07,1.36-.1.9.17,1.81.34,2.71.52Z"/>
    <path class="cls-13" d="m1160.33,446.8c5.4.11,11.03,4.52,16.26-1.24.69-.75,4.52.69,6.41,1.88,1.91,1.21,3.21,3.37,4.78,5.11-.8,5.09-1.6,10.18-2.4,15.28-2,.58-4.01,1.17-6.01,1.75.15-5.86,1.69-11.9-1.03-17.39-.86.03-1.72.06-2.58.09v17.25c-2.86.02-5.71.04-8.57.06,6.06-9.53,3.68-16.13-6.49-17.5-.12-1.74-.25-3.52-.37-5.29Z"/>
    <path class="cls-26" d="m1021.12,374.77c.45.06.87-.02,1.27-.24,15.75.24,31.49.47,47.24.71q8.94.13,9.03,8.87c.03,4.28.27,8.59-.1,12.84-.49,5.75,1.38,8.27,7.54,7.81,6.27-.48,12.61-.09,18.93-.08-1.07.88-2.11,2.49-3.21,2.53-6.74.24-13.54.53-20.22-.15-1.83-.19-4.48-3.55-4.73-5.7-.67-5.77-.56-11.69-.16-17.51.36-5.23-1.74-6.47-6.62-6.38-14.4.28-28.8.2-43.2-.03-1.93-.03-3.84-1.73-5.76-2.65Z"/>
    <path class="cls-24" d="m1446.54,1121.31c2.19.44,4.39.89,6.58,1.33.06,3.17.11,6.33.17,9.5-1.81,1.28-4.83,2.29-5.2,3.89-1.16,5.15-4.07,7.43-8.98,6.93-5.49-.56-4.74-4.87-4.55-8.67,2.31.79,4.63,1.59,6.94,2.38-6.18-3.43-5.45-9.02-4.01-13.66.43-1.38,5.89-1.19,9.05-1.71Z"/>
    <path class="cls-22" d="m1241.99,452.37c.86-.05,1.73-.1,2.59-.16,3.16.5,6.32,1.01,9.47,1.51.53,4.16,1.31,8.31,1.44,12.48.04,1.16-1.87,2.37-2.88,3.56-.65-1.25-1.66-2.45-1.87-3.77-.47-2.92-.53-5.91-.75-8.87-.93.03-1.85.05-2.78.08-.28,2.65-.69,5.29-.82,7.94-.17,3.62-1.4,5.67-5.44,4.32.35-5.7.69-11.4,1.04-17.1Z"/>
    <path class="cls-22" d="m1185.39,467.83c.8-5.09,1.6-10.19,2.4-15.28.89-.11,1.78-.22,2.67-.33,3.81.88,4.4-1.18,3.88-4.25,1.71-.37,3.42-.74,5.12-1.11-.16,7.41-.31,14.83-.47,22.24,0,0-.54.34-.54.34-1.34.14-2.68.27-4.02.41-2.55-.13-5.09-.26-7.64-.4-.51-.48-1.02-.96-1.53-1.44l.11-.19Zm4.07-1.35c.89.06,1.79.12,2.68.18,2.93-2.73,3.08-6.18,1.37-9.78-.24-.52-3.33-.3-3.34-.23-.36,3.26-.52,6.54-.71,9.82Z"/>
    <path class="cls-33" d="m1272.03,1118.78c.79.9,4.46,3.15,4.76,5.78.84,7.41-2.37,11.85-7.03,11.44-5.21-.46-7.35-3.91-6.96-8.85.32-4.11-.09-9.07,9.23-8.37Z"/>
    <path class="cls-26" d="m1121.27,354.6c-.44-.09-.88-.22-1.32-.25-14.75-1.11-14.82-1.11-14.72-16.4.1-14.37.35-28.73.54-43.1.65,2.18,1.83,4.35,1.86,6.53.18,13,.08,26,.09,39,0,7.5,2.38,10.13,9.78,11.56,1.38.27,2.52,1.74,3.77,2.65Z"/>
    <path class="cls-22" d="m1160.33,446.8c.13,1.78.25,3.55.37,5.29,10.17,1.37,12.56,7.97,6.49,17.5-3.95,1.81-7.85,3.23-11.15-1.17-.14-7.12-.28-14.23-.43-21.35,0,0-.01-.02-.02-.02.44,0,.75-.21.92-.62,1.27.12,2.54.24,3.81.36Zm7,15c-1.67-2.45-2.79-4.08-3.9-5.71-1.08,1.61-2.97,3.2-3.01,4.83-.05,1.8,1.61,3.64,2.53,5.47,1.29-1.36,2.59-2.71,4.38-4.6Z"/>
    <path class="cls-33" d="m1114.09,1134.66c-3.1.44-6.24,1.37-9.28,1.1-1.56-.14-3.9-2.33-4.08-3.81-.16-1.38,1.79-3.52,3.33-4.46,1.85-1.14,4.26-1.37,6.42-1.99-.09-.8-.19-1.61-.28-2.41h-9.83c2.48-5.78,5.95-6.28,12.81-1.79.3,4.46.6,8.91.9,13.37Z"/>
    <path class="cls-33" d="m1376.06,1118.73c2.16.53,7.06.3,3.82,6.6-.25.48.16,1.27.22,1.93.23,2.35.44,4.7.66,7.05-3,.19-6.03.65-8.99.39-.89-.08-2.05-2.06-2.3-3.32-.42-2.11-.17-4.36-.28-6.54-.21-3.8.48-6.78,6.88-6.1Zm-2.99,2.7c-.29,1.07-.59,2.14-.88,3.2,2.44.57,4.87,1.14,7.31,1.71.25-.86.5-1.72.75-2.59-2.39-.78-4.78-1.55-7.17-2.33Zm-.47,7.21c-.29.77-.59,1.53-.88,2.3,1.93.71,3.86,1.42,5.79,2.12.27-.72.54-1.44.81-2.17-1.91-.75-3.82-1.5-5.73-2.26Z"/>
    <path class="cls-22" d="m1217.06,469.34c-3.46.16-6.91.32-10.37.48-5.84-7.35-4.12-14.25,3.87-17.46,1.51-.61,2.03-3.69,3.01-5.63,0,0-.04.05-.04.05.42-.12.85-.25,1.27-.37,1.07.52,2.15,1.04,3.22,1.56-.32,7.12-.64,14.25-.96,21.37Zm-2.34-8.58c-1.9-2-3.18-3.34-4.46-4.69-1.1,1.61-3.14,3.26-3.07,4.82.09,1.99,1.88,3.91,2.93,5.85,1.33-1.73,2.66-3.47,4.59-5.99Z"/>
    <path class="cls-22" d="m1128.08,470.03c-.78-.19-1.56-.37-2.34-.55-4.43-5.73-4.46-11.34.48-16.81,3.27.45,6.54.9,9.81,1.34-.12,4.94-.24,9.89-.35,14.83,0,0-.36.2-.35.2-.61.26-1.23.52-1.84.78-1.35.12-2.71.23-4.06.35-.45-.04-.89-.09-1.34-.13Zm-2.79-8.76c2.17,2.03,3.59,3.36,5,4.68,1-1.53,2.89-3.14,2.76-4.57-.16-1.8-1.98-3.46-3.08-5.18-1.32,1.43-2.65,2.86-4.68,5.06Z"/>
    <path class="cls-13" d="m1126.22,452.66c-4.94,5.47-4.91,11.08-.48,16.81-2.93.74-5.84,1.73-8.81,2.08-1.17.14-2.51-1.14-3.78-1.77,1.04-1.86,2.71-3.62,2.99-5.59.8-5.54,1.03-11.17,1.52-17.19-.56-.04-1.83-.14-3.09-.24.23-1.21.45-2.41,1.04-5.53,2.52,3.28,3.96,5.47,5.72,7.36,1.43,1.54,3.25,2.73,4.89,4.07Z"/>
    <path class="cls-33" d="m1028.9,1119.81c-1.69,5.4-3.37,10.79-4.9,15.69-2.8-7.53-5.59-15.02-8.38-22.51.26-.29.52-.58.78-.87,1.72,1.95,3.45,3.9,5.51,6.24,2.68-1.95,5.69-4.15,10.04-7.32-.77,3.07-1.16,4.62-1.55,6.16-.5.87-.99,1.74-1.49,2.61Z"/>
    <path class="cls-33" d="m1409.84,1132.14c-3.05,5.88-8.51,3.06-13.01,3.37-.52.04-1.65-2.39-1.73-3.71-.23-3.99-.08-8-.08-11.92,8.07-3.59,11.47-2.6,14.72,4.15.03,2.7.07,5.41.1,8.11Zm-10.38,2c2.76-1.06,6.2-1.47,6.51-2.68.72-2.84.44-6.23-.49-9.05-.34-1.03-3.64-1.08-6.02-1.68v13.41Z"/>
    <path class="cls-33" d="m1216.22,1125.73c-.68-2.3-1.13-3.83-1.6-5.41.94-.24,1.35-.35,1.76-.45,1.14,4.71,2.29,9.41,3.43,14.12-3.52.57-7.04,1.53-10.54,1.48-1.21-.02-3.62-3.51-3.38-3.82,1.57-2.07,3.58-3.9,5.73-5.39.94-.65,2.55-.33,4.6-.53Z"/>
    <path class="cls-33" d="m1302.99,1121.61c2.91,6.3,13.54,3.59,9.52,11.61-2.16,4.33-7.35,2.76-10.02,1.13-.63-3.9-1.45-6.62-1.37-9.31.06-2.11.82-5.64,2.02-6,3.46-1.03,7.58-1.51,9.84,3.86-3.23-.42-5.93-.77-9.99-1.29Zm.89,6.79c-.34.92-.67,1.84-1.01,2.75,2.07.52,4.13,1.04,6.2,1.56.21-.81.42-1.62.64-2.43-1.94-.63-3.88-1.26-5.83-1.88Z"/>
    <path class="cls-33" d="m1453.29,1132.14c-.06-3.17-.11-6.33-.17-9.5,1.61-5,5.86-4.83,9.38-3.76,4.16,1.26,5.67,4.86,4.36,9.26-3.57.2-7.14.41-10.94.62,2.19,7.65,6.76,2.67,10.02,3.26-4.03,5.43-6.51,5.45-12.67.11Z"/>
    <path class="cls-24" d="m961.33,1118.83c1,.07,1.99.15,2.99.22,1.29,4.72,2.33,9.54,3.96,14.14,1.38,3.92.24,5.97-3.58,6.92-3.02-2.22-6.04-4.44-9.06-6.66-1.03-4.83-2.06-9.61,4.27-11.91.71-.26.96-1.78,1.42-2.72Z"/>
    <path class="cls-33" d="m1257.92,1123.7c-3.26-.24-6.45-.47-9.64-.71.08,2.93.15,5.86.23,8.78,2.86-.19,5.72-.38,10.98-.73-3.59,2.16-5.85,4.56-8.31,4.77-4.71.4-8.1-3.01-7.96-7.34.11-3.22,2.16-7.73,4.75-9.23,4.61-2.67,7.95.74,9.95,4.45Z"/>
    <path class="cls-13" d="m1155.62,447.08c.14,7.12.28,14.23.43,21.35-2.87,0-5.73-.02-8.6-.03,1.03-4.77,2.06-9.53,3.21-14.86-.03,0-1.85-.52-3.66-1.04.07-6.28,5.15-4.57,8.63-5.42Z"/>
    <path class="cls-22" d="m1235.2,468.38c-3.96-.13-7.91-.26-11.87-.4.39-4.74.78-9.49,1.17-14.23,0,0,.08-.02.08-.02.83-.33,1.66-.65,2.49-.98,2.66.3,5.31.6,7.97.89.45,2.64.9,5.28,1.36,7.92-2.99-.19-5.99-.38-9.77-.61.13,1.27.3,3.04.48,4.81l8.3-.96-.21,3.57Z"/>
    <path class="cls-33" d="m964.69,1140.12c3.83-.95,4.96-3.01,3.58-6.92-1.62-4.61-2.67-9.42-3.96-14.14,1.25.76,2.51,1.51,3.76,2.27.72,3.07,1.44,6.13,2.16,9.2.47,0,.93,0,1.4,0,.72-3.06,1.43-6.12,2.15-9.18.9-.97,1.8-1.94,2.7-2.91.53.3,1.06.59,1.58.89-2.26,6.66-4.25,13.44-6.9,19.94-1.52,3.73-4.52,3.84-6.48.86Z"/>
    <path class="cls-33" d="m1420.74,1119.94c8.08.1,8.6,1.1,7.51,15.4-4.59-2.01-11.54,5.19-13.9-4.49,3.65-2.32,7.29-4.65,11.36-7.24-2.07-1.53-3.52-2.6-4.97-3.68Z"/>
    <path class="cls-33" d="m1145.98,1118.99c15.34-.67,13.41-2.58,11.25,15.24,0-2.9.05-5.79-.01-8.69-.1-4.62-2.92-4.81-6.31-3.95-3.05,4.41,2.62,11.37-4.93,15.44v-18.04Z"/>
    <path class="cls-17" d="m1114.09,1134.66c-.3-4.46-.6-8.91-.9-13.37,1.37,1.14,2.75,2.29,4.59,3.82.5-2.02.93-3.78,1.43-5.81,2.58.24,5.1.47,7.63.7.82.89,1.64,1.79,2.46,2.68-2.28.34-4.55.69-6.96,1.05.72,2.13,1.43,3.47,1.6,4.88.87,7.13-.25,8.05-7.21,6.3-.85-.21-1.76-.17-2.64-.25Z"/>
    <path class="cls-33" d="m1095.06,1132.31c-2.55,1.17-5.1,3.32-7.64,3.3-4.55-.03-6.82-3.74-6.36-7.85.35-3.11,1.71-7.56,3.97-8.68,3.87-1.91,7.97-.12,9.72,4.09h-9.44c.02,2.76-1.04,6.67.35,7.96,1.5,1.39,5.27.31,8.05.31.45.29.9.58,1.35.87Z"/>
    <path class="cls-33" d="m931.79,1132.15c-3.33,1.29-8.23,4.59-9.68,3.46-3.33-2.59-4.98-7.34-7.21-11.04,5.68-4.8,10.14-9.47,16.16-3.05.24,3.54.49,7.09.73,10.63Zm-.87-4.23c-2.57-2.92-4.23-4.8-5.89-6.69-1.41,1.88-4,3.82-3.92,5.64.1,2.23,2.44,4.36,3.82,6.53,1.68-1.53,3.36-3.07,5.99-5.47Z"/>
    <path class="cls-33" d="m1179.79,1127.65c.09,5.08-2.12,8.68-7.31,8.34-4.94-.32-8.59-2.83-8.04-8.97.47-5.29,2.35-8.64,8.23-8.49,6.19.15,6.84,4.48,7.13,9.12Zm-1.43.53c-2.49-3.09-4.09-5.06-5.68-7.03-1.34,2.09-3.64,4.15-3.72,6.3-.07,1.94,2.28,3.97,3.56,5.97,1.67-1.49,3.33-2.98,5.84-5.23Z"/>
    <path class="cls-13" d="m1213.57,446.73c-.98,1.94-1.5,5.02-3.01,5.63-7.99,3.21-9.7,10.11-3.87,17.46-.83.48-1.78,1.48-2.47,1.32-1.8-.4-3.48-1.31-5.22-2.02.15-7.42.31-14.83.46-22.25,4.73,2.85,9.43,2.51,14.1-.14Z"/>
    <path class="cls-15" d="m1339.8,1134.63c-1.42.08-2.84.17-4.26.25-3.77-2.47-4.38-6.26-3.6-10.16.42-2.1,2.05-3.95,3.14-5.92,1.05-1.38,1.99-2.88,3.21-4.09.62-.62,1.75-.74,2.65-1.08.28,6.15.65,12.3.76,18.45.02.84-1.23,1.7-1.89,2.55Z"/>
    <path class="cls-14" d="m1548.14,1019.7c-.69-6,3.25-8.51,7.86-10.64,1.56-.72,2.89-1.92,4.32-2.9,7.79,2.55,8.07,3.21,4.07,9.48-1.35,0-2.7,0-4.05,0-1.36.45-2.73.91-4.09,1.36-2.71.9-5.41,1.8-8.12,2.7Z"/>
    <path class="cls-33" d="m1193.41,1119.99c-5.44,4.22-5.45,9.64-.98,15.93-2.25-.88-6.47-1.87-6.43-2.62.3-5.27-4.55-9.87-1.29-15.67,2.1-3.73,2.46-5.53,4.65-.33.46,1.1,2.34,1.6,4.05,2.68Z"/>
    <path class="cls-33" d="m899.38,1125.28c.98-2.15,2.05-6.18,2.91-6.14,3.78.2,7.49,1.58,11.22,2.53-.18.73-.36,1.45-.54,2.18-3.55-.7-7.1-1.4-10.65-2.1-.16.62-.31,1.25-.47,1.87,1.69.98,3.49,1.8,5.03,2.97,2.04,1.55,3.88,3.36,5.8,5.06-2.27,1.42-4.37,3.49-6.84,4.1-3.55.89-6.08-.65-5.45-4.99,2.81.76,5.63,1.51,8.44,2.27l.67-2.33c-3.38-1.81-6.76-3.62-10.13-5.42Z"/>
    <path class="cls-33" d="m1282.68,1126.68c.77-2.61.85-6.82,2.45-7.51,3.76-1.61,8.05-1.17,9.32,4.25-1.42-.59-2.8-1.53-4.26-1.69-1.54-.17-3.16.4-4.74.65.96,1.18,1.72,2.65,2.92,3.46,1.82,1.23,3.96,2,5.96,2.96,1.63,4.29-.38,6.46-4.44,6.69-3.33.19-7.58.99-7.33-4.72,2.89.78,5.78,1.57,8.67,2.35l.83-2.81c-3.12-1.21-6.24-2.43-9.36-3.64Z"/>
    <path class="cls-33" d="m1048.38,1132.16c-3.49,4.43-7.54,5.55-12,1.59-3.18-2.82-2.89-10.01.25-13.51,2.91-3.24,7.53-2.24,11.41,2.46.12,3.15.23,6.3.35,9.46Zm-1.23-4.16c-2.47-3.02-4.06-4.96-5.65-6.9-1.38,1.92-3.91,3.88-3.83,5.74.09,2.22,2.41,4.35,3.77,6.51,1.61-1.51,3.22-3.01,5.71-5.35Z"/>
    <path class="cls-14" d="m1462.76,1031.88c5.87-1.82,11.67-3.96,17.64-5.36,4.5-1.05,9.51-3.98,13.53,1.31-2.22.88-4.39,2.35-6.67,2.55-8.15.73-16.33,1.03-24.5,1.5Z"/>
    <path class="cls-33" d="m1335.07,1118.81c-1.08,1.97-2.72,3.82-3.14,5.92-.78,3.9-.17,7.69,3.6,10.16-5.15,1.89-6.86-.32-7.05-5.35-.1-2.62-1.92-5.18-1.98-7.79-.05-2.3,1.28-4.63,2-6.94,1.01.97,1.91,2.11,3.08,2.84,1.01.63,2.32.8,3.49,1.17Z"/>
    <path class="cls-24" d="m1232.38,1119.96c7.15-.04,7.16,4.71,6.63,9.84-.83.25-1.64.58-2.49.73-2.41.43-4.84.79-7.26,1.17.3-3.25.46-6.52.98-9.74.12-.76,1.39-1.34,2.14-2Z"/>
    <path class="cls-22" d="m1114.57,446.77c1.26.1,2.53.2,3.09.24-.49,6.02-.72,11.65-1.52,17.19-.28,1.96-1.95,3.73-2.99,5.59-.37-.51-.74-1.01-1.11-1.52,0-6.28-.01-12.56-.02-18.84.85-.89,1.7-1.77,2.55-2.66Z"/>
    <path class="cls-28" d="m1077.94,563.16c-.41.75-.66,2-1.25,2.18-13.56,4.31-27.16,8.5-40.76,12.72,3.63-2.27,6.99-5.39,10.94-6.63,10.22-3.2,20.69-5.57,31.06-8.27Z"/>
    <path class="cls-13" d="m1135.67,468.83c.12-4.94.24-9.89.35-14.83,2.37-.48,4.74-.96,7.11-1.45.03,5.66.07,11.32.1,16.98-2.52-.23-5.04-.47-7.57-.7Z"/>
    <path class="cls-26" d="m1105.7,397.97c-.13-5.75-.12-11.52-.43-17.26-.22-4.05,1.45-5.66,5.43-5.53,3.54.11,7.08-.13,10.63-.22-1.99.86-3.93,2.35-5.97,2.48-7.67.49-7.67.89-7.18,8.28.27,4.01-1.59,8.16-2.49,12.25Z"/>
    <path class="cls-33" d="m1232.38,1119.96c-.74.66-2.02,1.24-2.14,2-.51,3.22-.68,6.49-.98,9.74,2.42-.39,4.84-.74,7.26-1.17.85-.15,1.66-.48,2.49-.73-.65,5.28-6.46,8.47-10.23,4.89-2.43-2.31-3.61-6.83-3.73-10.42-.14-4.36,3.63-4.93,7.33-4.31Z"/>
    <path class="cls-33" d="m1446.54,1121.31c-3.16.53-8.62.34-9.05,1.71-1.44,4.64-2.17,10.23,4.01,13.66-2.31-.79-4.63-1.59-6.94-2.38-.51-4.33-1.02-8.66-1.53-13.02,4.59-3.31,9.06-5.6,13.51.03Z"/>
    <path class="cls-32" d="m1224.5,453.75c-.39,4.74-.78,9.49-1.17,14.23-2.09.45-4.18.9-6.27,1.36.32-7.12.64-14.25.96-21.37,2.16,1.93,4.32,3.86,6.48,5.78Z"/>
    <path class="cls-24" d="m1420.74,1119.94c1.45,1.07,2.9,2.15,4.97,3.68-4.07,2.59-7.71,4.92-11.36,7.24-1.5.43-3.01.86-4.51,1.29-.03-2.7-.07-5.41-.1-8.11,3.67-1.36,7.34-2.73,11-4.09Z"/>
    <path class="cls-6" d="m1339.8,1134.63c.66-.85,1.91-1.71,1.89-2.55-.11-6.15-.48-12.3-.76-18.45,1.19,1.34,2.39,2.67,3.91,4.38,1.76.44,4.31,1.09,6.87,1.73-.16.6-.31,1.19-.47,1.79h-7.77c0,3.26-.21,6.51.06,9.72.25,3.06-.8,4.12-3.74,3.39Z"/>
    <path class="cls-22" d="m1143.24,469.54c-.03-5.66-.07-11.32-.1-16.98,1.28-.02,2.57-.04,3.85-.06,1.81.52,3.63,1.03,3.66,1.04-1.15,5.33-2.18,10.09-3.21,14.86-1.4.38-2.8.76-4.21,1.14Z"/>
    <path class="cls-28" d="m1155.18,564.51c-10.39-1.35-20.78-2.71-31.17-4.06.6-.84,1.32-2.46,1.79-2.4,9.59,1.41,19.16,2.99,28.72,4.65.31.05.44,1.18.66,1.81Z"/>
    <path class="cls-26" d="m1235.2,468.38c.07-1.19.14-2.38.21-3.57.33-1.08.66-2.16.99-3.24-.45-2.64-.9-5.28-1.36-7.92,2.31-.43,4.63-.85,6.94-1.28-.35,5.7-.7,11.4-1.04,17.1-1.92-.36-3.83-.73-5.75-1.09Z"/>
    <path class="cls-10" d="m1096.92,272.5c.3,3.28-.95,5.81-4.44,4.68-4.02-1.29-11.2,4.68-11.83-4.82,3.16-.18,6.32-.36,9.48-.55,2.27.23,4.53.46,6.8.69Z"/>
    <path class="cls-33" d="m938.44,1119.95c3.05-.4,6.09-.81,9.14-1.21-.91,1.22-1.86,2.4-2.71,3.65-.95,1.38-1.81,2.82-2.71,4.24l-.98,9.24c-.49.03-.99.07-1.48.1-.47-1.27-.94-2.55-1.4-3.82.05-4.06.11-8.13.16-12.19Z"/>
    <path class="cls-11" d="m942.15,1126.63c.9-1.41,1.76-2.85,2.71-4.24.86-1.25,1.8-2.44,2.71-3.65,1.59.04,3.19.08,4.78.12-.25,4.44-.5,8.89-.75,13.33-3.15-1.85-6.31-3.71-9.46-5.56Z"/>
    <path class="cls-33" d="m951.61,1132.19c.25-4.44.5-8.89.75-13.33,2.99,0,5.98-.02,8.96-.02-.46.94-.71,2.46-1.42,2.72-6.33,2.29-5.3,7.07-4.27,11.91-.81.84-1.62,1.67-2.43,2.51-.53-1.26-1.07-2.52-1.6-3.78Z"/>
    <path class="cls-24" d="m938.44,1119.95c-.05,4.06-.11,8.13-.16,12.19-2.16,0-4.33,0-6.49,0-.24-3.54-.49-7.09-.73-10.63,2.46-.52,4.92-1.05,7.38-1.57Z"/>
    <path class="cls-26" d="m1167.31,270.35c-6.64,4.36-13.28,8.72-19.91,13.08,1.55-8.84,11.54-15.39,19.91-13.08Z"/>
    <path class="cls-33" d="m1067.13,1129.38v5.74c-4.85-1.07-10.17,3.25-13.52-2.98-.06-3.61-.12-7.23-.19-10.84l3.23-1.39c.01.48.02.96.03,1.44-.01,2.44-.19,4.9,0,7.32.33,4.3,2.32,6.07,6.56,3.8,1.3-1.03,2.59-2.06,3.89-3.08Z"/>
    <path class="cls-22" d="m1175.77,469.54v-17.25c.86-.03,1.72-.06,2.58-.09,2.72,5.49,1.17,11.53,1.03,17.39-1.2-.02-2.41-.03-3.61-.05Z"/>
    <path class="cls-13" d="m1112.02,449.43c0,6.28.01,12.56.02,18.84-1.22-.35-3.49-.69-3.49-1.05-.03-5.57.17-11.16.56-16.72.03-.42,1.9-.72,2.91-1.07Z"/>
    <path class="cls-33" d="m1359.34,1135.56v-17.77c4.86,5.21,2.79,11.19,2.96,16.86,0,.29-2.08.65-2.96.91Z"/>
    <path class="cls-15" d="m1067.13,1129.38c-1.3,1.03-2.59,2.06-3.89,3.08,0-5.03,0-10.06,0-15.09l3.89.06v11.95Z"/>
    <path class="cls-24" d="m1053.42,1121.29c.06,3.61.12,7.23.19,10.84-1.74,0-3.49.02-5.23.03-.12-3.15-.23-6.3-.35-9.46,1.8-.47,3.59-.94,5.39-1.41Z"/>
    <path class="cls-33" d="m1129.3,1122.68c-.82-.89-1.64-1.79-2.46-2.68,3.97-.84,5.81.49,5.54,4.8-.16,2.58.67,5.22.55,7.8-.06,1.25-1.27,2.46-1.96,3.68-.55-.18-1.11-.37-1.66-.55v-13.05Z"/>
    <path class="cls-11" d="m899.38,1125.28c3.38,1.81,6.76,3.62,10.13,5.42l-.67,2.33c-2.81-.76-5.63-1.51-8.44-2.27-.34-1.83-.68-3.66-1.02-5.49Z"/>
    <path class="cls-28" d="m1103.69,560.45c-5.87.9-11.74,1.81-17.62,2.71,5.04-6.34,11.34-4.42,17.62-2.71Z"/>
    <path class="cls-15" d="m1465.96,1132.02c-3.27-.59-7.83,4.39-10.02-3.26,3.8-.22,7.37-.42,10.94-.62-.3,1.29-.61,2.59-.91,3.88Z"/>
    <path class="cls-26" d="m1138.55,300.29c-1.31,5.87-2.62,11.74-3.93,17.6,1.31-5.87,2.62-11.74,3.93-17.6Z"/>
    <path class="cls-17" d="m1282.68,1126.68c3.12,1.21,6.24,2.43,9.36,3.64l-.83,2.81c-2.89-.78-5.78-1.57-8.67-2.35.04-1.37.09-2.73.13-4.1Z"/>
    <path class="cls-26" d="m1096.92,272.5c-2.27-.23-4.53-.46-6.8-.69,4.53-4.29,12.61-3.67,15.21,1.15l-.25.27c-.41-.18-.83-.36-1.24-.53-.96-.07-1.92-.13-2.88-.2-1.35,0-2.7,0-4.04,0Z"/>
    <path class="cls-26" d="m1134.38,320.61c-.34,4.97-.69,9.95-1.03,14.92.34-4.97.69-9.95,1.03-14.92Z"/>
    <path class="cls-11" d="m1294.32,1128.82c-2-.96-4.14-1.73-5.96-2.96-1.21-.81-1.96-2.29-2.92-3.46,1.58-.25,3.2-.82,4.74-.65,1.46.16,2.84,1.1,4.26,1.69-.04,1.8-.08,3.59-.12,5.39Z"/>
    <path class="cls-23" d="m1034.58,1037.32c4.97.45,9.94.89,14.91,1.34-5.13,1.35-10.36,3.77-14.91-1.34Z"/>
    <path class="cls-11" d="m973.79,1121.35c-.72,3.06-1.43,6.12-2.15,9.18-.47,0-.93,0-1.4,0-.72-3.07-1.44-6.13-2.16-9.2,1.9,0,3.81.01,5.71.02Z"/>
    <path class="cls-26" d="m1021.01,359.96c.04,4.95.07,9.9.11,14.84-.04-4.95-.07-9.9-.11-14.84Z"/>
    <path class="cls-26" d="m1059.02,290.89c-2.66,4.18-5.32,8.36-7.98,12.54,2.66-4.18,5.32-8.36,7.98-12.54Z"/>
    <path class="cls-26" d="m1189.14,268.29c-4.13.02-8.25.04-12.38.07,4.13-.02,8.25-.04,12.38-.07Z"/>
    <path class="cls-23" d="m1019.67,1037.31c4.07,0,8.14,0,12.2,0-3.62,3.85-8.6,3.84-12.2,0Z"/>
    <path class="cls-26" d="m1134.62,360.02c.8,4.07,1.6,8.14,2.41,12.2-.8-4.07-1.6-8.14-2.41-12.2Z"/>
    <path class="cls-26" d="m1133.37,346.45c.33,3.62.65,7.25.98,10.87-.33-3.62-.65-7.25-.98-10.87Z"/>
    <path class="cls-26" d="m1144.1,288.12c-1.4,2.83-2.8,5.66-4.2,8.49-3.23-5.12,1.72-6.19,4.2-8.49Z"/>
    <path class="cls-26" d="m1032.21,333.16c-1.84,2.76-3.68,5.53-5.52,8.29,0-3.99.13-7.89,5.52-8.29Z"/>
    <path class="cls-26" d="m1254.05,453.72c-3.16-.5-6.32-1.01-9.47-1.51,3.61-2.31,6.93-2.82,9.47,1.51Z"/>
    <path class="cls-26" d="m1026.25,342.3c-1.6,2.52-3.21,5.04-4.81,7.57-.44-3.82-.31-7.28,4.81-7.57Z"/>
    <path class="cls-10" d="m1100.96,272.5c.96.07,1.92.13,2.88.2.37.65.73,1.29,1.1,1.94.26-.02.5-.1.73-.22-.21.97-.43,1.94-.64,2.9-6.49,2.73-3.17-2.83-4.08-4.82Z"/>
    <path class="cls-26" d="m1064.23,282.71c-1.74,2.73-3.48,5.47-5.22,8.2,1.74-2.73,3.48-5.47,5.22-8.2Z"/>
    <path class="cls-26" d="m1070.28,274.5c-1.37,1.66-2.73,3.31-4.1,4.97.32-3.55-.4-7.86,5.43-7.33-.16.46-.32.92-.48,1.38-.28.33-.57.66-.85.99Z"/>
    <path class="cls-26" d="m1041.11,319.27c-1.63,2.46-3.27,4.91-4.9,7.37,1.63-2.45,3.27-4.91,4.9-7.37Z"/>
    <path class="cls-23" d="m1327.27,1038.67c2.26,0,4.52,0,6.78,0-2.26,0-4.52,0-6.78,0Z"/>
    <path class="cls-13" d="m1194.34,447.98c.52,3.07-.07,5.13-3.88,4.25,1.29-1.42,2.59-2.83,3.88-4.25Z"/>
    <path class="cls-26" d="m1046.03,311.45c-1.49,2.31-2.97,4.61-4.46,6.92,1.49-2.31,2.97-4.61,4.46-6.92Z"/>
    <path class="cls-26" d="m1035.79,327.41c-1.2,1.91-2.4,3.82-3.6,5.74,1.2-1.91,2.4-3.82,3.6-5.74Z"/>
    <path class="cls-26" d="m1050.56,304.36c-1.23,1.89-2.45,3.78-3.68,5.66,1.23-1.89,2.45-3.78,3.68-5.66Z"/>
    <path class="cls-13" d="m1194.44,469.86c1.34-.14,2.68-.27,4.02-.41-.7.89-1.4,1.78-2.11,2.68-.64-.76-1.28-1.51-1.91-2.27Z"/>
    <path class="cls-24" d="m1556.25,1017c1.36-.45,2.73-.91,4.09-1.36-1.36.45-2.73.91-4.09,1.36Z"/>
    <path class="cls-28" d="m1035.94,578.06c-1.36.9-2.71,1.81-4.07,2.71,1.36-.9,2.71-1.81,4.07-2.71Z"/>
    <path class="cls-28" d="m1030.52,580.77c-1.36.9-2.71,1.81-4.07,2.71,1.36-.9,2.71-1.81,4.07-2.71Z"/>
    <path class="cls-11" d="m1028.9,1119.81c.5-.87.99-1.74,1.49-2.61-.5.87-.99,1.74-1.49,2.61Z"/>
    <path class="cls-32" d="m1227.07,452.75c-.83.33-1.66.65-2.49.98.23-.77.45-1.55.68-2.32.6.45,1.21.9,1.81,1.35Z"/>
    <path class="cls-26" d="m1137.47,373.7c.56,1.71,1.13,3.41,1.7,5.12-.56-1.71-1.13-3.41-1.7-5.12Z"/>
    <path class="cls-26" d="m1197.28,269.79c-.92-.25-1.84-.5-2.76-.76.92.25,1.84.5,2.76.76Z"/>
    <path class="cls-26" d="m1172.73,268.95c-.92.18-1.83.36-2.75.55.92-.18,1.83-.36,2.75-.55Z"/>
    <path class="cls-13" d="m1133.48,469.81c.62-.26,1.23-.52,1.84-.78-.15.9-.29,1.79-.44,2.69-.47-.64-.94-1.28-1.41-1.91Z"/>
    <path class="cls-26" d="m1121.62,359.93c0-1.34,0-2.68,0-4.02,0,1.34,0,2.68,0,4.02Z"/>
    <path class="cls-26" d="m1139.12,378.73c.4.96.8,1.92,1.2,2.88-.4-.96-.8-1.92-1.2-2.88Z"/>
    <path class="cls-26" d="m1121.71,373.48c.02-.88.04-1.77.06-2.65-.02.88-.04,1.77-.06,2.65Z"/>
    <path class="cls-26" d="m1121.69,365.35c-.02-.89-.04-1.78-.05-2.67.02.89.04,1.78.05,2.67Z"/>
    <path class="cls-15" d="m1056.69,1121.34c-.01-.48-.02-.96-.03-1.44.15.34.35.66.43,1.01.03.11-.26.28-.4.43Z"/>
    <path class="cls-13" d="m1185.28,468.02c.51.48,1.02.96,1.53,1.44-.51-.48-1.02-.96-1.53-1.44Z"/>
    <path class="cls-13" d="m1128.08,470.03c.45.04.89.09,1.34.13-.45-.04-.89-.09-1.34-.13Z"/>
    <path class="cls-26" d="m1105.33,272.96c.23.32.49.62.67.97.04.09-.2.31-.32.48-.23.12-.47.2-.73.22.05-.47.09-.94.14-1.4l.25-.27Z"/>
    <path class="cls-26" d="m1073.88,271.81c-.45.03-.91.07-1.36.1.45-.03.91-.07,1.36-.1Z"/>
    <path class="cls-13" d="m1214.8,446.41c-.42.12-.85.25-1.27.37.42-.12.85-.25,1.27-.37Z"/>
    <path class="cls-13" d="m1156.52,446.44c-.17.41-.47.62-.92.62.02-.33.03-.67.04-1.01l.87.39Z"/>
    <path class="cls-26" d="m1105.56,403.3c.04-.44.09-.87.13-1.31.1.32.24.63.27.96.01.1-.26.23-.41.35Z"/>
    <path class="cls-12" d="m1429.86,510.67c3.69.92,7.38,1.84,9.67,2.41,4.82-11.43,8.06-22.5,13.84-32.05,9.05-14.96,22.9-24.05,40.88-24.77,12.23-.49,22.03,6.07,28.67,15.32,9.67,13.47,17.77,28.09,26.32,42.35,9.01,15.03,17.89,30.15,26.62,45.34,8.61,14.98,17.45,29.86,25.27,45.25,6.18,12.16,11.79,24.74,16.2,37.63,7.87,22.98,12.74,46.68,13.48,71.1.87,28.55,3.16,57.14,2.3,85.63-.8,26.55-.17,53.43-7.53,79.54-3.41,12.09-7.95,23.46-15.5,33.41-5.71,7.52-14.31,11.7-23.17,12.65-26.48,2.85-48.53-6.99-66.05-26.65-2.92-3.28-3.27-8.74-5.37-12.91-1.18-2.33-3.53-5.7-5.34-5.69-2.69.02-5.36,2.62-8.04,4.1-1.73.96-3.48,1.9-5.22,2.84.2-1.71-.02-3.62.67-5.09,8.66-18.23,19.15-35.82,25.73-54.76,5.96-17.16,8.34-35.68,11.1-53.79,1.99-13.03,2.28-26.36,2.85-39.57,1.16-26.88-2.9-53.23-8.35-79.46-6.24-30.02-18.74-57.21-36.91-81.69-16.71-22.5-36.3-42.2-60.16-57.3-1.1-.69-2.33-1.17-3.5-1.75.52-.7,1.03-1.4,1.55-2.1Z"/>
    <path class="cls-13" d="m962.87,769.05c21.16,0,42.31-.15,63.46.17,4.01.06,7.99,1.99,11.98,3.06-3.82,2.47-4.61,5.46-2.7,9.8.93,2.12.35,5.01.13,7.52-1.37,15.16-3.25,30.28-3.88,45.47-.12,2.87,4.13,6.73,7.28,8.56,1.39.81,6.26-1.64,7.43-3.77,1.79-3.27,2.13-7.51,2.41-11.39,1.23-17.26-6.16-34.08-2.75-51.5.18-.91-.79-2.04-1.22-3.07-.01-4.94,3.33-4.87,6.92-4.86,21.33.06,42.66.03,63.99.03,6.43.45,12.85,1.08,19.28,1.29,3.99.13,7.12.91,7.8,5.48,0,4.97,0,9.94,0,14.9,0,4.96,0,9.92.01,14.89.04.51.07,1.02.11,1.53,0,9.31,0,18.61.01,27.92.37,8.52,1.41,17.08.93,25.55-.66,11.51-2.49,22.95-3.81,34.42-1.79-3.58-3.28-7.35-5.47-10.67-1.37-2.08-3.8-4.81-5.74-4.8-1.94.01-4.56,2.71-5.67,4.86-14.76,28.63-39.49,40.52-70.33,41.68-17.53.66-34.9-.88-51.69-6.73-17.97-6.26-32.4-17.05-40.58-34.3-8.8-18.54-14.99-37.97-13.01-59.09.24-2.55-.98-5.23-1.53-7.85-2.26,1.1-3.2,2.15-3.18,3.19.15,7.85,1.24,15.77.52,23.52-.56,6.01-3.31,11.83-5.09,17.73-.45-8.59-.9-17.18-1.35-25.77,0,0-.52-.36-.52-.36.53-5.72,1.05-11.45,1.58-17.17.07-9.52.14-19.04.2-28.56.45-3.96,1.31-7.93,1.24-11.89-.11-5.94,2.17-8.58,8.29-8.53,4.98.05,9.97-.81,14.95-1.27Z"/>
    <path class="cls-14" d="m1245.97,556.38h-45.18c.12-.18.4-1.24.95-1.4,16.33-4.85,32.5-9.95,50.11-7.49,7.83,1.09,16.22.46,24.02-1.08,8.07-1.6,15.86-4.93,23.54-8.08,28.5-11.69,56.56-9.12,84.62,1.69,25.51,9.82,46.99,25.45,65.07,45.59,14.8,16.48,25.33,35.54,32.94,56.57,7.94,21.94,12.31,44.51,14.21,67.43,1.31,15.81.35,32-1.35,47.83-1.64,15.29-5.25,30.41-8.49,45.49-4.99,23.23-15.91,43.69-30.42,62.33-3.57,3.96-7.15,7.91-10.91,12.08,1.55,1.98,2.91,3.71,4.26,5.44-.09.44-.12.88-.1,1.33h-25.71c0-18.38.04-35.94-.01-53.51-.07-22.29-.21-44.58-.32-66.86,1.41,2.14,2.82,4.29,5.16,7.86,1.21-6.9,2.24-12.84,3.28-18.77,2.3-1.19,4.6-2.38,6.95-3.59,1.17,2.58,2.3,5.05,3.51,7.7,3.65-2.56,6.53-4.69,9.53-6.66,4.3-2.83,9.97-4.61,12.79-8.49,10.61-14.59,15.32-30.77,9.8-48.85-2.29-7.51-3.87-15.25-6.32-22.7-3.03-9.2-5.2-18.35-10.92-27.05-4.97-7.54-12.75-15.15-12.32-25.91.03-.63-2.99-1.5-4.65-2.05-2.28-.74-4.62-1.27-6.93-1.89.13-.67.27-1.34.4-2,1-.29,2.13-.37,2.97-.9,1.99-1.25,3.85-2.71,5.76-4.08-1.5-1.75-2.71-3.94-4.55-5.18-4.99-3.35-6.38-10.78-13.43-11.71-.24-.03-.39-.75-.59-1.15-3.76-7.66-12.4-8.82-19.05-2.27,4.57,3.87,13.04-.45,16.31,6.93-4.5,3.01-11.68-1.49-13.33,6.44,2.15,1.12,4.11,2.14,6.39,3.33-3.13,2.02-6.41,3.1-7.98,5.36-3.19,4.6-6.1,3.86-9.3.66-3.98-3.98-7.13-9.16-11.75-12.05-9.54-5.96-19.7-10.97-29.83-15.92-4.36-2.13-9.52-2.63-13.89-4.77-13.26-6.49-25.93-14.37-39.58-19.83-9.35-3.74-19.89-5.36-30.02-6-7.37-.46-14.96,2.14-22.4,3.6-1.2.24-2.16,1.69-3.23,2.59Z"/>
    <path class="cls-4" d="m1259.45,607.65c6.16,3.34,12.34,6.63,18.46,10.04,2.07,1.15,3.96,2.63,5.93,3.96,4.27,4.33,8.55,8.67,12.82,13,.33.45.65.89.98,1.34.96,1.36,1.93,2.72,2.89,4.08l-.34.22s.31-.26.31-.26c.39.62.79,1.23,1.18,1.85.45.76.91,1.52,1.36,2.28,3.13,8.2,6.27,16.4,9.4,24.61,0,0,0,0,0,0,.42,2.28.84,4.56,1.26,6.83.1,1.22.21,2.44.31,3.66-.09.19-.27.41-.24.57.09.39.29.75.44,1.12,0,4.12-.01,8.23-.02,12.35-.08.54-.16,1.08-.23,1.62-2.12,23.62-13.24,42.09-31.59,56.83-10.43,8.37-22.33,13.36-34.74,17.54-2.26.76-4.75.81-7.14,1.19-.01-2.17-.64-4.58.07-6.49,3.87-10.45,2.29-20.42-1.49-31.33-.85,1.58-1.27,2.13-1.46,2.74-.4,1.29-.82,2.59-.99,3.92-1.56,11.63-6.23,20.7-18.26,24.93-5.02,1.77-15.56-2.25-16.69-7.51-1.15-5.37,6.03-20.27,11.08-23.12,4.93-2.78,9.8-5.65,14.7-8.48-11.75-1.82-22.78-1.41-31.75,6.22-7.47,6.35-15.32,12.93-13.46,24.59-3.62-2.79-7.24-5.58-10.85-8.37-1.34-1.42-2.68-2.84-4.01-4.26-.43-.49-.87-.98-1.3-1.47-5.3-8.17-10.59-16.34-15.89-24.51-.76-3.42-1.53-6.85-2.29-10.27-.25-2.36-.51-4.72-.76-7.09-.06-.45-.12-.89-.17-1.34-.3-2.71-.6-5.42-.89-8.12-.02-.47-.05-.94-.07-1.42.46-7.02.91-14.05,1.37-21.07,1.08-3.82,2.16-7.63,3.24-11.44.16-.49.31-.99.47-1.48.93-1.74,1.87-3.48,2.8-5.22,0,0,0,0,0,0,.83-1.83,1.65-3.65,2.48-5.48.87-.94,1.74-1.88,2.61-2.83.41-.62.82-1.25,1.23-1.87.87-1.22,1.74-2.44,2.61-3.66,1.97-2.64,3.93-5.27,5.9-7.91,1.37-1.35,2.74-2.69,4.11-4.04.42-.5.84-1.01,1.26-1.51,9.49-5.38,18.98-10.75,28.47-16.13,3.64-.86,7.28-1.73,10.92-2.59.87-.15,1.74-.3,2.61-.44,9.54.04,19.07.08,28.61.12.43-.17.85-.34,1.28-.51.46.27.91.54,1.37.81,2.72.88,5.43,1.76,8.15,2.65,1.33.38,2.66.76,4,1.14Zm36.78,66.31c-1.44-.15-2.89-.3-4.33-.45-15.76.24-31.53.49-47.29.73-7.7.1-15.4.2-23.09.29-14.88.29-29.76.59-44.64.88-2.72.03-5.44.05-8.15.08-.9.02-1.8.05-2.7.07-.75.69-1.5,1.38-2.25,2.07,0,3.79-.02,7.59-.03,11.38.04,1.44.08,2.87.13,4.31l3.49,8.4c1.36,0,2.73.01,4.09.02,11.74-.14,23.48-.28,35.22-.41,2.11.42,4.24,1.25,6.34,1.19,6.7-.16,13.4-.88,20.1-.97,16.2-.22,32.41-.13,48.61-.37,2.53-.04,5.05-1.12,7.58-1.72,2.3-.14,4.61-.28,6.91-.42.85-.97,2.39-1.91,2.43-2.9.21-5.96.22-11.94-.04-17.89-.06-1.41-1.44-2.77-2.21-4.15,0,0-.15-.15-.15-.15Z"/>
    <path class="cls-18" d="m1220.21,1004.76c0-38.23.11-76.46-.1-114.69-.03-5.43,1.24-7.49,7.06-7.32,13.93.41,27.89.14,41.84.14,4.15,5.75.44,11.47.12,17.25-.24,4.45-2.09,5.9-6.28,5.82-8.57-.16-17.17-.38-25.71.17-2.49.16-4.81,2.84-7.21,4.36,2.26,1.18,4.48,3.27,6.8,3.39,8.9.46,18.11-1.1,26.67.69,11.51,2.4,22.72.33,34.03.45,18.78.2,37.6-1.09,56.36-.52,6.33.19,12.3,1.3,18.12-1.81.33,1,.66,2,.99,3-.07,5.22-.14,10.45-.21,15.67.06,2.04.12,4.09.18,6.13-.08,5.17-.16,10.34-.24,15.51.02,2.47.03,4.95.05,7.42-.02,5.19-.03,10.38-.05,15.57.1,1.99.19,3.98.29,5.97-.13,5.74-.26,11.48-.38,17.22.02,1.32.04,2.63.06,3.95-36.39.56-72.79,1.18-109.18,1.64-14.4.18-28.8.01-43.21,0Z"/>
    <path class="cls-29" d="m1371.91,912.68c-5.82,3.11-11.8,2-18.12,1.81-18.76-.58-37.57.72-56.36.52-11.31-.12-22.52,1.95-34.03-.45-8.56-1.78-17.77-.23-26.67-.69-2.32-.12-4.54-2.21-6.8-3.39,2.4-1.52,4.72-4.2,7.21-4.36,8.54-.55,17.14-.32,25.71-.17,4.2.08,6.04-1.36,6.28-5.82.32-5.77,4.03-11.5-.12-17.25,12.84,0,25.69-.27,38.52.1,6.07.17,8-2.1,7.61-7.89-.65-9.76-1.14-19.55-1.17-29.33-.02-7.15.79-14.3,1.23-21.45,12.5,5.19,23.16,2.01,27.16-8.3,2.71-7,2.04-13.61-3.15-19.44-6.33-7.11-14.04-6.89-22.23-4.27-.63-2.68-1.7-5.35-1.82-8.06-.27-6.47-.09-12.95-.09-19.81,18.55,0,37.72,0,56.88,0,0,3.51,0,7.03,0,10.54.65-.35,1.3-.69,1.96-1.04,2.3,2.33,6.37,4.65,6.39,7.01.02,2.32-4.06,4.68-6.34,7.02-.6-.36-1.19-.73-1.79-1.09.18,3.27.36,6.53.54,9.8-.03,5.51-.07,11.02-.1,16.52l.25,6.15c-.1,4.81-.2,9.63-.3,14.44.06,2.9.11,5.8.17,8.71-.03,4.76-.07,9.53-.1,14.29l.16,6.2c-.07,5.58-.15,11.15-.22,16.73-.22,10.99-.44,21.97-.66,32.96Z"/>
    <path class="cls-8" d="m938.47,862.6c1.78-5.9,4.53-11.71,5.09-17.73.72-7.75-.37-15.67-.52-23.52-.02-1.04.92-2.09,3.18-3.19.54,2.62,1.77,5.3,1.53,7.85-1.99,21.12,4.21,40.55,13.01,59.09,8.18,17.25,22.62,28.03,40.58,34.3,16.79,5.85,34.16,7.39,51.69,6.73,30.84-1.16,55.57-13.05,70.33-41.68,1.11-2.15,3.74-4.85,5.67-4.86,1.94-.01,4.37,2.71,5.74,4.8,2.19,3.31,3.68,7.09,5.47,10.67-3.23,17.51-13.24,31.64-22.88,45.96-1.69,1.01-3.65,1.75-5.04,3.08-11.74,11.22-25.17,19.62-40.89,23.83-38.26,10.23-72.49,3.37-101.7-24.45-1.79-1.7-4.5-2.44-6.78-3.63-1.32-2.57-2.33-5.37-4.02-7.68-15.18-20.76-21.2-44.16-20.46-69.57Z"/>
    <path class="cls-25" d="m1245.97,556.38c1.07-.89,2.03-2.35,3.23-2.59,7.44-1.47,15.03-4.07,22.4-3.6,10.13.64,20.67,2.26,30.02,6,13.65,5.46,26.32,13.34,39.58,19.83,4.36,2.13,9.52,2.64,13.89,4.77,10.13,4.95,20.29,9.96,29.83,15.92,4.62,2.89,7.77,8.07,11.75,12.05,3.21,3.2,6.11,3.94,9.3-.66,1.57-2.26,4.85-3.34,7.98-5.36-2.28-1.19-4.24-2.21-6.39-3.33,1.66-7.92,8.84-3.43,13.33-6.44-3.27-7.38-11.74-3.06-16.31-6.93,6.65-6.55,15.29-5.39,19.05,2.27.2.4.34,1.12.59,1.15,7.05.93,8.44,8.37,13.43,11.71,1.84,1.24,3.05,3.42,4.55,5.18-1.91,1.37-3.77,2.83-5.76,4.08-.85.53-1.97.61-2.97.9-.13.67-.27,1.34-.4,2,2.31.62,4.66,1.15,6.93,1.89,1.67.54,4.68,1.42,4.65,2.05-.43,10.76,7.35,18.37,12.32,25.91,5.73,8.69,7.89,17.85,10.92,27.05,2.46,7.45,4.03,15.19,6.32,22.7,5.52,18.08.81,34.27-9.8,48.85-2.82,3.87-8.49,5.65-12.79,8.49-2.99,1.97-5.88,4.1-9.53,6.66-1.21-2.66-2.34-5.13-3.51-7.7-2.35,1.21-4.65,2.4-6.95,3.59.43-6.94,1.44-13.89,1.18-20.8-.47-12.31-1.11-24.67-2.74-36.87-2.73-20.44-9.31-39.88-19.9-57.51-12.56-20.91-29.01-38.58-51.17-49.47-11.31-5.56-23.85-8.62-35.83-12.8-7.71-.91-15.41-1.83-23.12-2.74-5.31-2.18-10.48-4.88-15.96-6.43-12.63-3.57-25.42-6.58-38.14-9.82Z"/>
    <path class="cls-16" d="m1372.72,842.5c-.06-2.9-.11-5.8-.17-8.7,4.81-.06,9.61-.12,14.42-.18,8.08,0,16.15,0,24.23-.01l2.61-2.26c-.03-3.59-.06-7.19-.1-10.78l-1.08-1.07c-2.26-.07-4.52-.14-6.78-.21-11,.02-21.99.04-32.99.06-.08-2.05-.17-4.1-.25-6.14,11.74.08,23.48.02,35.22.27,4.68.1,6.74-1.61,6.2-6.35-.2-1.78-.22-3.63-.01-5.41.48-4.18-1.35-5.59-5.42-5.49-11.96.28-23.92.32-35.88.45-.18-3.27-.36-6.53-.54-9.8.6.36,1.19.73,1.79,1.09,2.28-2.34,6.37-4.7,6.34-7.02-.02-2.36-4.09-4.67-6.39-7.01-.65.35-1.3.69-1.96,1.04,0-3.51,0-7.03,0-10.54,0,0,.23-.35.23-.35,5.81-.18,11.62-.37,17.42-.55,11.2.07,22.4.14,33.6.2.11,22.29.25,44.58.32,66.86.05,17.56.01,35.13.01,53.51h25.71c.13.92.25,1.83.38,2.75.04,5.86.08,11.71.12,17.57-.03,24.42-.06,48.84-.09,73.26.04,4.51.07,9.02.11,13.53-.19,3.78-.38,7.56-.62,12.2h-58.17c-6.12-.1-12.25-.21-18.37-.31-.02-1.32-.04-2.63-.06-3.94,17.38,0,34.76.02,52.14,0q15.09-.02,15.23-14.65c0-.45.02-.9.03-1.35.14-.16.42-.44.39-.47-.23-.28-.51-.52-.77-.77-.36-.14-.72-.26-1.1-.36-.59-.21-1.18-.42-1.77-.63-21.26.34-42.51.68-63.77,1.03-.1-1.99-.19-3.98-.29-5.97,8.38-.09,16.76-.19,25.14-.29,13.55-.19,27.11-.38,40.66-.56,3.88-5.59,3.22-11.86-1.53-14.48-15.3,0-30.59,0-45.89,0-6.11-.08-12.23-.17-18.34-.25-.02-2.47-.03-4.95-.05-7.42,4.78-.02,9.56-.05,14.34-.08,17.1-.03,34.2-.07,51.31-.1.47-.74.94-1.47,1.4-2.21-.01-3.6-.02-7.21-.03-10.81-.9-.73-1.8-1.46-2.7-2.19-13.96-.04-27.92-.08-41.88-.13-7.4,0-14.8,0-22.2,0-.06-2.04-.12-4.09-.18-6.13,20.69.13,41.38.2,62.07.45,3.82.04,5.35-1.39,5.08-5.14-.16-2.24-.18-4.51-.02-6.74.26-3.62-1.49-4.62-4.85-4.59-20.69.19-41.38.25-62.07.35-.33-1-.66-2-.99-3,.22-10.99.44-21.97.65-32.96,4.8-.1,9.59-.2,14.39-.3,8.08,0,16.15-.02,24.23-.03.84-.67,1.68-1.34,2.52-2.01-.06-4.49-.12-8.98-.18-13.47-.27-.2-.55-.41-.82-.61-1.42-.07-2.83-.14-4.25-.22-5.34,0-10.68-.01-16.02-.02-2.72.04-5.43.09-8.15.13-3.83-.07-7.66-.15-11.49-.22-.05-2.07-.11-4.13-.16-6.19,12.13.09,24.27.03,36.4.34,6.55.17,4.89-4.37,4.94-7.87.05-3.39,1.2-7.44-4.86-7.25-12.12.39-24.26.35-36.39.49Zm27.25-57.07c.35-1.03.69-2.05,1.04-3.08-2.51-2.37-4.78-5.15-7.68-6.83-.77-.44-4.3,2.14-5.06,3.96-.63,1.5.61,5.43,1.65,5.67,3.19.76,6.69.28,10.06.28Zm-10.21,106.27c-2.27,4.13-4.48,6.38-4.37,8.52.09,1.77,3.36,5.04,4.43,4.74,2.2-.6,5.25-3.03,5.39-4.9.15-2.02-2.61-4.27-5.45-8.36Z"/>
    <path class="cls-26" d="m1102.37,685.02c-.65,1.93-2.06,3.95-1.84,5.77,1.88,15.43,4.03,30.81-1.65,45.97-3.2,8.52-8.85,14.45-17.54,17.42-20.52,7-41.59,6.46-62.7,4.26-6.2-.65-12.31-2.32-18.4-3.81-11.78-2.87-22.48-15.34-22.73-29.17-.29-15.57.34-30.85,5.62-45.65,1.81-.84,3.62-1.67,5.43-2.5,9.32,9.02,19.92,9.78,32.47,7.67,12.23-2.06,25.32-2.37,37.53-.36,12.81,2.11,24.01,2.13,34.22-6.48,2.25-.14,4.5-.29,6.74-.43.48,1.11.95,2.22,1.43,3.33l1.42,4Zm-56.65,23.74c0,3.15.15,6.01-.03,8.85-.33,5.1,1.53,7.42,7,7.03,5.83-.41,11.71-.07,17.57-.07,20,0,19.79,0,19.67-19.99-.04-6.08-2.28-7.62-8.01-7.55-23.66.26-47.33.06-70.99.14-21.54.08-21.44.14-20.25,21.55.24,4.26,1.61,6.01,6.03,5.88,8.78-.26,17.58,0,26.37-.14,11.72-.18,11.17,1.92,11.41-11.27.03-1.47.47-2.93.73-4.44h10.48Z"/>
    <path class="cls-5" d="m1449.74,904.43c-.04-5.86-.08-11.71-.12-17.57-.09-1.36-.19-2.72-.28-4.08-1.35-1.73-2.71-3.46-4.26-5.44,3.76-4.17,7.34-8.12,10.91-12.08,7.38.52,10.68-5.94,15.16-9.71,4.2-3.53,6.58-9.26,9.65-14.1,7.27-11.45,11.34-23.99,15.17-37.06,4.98-17,10.21-34.53,22.78-48.22,1.26-1.37,2.81-2.46,4.86-4.24,4.25,15.67,9.42,29.92,4.33,45.42-2.44,7.41-3,15.47-5.68,22.76-3.88,10.55-8.52,20.87-13.58,30.91-4.6,9.11-9.58,18.17-15.58,26.39-4.4,6.04-10.62,10.79-16.2,15.92-3.95,3.62-8.62,6.53-12.2,10.46-5.01,5.51-6.39,5.96-12.41,1.35-.65-.5-1.69-.5-2.55-.73Z"/>
    <path class="cls-15" d="m1389.61,763.54c-5.81.18-11.62.37-17.42.55-.07-17.35-.11-34.7-.22-52.05-.25-39.8-10.14-76.57-35.99-107.63-8.27-9.93-18.6-18.17-28.17-26.99-2.19-2.02-5.13-3.22-7.73-4.8,7.71.91,15.41,1.83,23.12,2.74.6,1.15.89,2.85,1.84,3.35,21.58,11.52,35.67,30.12,47.47,50.68,11.39,19.87,17.86,41.86,19.26,64.3,1.45,23.14-1.26,46.55-2.15,69.83Z"/>
    <path class="cls-30" d="m988.56,677.31c-1.81.83-3.62,1.67-5.43,2.51-1.28-.62-2.57-1.24-3.85-1.85-.25-.37-.46-.78-.76-1.11-9.82-11.03-9.58-11.43-.18-22.93,4.22-5.15,7.06-11.41,10.92-16.89,1.8-2.55,4.18-5.51,6.92-6.42,13.84-4.6,27.88-8.61,41.87-12.76,1.48-.44,3.1-.42,4.66-.61,13.02,4.22,26.11,8.22,38.99,12.82,3.07,1.1,5.88,3.82,8.02,6.43,3.53,4.31,6.41,9.14,9.57,13.74,2.86,5.28,5.72,10.56,8.57,15.83-1.89,3.07-3.77,6.14-5.66,9.2-.89.8-1.79,1.61-2.68,2.41-2.25.14-4.5.29-6.74.43.49-2.2.98-4.4,1.46-6.6,3.08-4.04.3-6.77-2.79-7.91-10.8-4-21.78-7.54-32.77-11-3.73-1.17-7.85-1.42-6.2-7.07,3.71-11.1,2.54-13.79-6.44-14.79l-2.64-1.24c-2.33.42-4.66.83-6.99,1.25-2.92.58-5.85,1.16-8.77,1.74-.05.63-.09,1.26-.14,1.89.09,2.63.19,5.26.28,7.89.38.95.77,1.89,1.15,2.84v3.94c-13.22,4.65-25.19,8.69-37.02,13.11-5.17,1.93-6.34,5.81-3.49,10.69.04,1.48.08,2.96.12,4.44Z"/>
    <path class="cls-27" d="m962.95,939.85c2.28,1.19,4.99,1.93,6.78,3.63,29.21,27.81,63.44,34.68,101.7,24.45,15.73-4.21,29.16-12.61,40.89-23.83,1.39-1.33,3.34-2.07,5.04-3.08.68,13.84-4.41,25.73-12.34,36.67-3.47.62-6.97,1.15-10.42,1.87-5.38,1.12-10.74,3.47-16.08,3.38-33.16-.55-66.3-1.63-99.45-2.54-9.49-11.88-14.44-25.56-16.1-40.55Z"/>
    <path class="cls-32" d="m979.05,980.4c33.15.91,66.3,1.99,99.45,2.54,5.34.09,10.71-2.26,16.08-3.38,3.45-.72,6.95-1.25,10.42-1.87-5.85,6.34-11.71,12.69-17.56,19.04-27.29,17.78-55.86,17.84-84.55,4.6-8.32-3.84-15.02-11.19-22.47-16.93-.46-1.33-.92-2.66-1.38-3.99Z"/>
    <path class="cls-11" d="m1372.6,1003.12c6.12.1,12.25.21,18.37.31-2.98,2.1-5.72,5.43-8.99,6.07-8.85,1.75-17.91,2.69-26.93,3.35-10.9.79-21.85,1.27-32.77,1.35-24.61.19-49.22.32-73.82-.06-11.18-.17-22.34-2.1-33.53-2.37-18.61-.44-37.25-.02-55.87-.27-15.75-.21-31.52-.51-47.22-1.54-4.16-.27-8.13-3.36-12.18-5.15,40.19-.02,80.37-.04,120.56-.06,14.4.01,28.81.18,43.21,0,36.4-.46,72.79-1.08,109.18-1.64Z"/>
    <path class="cls-11" d="m1099.29,650.26c-3.16-4.61-6.04-9.44-9.57-13.74-2.14-2.62-4.95-5.34-8.02-6.43-12.88-4.6-25.98-8.6-38.99-12.82,12.03-5.77,23.71-12.48,36.19-17.01,10.39-3.77,21.64-5.55,32.66-7.08,7.63-1.06,15.52-.21,23.29-.21-1.36,2.24-2.72,4.49-4.08,6.73-1.38,1.42-2.87,2.74-4.11,4.26-11.45,14.05-20.22,29.69-27.37,46.29Z"/>
    <path class="cls-14" d="m1142.99,775.85c-.68-4.57-3.8-5.35-7.8-5.48-6.43-.21-12.85-.84-19.28-1.29,0-10.82-.45-21.66.12-32.45.98-18.49-2.8-35.66-12.38-51.53,6.8,0,13.61,0,21.04,0,1.08,4.84,1.72,10.91,3.79,16.44,5.32,14.18,11.25,28.14,17.02,42.15,1.45,3.52,3.46,6.82,4.74,10.39.73,2.02,1.21,4.61.58,6.55-1.61,4.97-3.88,9.72-5.99,14.51-.19.42-1.2.47-1.83.7Z"/>
    <path class="cls-15" d="m1182.23,755.96c-1.86-11.65,5.98-18.23,13.46-24.59,8.97-7.62,20-8.03,31.75-6.22-4.9,2.83-9.77,5.7-14.7,8.48-5.04,2.85-12.23,17.75-11.08,23.12,1.13,5.26,11.67,9.28,16.69,7.51,12.03-4.23,16.71-13.29,18.26-24.93.18-1.33.59-2.63.99-3.92.19-.62.61-1.17,1.46-2.74,3.78,10.91,5.36,20.88,1.49,31.33-.71,1.91-.08,4.31-.07,6.49-2.09,1.79-4.89,3.19-6.13,5.45-4.2,7.67-10.64,9.12-18.43,7.76-6.23-5.53-12.22-11.37-18.79-16.46-4.04-3.13-8.97-5.12-13.49-7.62-.47-1.22-.94-2.43-1.41-3.65Z"/>
    <path class="cls-23" d="m1099.29,650.26c7.15-16.6,15.92-32.24,27.37-46.29,1.24-1.52,2.73-2.85,4.11-4.26-.31,2.65-.62,5.29-.76,6.48,5.64,5.75,11.32,10.36,15.3,16.16,1.7,2.47.66,7.69-.6,11.13-2.59,7.09-5.93,13.93-9.41,20.64-2.14,4.12-5.12,7.8-7.32,11.09-4.56-4.01-8.69-7.64-14.52-12.76-2.19,5.35-3.9,9.51-5.6,13.66-2.86-5.28-5.72-10.56-8.57-15.83Z"/>
    <path class="cls-19" d="m1183.64,759.61c4.53,2.5,9.45,4.48,13.49,7.62,6.57,5.09,12.56,10.94,18.79,16.46-5.54,9.08-12.47,16-24.15,15.53-11.78-1.53-18.97-9.03-17.82-17.96,1.46-5.34,2.92-10.68,4.38-16.02,1.77-1.88,3.54-3.75,5.3-5.62Z"/>
    <path class="cls-6" d="m1316.97,792.31c8.19-2.62,15.89-2.84,22.23,4.27,5.19,5.83,5.87,12.44,3.15,19.44-4,10.31-14.66,13.49-27.16,8.3-2.12-2.89-4.23-5.78-6.35-8.67,5.66-.64,11.3-1.44,16.97-1.86,3.52-.26,6.86.01,6.94-5.04.1-5.69-3.95-4.13-7.06-4.46-5.67-.6-11.33-1.29-16.99-1.94,2.75-3.35,5.51-6.69,8.26-10.04Z"/>
    <path class="cls-9" d="m1308.71,802.35c5.66.65,11.32,1.33,16.99,1.94,3.1.33,7.16-1.23,7.06,4.46-.09,5.06-3.42,4.79-6.94,5.04-5.67.42-11.31,1.22-16.97,1.86-5.92-.58-11.85-1.19-17.77-1.74-3.13-.29-6.87,1.14-7.03-4.52-.16-5.73,3.16-5.99,7.3-6.12,5.79-.18,11.58-.6,17.37-.92Z"/>
    <path class="cls-17" d="m1143.11,807.17c-.04-.51-.07-1.02-.11-1.53,4.96-2.25,9.92-4.5,14.87-6.76,4.52,5.8,9.05,11.6,13.57,17.41-4.41,3.27-8.81,6.54-13.22,9.81-1.56-2.47-2.87-5.13-4.71-7.36-3.3-3.99-6.92-7.72-10.4-11.56Z"/>
    <path class="cls-9" d="m1171.44,816.29c-4.52-5.8-9.05-11.6-13.57-17.41,2.84-3.11,5.69-6.21,8.53-9.32.35.03.67-.06.96-.27,2.64.44,16.7,13.32,17.04,15.88.13.99-.59,2.08-.92,3.13-4.01,2.66-8.03,5.32-12.04,7.98Z"/>
    <path class="cls-5" d="m1474.64,989.83c-2.55-1.94-6.12-3.36-7.42-5.93-1.92-3.8,1.45-5.86,4.71-7.49,2.17-1.09,3.87-3.58,6.08-4.03,2.48-.51,6.13-.3,7.7,1.22,1.57,1.52,2.32,5.53,1.43,7.59-2,4.65-5.49,8.34-12.5,8.65Z"/>
    <path class="cls-19" d="m1143.11,807.17c3.48,3.84,7.1,7.57,10.4,11.56,1.84,2.23,3.16,4.89,4.71,7.36-5.03,3-10.07,6-15.1,8.99,0-9.31,0-18.62-.01-27.92Z"/>
    <path class="cls-14" d="m1166.4,789.56c-2.84,3.11-5.69,6.21-8.53,9.32-4.96,2.25-9.92,4.5-14.87,6.76,0-4.96,0-9.92-.01-14.89,5.84-.2,11.67-.36,17.51-.61,1.97-.08,3.94-.38,5.91-.58Z"/>
    <path class="cls-14" d="m1183.49,808.31c.33-1.05,1.05-2.15.92-3.13-.34-2.56-14.4-15.44-17.04-15.88-.27-4.71,1.16-8.02,6.6-8.04-1.15,8.93,6.04,16.44,17.82,17.96-2.77,3.03-5.53,6.06-8.3,9.09Z"/>
    <path class="cls-24" d="m1183.64,759.61c-1.77,1.87-3.54,3.75-5.3,5.62-5.61-4.58-5.59-11.39-6.96-17.64,3.62,2.79,7.24,5.58,10.85,8.37.47,1.22.94,2.43,1.41,3.65Z"/>
    <path class="cls-23" d="m1449.76,991.23c-.04-4.51-.07-9.02-.11-13.53,1.17.72,3.05,1.2,3.39,2.2,1.26,3.69,2.01,7.55,2.95,11.35-2.08,0-4.16-.01-6.24-.02Z"/>
    <path class="cls-31" d="m1312.44,668.77c-3.13-8.2-6.27-16.4-9.4-24.61,3.13,8.2,6.27,16.4,9.4,24.61Z"/>
    <path class="cls-31" d="m1296.66,634.66c-4.27-4.33-8.55-8.67-12.82-13,4.27,4.33,8.55,8.67,12.82,13Z"/>
    <path class="cls-15" d="m1220.22,602.16c6.76-3.06,13.53-3.79,20.33-.1-6.77.03-13.55.06-20.33.1Z"/>
    <path class="cls-31" d="m1220.22,602.16c6.78-.03,13.55-.06,20.33-.1,1.3.16,2.6.32,3.91.48.12.33.2.67.21,1.02-9.54-.04-19.07-.08-28.61-.12,1.39-.43,2.77-.85,4.16-1.28Z"/>
    <path class="cls-11" d="m1150.6,656.6c-1.08,3.81-2.16,7.63-3.24,11.44,1.08-3.81,2.16-7.63,3.24-11.44Z"/>
    <path class="cls-31" d="m1168.69,628.15c-1.97,2.64-3.93,5.27-5.9,7.91,1.97-2.64,3.93-5.27,5.9-7.91Z"/>
    <path class="cls-11" d="m1147.88,707.08c.77,3.42,1.53,6.85,2.29,10.27-.77-3.43-1.53-6.85-2.29-10.27Z"/>
    <path class="cls-31" d="m1213.45,603.88c-3.64.86-7.28,1.73-10.92,2.59,3.64-.86,7.28-1.73,10.92-2.59Z"/>
    <path class="cls-31" d="m1255.46,606.51c-2.72-.88-5.43-1.76-8.15-2.65,1.34.03,2.67.07,4.01.1.91.3,1.81.59,2.72.89.47.11.95.22,1.42.34,0,.44,0,.88,0,1.32Z"/>
    <path class="cls-11" d="m1156.35,644.42c-.83,1.83-1.65,3.65-2.48,5.48.83-1.83,1.65-3.65,2.48-5.48Z"/>
    <path class="cls-11" d="m1153.86,649.91c-.93,1.74-1.87,3.48-2.8,5.22.93-1.74,1.87-3.48,2.8-5.22Z"/>
    <path class="cls-14" d="m1099.52,677.7c.89-.8,1.79-1.61,2.68-2.41-.42,1.91-.83,3.82-1.25,5.74-.48-1.11-.95-2.22-1.43-3.33Z"/>
    <path class="cls-15" d="m1255.46,606.51c0-.44,0-.88,0-1.32,1.33.82,2.67,1.64,4,2.47-1.33-.38-2.67-.76-4-1.14Z"/>
    <path class="cls-31" d="m1300.53,640.08c-.96-1.36-1.93-2.72-2.89-4.08.96,1.36,1.93,2.72,2.89,4.08Z"/>
    <path class="cls-31" d="m1313.7,675.6c-.42-2.28-.84-4.56-1.26-6.83.42,2.28.84,4.56,1.26,6.83Z"/>
    <path class="cls-31" d="m1301.68,641.89c-.39-.62-.79-1.23-1.18-1.85.39.62.79,1.23,1.18,1.85Z"/>
    <path class="cls-15" d="m1254.04,604.85c-.91-.3-1.81-.59-2.72-.89.91.3,1.81.59,2.72.89Z"/>
    <path class="cls-31" d="m1174.06,622.6c-.42.5-.84,1.01-1.26,1.51.42-.5.84-1.01,1.26-1.51Z"/>
    <path class="cls-31" d="m1160.19,639.72c-.41.62-.82,1.25-1.23,1.87.41-.62.82-1.25,1.23-1.87Z"/>
    <path class="cls-31" d="m1313.96,694.92c.08-.54.16-1.08.23-1.62.07.39.19.78.19,1.17,0,.15-.27.31-.42.46Z"/>
    <path class="cls-15" d="m1244.66,603.56c-.02-.35-.09-.69-.21-1.02.5.17.99.34,1.49.51-.43.17-.85.34-1.28.51Z"/>
    <path class="cls-31" d="m1146.95,698.65c.06.45.12.89.17,1.34-.1-.29-.24-.57-.3-.87-.03-.14.08-.31.13-.47Z"/>
    <path class="cls-31" d="m1145.99,689.12c.02.47.05.94.07,1.42-.02-.47-.05-.94-.07-1.42Z"/>
    <path class="cls-24" d="m1166.06,741.86c.43.49.87.98,1.3,1.47-.43-.49-.87-.98-1.3-1.47Z"/>
    <path class="cls-31" d="m1314.21,680.94c-.15-.37-.35-.73-.44-1.12-.04-.16.15-.38.24-.57.18.38.42.74.53,1.14.04.14-.21.36-.32.55Z"/>
    <path class="cls-17" d="m858.09,891.11c-12.52,1.89-20.17-2.36-26.49-14.47-9.89-18.94-10.95-36.95-2.5-56.07.68-1.55,1.16-3.19,3.49-4.99,1.38,6.79,3.46,13.52,3.97,20.37.66,8.91,2.93,16.11,11.66,20.32,3.79,1.83,7.3,4.52,10.41,7.39,4.84,4.47,9.4,4.11,14.3.41,2.68-2.03,5.74-3.66,8.07-6.03,1.56-1.59,3.11-4.23,2.96-6.27-.54-7.35-1.12-14.84-3.06-21.89-1.08-3.93-4.3-7.86-7.59-10.48-7.47-5.95-15.59-11.08-23.24-17.14,11.74-.43,23.52.63,33.46,6.55,9.62,5.73,17.82,13.86,27.1,21.29.8-.71,2.75-2.42,4.7-4.14,7.09,3.5,14.19,7,21.28,10.5,0,0,.52.36.52.36-2.74,4.06-5.47,8.11-8.21,12.17-4.11-1.31-8.22-2.62-12.91-4.11-2.16,4.66-4.19,9.04-6.22,13.43-1.87,1.23-3.72,2.49-5.61,3.69-15.36,9.71-30.72,19.41-46.08,29.11Z"/>
    <path class="cls-19" d="m858.09,891.11c15.36-9.7,30.72-19.4,46.08-29.11,1.89-1.2,3.74-2.46,5.62-3.69.05.51.09,1.02.14,1.53,3.6,5.87,7.2,11.74,10.79,17.61,7.24,25.37-10.83,42.39-29.95,41.95-9.64-.22-17.42-4.52-23.03-12.13-3.7-5.03-6.47-10.76-9.65-16.17Z"/>
    <path class="cls-9" d="m936.6,836.48c-7.09-3.5-14.19-7-21.28-10.5,2.25-4.56,4.51-9.12,6.76-13.68,5.37,2.34,10.73,4.68,16.1,7.01-.53,5.72-1.05,11.45-1.58,17.17Z"/>
    <path class="cls-17" d="m938.18,819.31c-5.37-2.34-10.73-4.67-16.1-7.01,5.43-7.18,10.87-14.37,16.3-21.55-.07,9.52-.14,19.04-.2,28.56Z"/>
    <path class="cls-9" d="m909.92,859.85c-.05-.51-.09-1.02-.14-1.53,2.03-4.39,4.06-8.77,6.22-13.43,4.68,1.49,8.79,2.8,12.91,4.11-1.43,4.89-2.86,9.78-4.28,14.68-4.9-1.28-9.8-2.55-14.7-3.83Z"/>
    <path class="cls-15" d="m909.92,859.85c4.9,1.28,9.8,2.55,14.7,3.83-1.3,4.59-2.61,9.18-3.91,13.78-3.6-5.87-7.2-11.74-10.8-17.61Z"/>
    <path class="cls-12" d="m1206,338.99c-2.31,11.96-3.63,24.11-7.18,35.57-3.08,9.96-12.77,13.76-21.85,9.5-3.86-1.81-7.66-5.81-9.38-9.74-7.09-16.2-6.31-33.46-4.9-50.57.55-6.67,2.01-13.38,3.98-19.78,2.46-7.98,8.73-12.5,15.89-12.51,8.14-.01,14.55,3.9,16.56,11.49,3.08,11.64,4.6,23.69,6.88,36.05Z"/>
    <path class="cls-18" d="m1048.13,355.04c-1.52-.33-3.04-.66-5.52-1.19,1.14-2.19,1.98-4.12,3.08-5.89,8.13-13,16.35-25.94,24.45-38.96,2.31-3.72,4.3-7.65,6.44-11.48.77,1.03,2.21,2.06,2.22,3.09.14,17.68.1,35.36.1,53.26-3,.4-5.4.73-7.8,1.05-.42-.29-.82-.27-1.22.04-.97,0-1.94,0-2.91,0-4.88.02-9.75.03-14.63.05-1.4,0-2.81.02-4.21.03Z"/>
    <path class="cls-10" d="m1052.35,355.02c4.88-.02,9.75-.03,14.63-.05-4.88.02-9.75.03-14.63.05Z"/>
    <path class="cls-10" d="m1069.88,354.96c.4-.31.81-.32,1.22-.04-.41.01-.82.02-1.22.04Z"/>
    <path class="cls-30" d="m1045,773.9c.43,1.03,1.4,2.16,1.22,3.07-3.41,17.42,3.98,34.24,2.75,51.5-.28,3.88-.62,8.12-2.41,11.39-1.17,2.13-6.03,4.58-7.43,3.77-3.15-1.83-7.4-5.69-7.28-8.56.63-15.18,2.52-30.31,3.88-45.47.23-2.51.81-5.4-.13-7.52-1.91-4.34-1.11-7.33,2.7-9.8,2.23.54,4.46,1.08,6.68,1.62Z"/>
    <path class="cls-3" d="m1070.28,274.5c.28-.33.57-.66.85-.99-.16.44-.44.76-.85.99Z"/>
    <path class="cls-26" d="m1189.46,466.48c.19-3.28.35-6.56.71-9.82,0-.07,3.1-.29,3.34.23,1.7,3.6,1.56,7.05-1.37,9.78-.89-.06-1.79-.12-2.68-.18Z"/>
    <path class="cls-26" d="m1167.34,461.81c-1.8,1.89-3.09,3.24-4.38,4.6-.92-1.83-2.57-3.67-2.53-5.47.04-1.64,1.94-3.22,3.01-4.83,1.11,1.63,2.23,3.26,3.9,5.71Z"/>
    <path class="cls-5" d="m1373.08,1121.43c2.39.78,4.78,1.55,7.17,2.33-.25.86-.5,1.72-.75,2.59-2.44-.57-4.87-1.14-7.31-1.71.29-1.07.59-2.14.88-3.2Z"/>
    <path class="cls-5" d="m1372.61,1128.64c1.91.75,3.82,1.5,5.73,2.26-.27.72-.54,1.44-.81,2.17-1.93-.71-3.86-1.42-5.79-2.12.29-.77.59-1.53.88-2.3Z"/>
    <path class="cls-26" d="m1214.72,460.76c-1.93,2.52-3.26,4.25-4.59,5.99-1.06-1.95-2.84-3.86-2.93-5.85-.07-1.56,1.97-3.21,3.07-4.82,1.28,1.34,2.55,2.69,4.46,4.69Z"/>
    <path class="cls-8" d="m1125.29,461.27c2.04-2.2,3.36-3.63,4.68-5.06,1.1,1.72,2.92,3.37,3.08,5.18.13,1.43-1.76,3.04-2.76,4.57-1.42-1.32-2.83-2.65-5-4.68Z"/>
    <path class="cls-24" d="m1399.46,1134.14v-13.41c2.38.6,5.69.66,6.02,1.68.92,2.82,1.21,6.2.49,9.05-.3,1.21-3.75,1.62-6.51,2.68Z"/>
    <path class="cls-5" d="m1303.89,1128.4c1.94.63,3.88,1.26,5.83,1.88-.21.81-.42,1.62-.64,2.43-2.07-.52-4.13-1.04-6.2-1.56.34-.92.67-1.84,1.01-2.75Z"/>
    <path class="cls-27" d="m1236.4,461.57c-.33,1.08-.66,2.16-.99,3.24-2.76.32-5.53.64-8.3.96-.18-1.77-.35-3.54-.48-4.81,3.78.24,6.77.43,9.77.61Z"/>
    <path class="cls-24" d="m930.92,1127.92c-2.63,2.4-4.31,3.94-5.99,5.47-1.37-2.17-3.71-4.3-3.82-6.53-.08-1.82,2.51-3.75,3.92-5.64,1.66,1.89,3.32,3.77,5.89,6.69Z"/>
    <path class="cls-24" d="m1178.36,1128.18c-2.51,2.25-4.17,3.74-5.84,5.23-1.28-1.99-3.64-4.02-3.56-5.97.08-2.14,2.39-4.2,3.72-6.3,1.59,1.97,3.19,3.95,5.68,7.03Z"/>
    <path class="cls-24" d="m1047.14,1128c-2.49,2.33-4.1,3.84-5.71,5.35-1.36-2.17-3.68-4.3-3.77-6.51-.08-1.86,2.45-3.82,3.83-5.74,1.59,1.94,3.18,3.89,5.65,6.9Z"/>
    <path class="cls-3" d="m1105.08,273.23c-.05.47-.09.94-.14,1.4-.37-.65-.73-1.29-1.1-1.94.41.18.83.36,1.24.53Z"/>
    <path class="cls-11" d="m1389.61,763.54c.89-23.29,3.6-46.69,2.15-69.83-1.41-22.43-7.87-44.43-19.26-64.3-11.79-20.56-25.88-39.16-47.47-50.68-.94-.5-1.24-2.21-1.84-3.35,11.98,4.19,24.52,7.25,35.83,12.8,22.16,10.89,38.61,28.56,51.17,49.47,10.59,17.63,17.17,37.07,19.9,57.51,1.63,12.2,2.28,24.56,2.74,36.87.26,6.91-.74,13.87-1.18,20.8-1.04,5.94-2.08,11.87-3.28,18.77-2.35-3.57-3.76-5.71-5.16-7.86-11.2-.07-22.4-.14-33.6-.2Z"/>
    <path class="cls-24" d="m1449.34,882.78c.09,1.36.19,2.72.28,4.08-.13-.92-.25-1.83-.38-2.75-.02-.45.01-.89.1-1.33Z"/>
    <path class="cls-14" d="m1163.74,689.02c0-3.79.02-7.59.03-11.38.75-.69,1.5-1.38,2.25-2.07.9-.02,1.8-.05,2.7-.07,2.72-.03,5.44-.05,8.15-.08,14.88-.29,29.76-.59,44.64-.88,7.7-.1,15.4-.2,23.09-.29,15.76-.24,31.53-.49,47.29-.73,1.44.15,2.89.3,4.33.45,0,0,.15.15.15.15-.06,8.31-.11,16.63-.17,24.94-2.3.14-4.61.28-6.91.42-18.15.25-36.31.41-54.46.77-9.39.19-18.78.72-28.16,1.09-11.74.14-23.48.28-35.22.41-1.36,0-2.73-.01-4.09-.02-1.16-2.8-2.33-5.6-3.49-8.4-.04-1.44-.08-2.87-.13-4.31Z"/>
    <path class="cls-31" d="m1206.67,701.33c9.39-.37,18.77-.9,28.16-1.09,18.15-.36,36.31-.52,54.46-.77-2.53.6-5.04,1.68-7.58,1.72-16.2.24-32.41.15-48.61.37-6.7.09-13.4.8-20.1.97-2.1.05-4.22-.77-6.34-1.19Z"/>
    <path class="cls-31" d="m1296.21,699.06c.06-8.31.11-16.63.17-24.94.77,1.38,2.15,2.74,2.21,4.15.27,5.96.26,11.93.04,17.89-.04.99-1.58,1.94-2.43,2.9Z"/>
    <path class="cls-31" d="m1244.61,674.25c-7.7.1-15.4.2-23.09.29,7.7-.1,15.4-.2,23.09-.29Z"/>
    <path class="cls-31" d="m1296.23,673.96c-1.44-.15-2.89-.3-4.33-.45,1.44.15,2.89.3,4.33.45Z"/>
    <path class="cls-31" d="m1176.87,675.42c-2.72.03-5.44.05-8.15.08l8.15-.08Z"/>
    <path class="cls-31" d="m1163.74,689.02c.04,1.44.08,2.87.13,4.31-.04-1.44-.08-2.87-.13-4.31Z"/>
    <path class="cls-31" d="m1166.01,675.57c-.75.69-1.5,1.38-2.25,2.07.75-.69,1.5-1.38,2.25-2.07Z"/>
    <path class="cls-31" d="m1167.36,701.73c1.36,0,2.73.01,4.09.02-1.36,0-2.73-.01-4.09-.02Z"/>
    <path class="cls-7" d="m1439.94,983.16c-.01.45-.03.9-.03,1.35q-.14,14.61-15.23,14.65c-17.38.02-34.76,0-52.14,0,.13-5.75.26-11.49.38-17.22,21.26-.34,42.51-.68,63.77-1.03.59.21,1.18.42,1.77.63.37.1.74.21,1.1.36.03.44.16.86.38,1.25Z"/>
    <path class="cls-7" d="m1372.89,915.68c20.69-.1,41.38-.16,62.07-.35,3.36-.03,5.11.97,4.85,4.59-.16,2.24-.14,4.5.02,6.74.27,3.74-1.26,5.18-5.08,5.14-20.69-.24-41.38-.31-62.07-.45.07-5.23.14-10.45.21-15.67Z"/>
    <path class="cls-21" d="m1372.68,960.42c6.11.08,12.23.17,18.34.25-.41,3.65-1.58,7.46-.88,10.89.28,1.41,4.56,2,6.99,3.04.32.14.44.73.65,1.11-8.38.1-16.76.19-25.14.29.02-5.19.03-10.38.05-15.57Z"/>
    <path class="cls-21" d="m1372.86,937.48c7.4,0,14.8,0,22.2,0-.72.72-1.49,2.09-2.17,2.05-6.97-.4-7.61,3.3-6.12,8.78.4,1.45.14,3.07.19,4.61-4.78.03-9.56.06-14.34.08.08-5.17.16-10.34.24-15.51Z"/>
    <path class="cls-7" d="m1372.71,796.68c11.96-.13,23.92-.17,35.88-.45,4.07-.1,5.9,1.31,5.42,5.49-.2,1.78-.19,3.63.01,5.41.54,4.74-1.52,6.45-6.2,6.35-11.74-.25-23.48-.2-35.22-.27.03-5.51.07-11.02.1-16.53Z"/>
    <path class="cls-7" d="m1372.72,842.5c12.13-.14,24.26-.1,36.39-.49,6.05-.19,4.91,3.86,4.86,7.25-.05,3.5,1.61,8.03-4.94,7.87-12.13-.31-24.27-.24-36.4-.34.03-4.77.07-9.53.1-14.29Z"/>
    <path class="cls-21" d="m1372.86,819.35c11-.02,21.99-.04,32.99-.06-6.94.66-13.88,1.31-20.96,1.99.7,4.16,1.39,8.25,2.08,12.34-4.81.06-9.61.13-14.42.18.1-4.82.2-9.63.31-14.45Z"/>
    <path class="cls-21" d="m1372.78,862.99c3.83.07,7.66.15,11.49.22.89,5.41,1.78,10.81,2.68,16.22-4.8.1-9.6.2-14.39.3.07-5.58.15-11.16.22-16.74Z"/>
    <path class="cls-7" d="m1386.97,952.92c-.04-1.54.21-3.16-.19-4.61-1.5-5.47-.85-9.18,6.12-8.78.68.04,1.44-1.34,2.17-2.05,13.96.04,27.92.08,41.88.12.9.73,1.8,1.46,2.7,2.19.01,3.6.02,7.21.03,10.81-.47.74-.94,1.47-1.4,2.21-17.1.03-34.2.07-51.31.1Z"/>
    <path class="cls-7" d="m1397.77,975.7c-.21-.38-.33-.97-.65-1.11-2.43-1.04-6.7-1.63-6.99-3.04-.69-3.43.47-7.24.88-10.89,15.3,0,30.59,0,45.89,0,.51,4.83,1.02,9.65,1.53,14.48-13.55.19-27.11.38-40.66.56Z"/>
    <path class="cls-7" d="m1386.95,879.42c-.89-5.41-1.78-10.81-2.68-16.22,2.72-.04,5.43-.09,8.15-.13,5.34,0,10.68.01,16.02.02,1.42.07,2.83.14,4.25.21.22.27.49.48.82.62.06,4.49.12,8.98.18,13.47-.84.67-1.68,1.34-2.52,2.01-8.08,0-16.15.02-24.23.03Z"/>
    <path class="cls-7" d="m1386.97,833.62c-.69-4.09-1.38-8.18-2.08-12.34,7.08-.67,14.02-1.33,20.96-1.99,2.26.07,4.52.14,6.78.2.36.36.72.72,1.08,1.07.03,3.59.06,7.19.1,10.78-.87.75-1.74,1.51-2.61,2.26-8.08,0-16.15,0-24.23.01Z"/>
    <path class="cls-4" d="m1399.97,785.44c-3.38,0-6.87.48-10.06-.28-1.03-.25-2.27-4.17-1.65-5.67.76-1.82,4.3-4.41,5.06-3.96,2.9,1.69,5.17,4.46,7.68,6.83-.35,1.03-.69,2.05-1.04,3.08Z"/>
    <path class="cls-4" d="m1389.76,891.71c2.84,4.09,5.6,6.34,5.45,8.36-.14,1.87-3.19,4.31-5.39,4.9-1.07.29-4.34-2.98-4.43-4.74-.11-2.14,2.1-4.39,4.37-8.52Z"/>
    <path class="cls-21" d="m1438.44,975.14c-.51-4.83-1.02-9.66-1.53-14.48,4.75,2.62,5.41,8.89,1.53,14.48Z"/>
    <path class="cls-21" d="m1408.45,863.09c-5.34,0-10.68-.01-16.02-.02,5.34,0,10.68.01,16.02.02Z"/>
    <path class="cls-21" d="m1439.64,939.79c-.9-.73-1.8-1.46-2.7-2.19.9.73,1.8,1.46,2.7,2.19Z"/>
    <path class="cls-21" d="m1411.18,879.4c.84-.67,1.68-1.34,2.52-2.01-.84.67-1.68,1.34-2.52,2.01Z"/>
    <path class="cls-21" d="m1411.2,833.61c.87-.75,1.74-1.51,2.61-2.26-.87.75-1.74,1.51-2.61,2.26Z"/>
    <path class="cls-21" d="m1438.27,952.81c.47-.74.94-1.47,1.4-2.21-.47.74-.94,1.47-1.4,2.21Z"/>
    <path class="cls-30" d="m1439.94,983.16c-.22-.39-.35-.8-.38-1.25.26.25.55.49.77.78.03.03-.25.31-.39.47Z"/>
    <path class="cls-21" d="m1413.71,820.56c-.36-.36-.72-.72-1.08-1.07.36.36.72.72,1.08,1.07Z"/>
    <path class="cls-21" d="m1413.52,863.92c-.33-.14-.6-.35-.82-.62.27.21.55.41.82.62Z"/>
    <path class="cls-30" d="m1438.46,981.56c-.59-.21-1.18-.42-1.77-.63.59.21,1.18.42,1.77.63Z"/>
    <path class="cls-33" d="m1045.73,708.76h-10.48c-.26,1.51-.71,2.97-.73,4.44-.24,13.19.31,11.09-11.41,11.27-8.79.13-17.59-.13-26.37.14-4.43.13-5.79-1.62-6.03-5.88-1.19-21.42-1.29-21.48,20.25-21.55,23.66-.08,47.33.12,70.99-.14,5.72-.06,7.97,1.47,8.01,7.55.12,19.99.33,19.99-19.67,19.99-5.86,0-11.74-.34-17.57.07-5.47.38-7.34-1.93-7-7.03.19-2.84.03-5.71.03-8.85Z"/>
    <path class="cls-16" d="m1094.24,671.54c-.49,2.2-.98,4.4-1.46,6.6-10.22,8.62-21.41,8.59-34.22,6.48-12.21-2.01-25.3-1.7-37.53.36-12.55,2.11-23.15,1.36-32.47-7.67-.04-1.48-.08-2.96-.12-4.44,6.97-2.67,13.73-6.41,20.95-7.82,22.84-4.46,45.76-5.01,68.42,1.63,5.48,1.61,10.96,3.23,16.44,4.85Z"/>
    <path class="cls-33" d="m1094.24,671.54c-5.48-1.62-10.96-3.24-16.44-4.85-22.66-6.65-45.58-6.09-68.42-1.63-7.22,1.41-13.98,5.14-20.95,7.82-2.85-4.87-1.68-8.76,3.49-10.69,11.83-4.41,23.79-8.45,37.02-13.11,0-.12,0-2.03,0-3.93,2.1,2.91,4.33,5.72,6.26,8.73,3.24,5.08,6.69,4.65,10.25.54,2.47-2.85,4.7-5.89,7.04-8.85-1.66,5.64,2.47,5.9,6.2,7.07,10.99,3.45,21.97,6.99,32.77,11,3.09,1.15,5.87,3.87,2.79,7.91Z"/>
    <path class="cls-9" d="m1052.49,645.56c-2.34,2.96-4.57,6-7.04,8.85-3.56,4.11-7,4.53-10.25-.54-1.92-3.01-4.16-5.82-6.26-8.73-.39-.96-.77-1.9-1.16-2.86-.09-2.63-.19-5.26-.28-7.89.05-.63.09-1.26.14-1.89,2.93-.58,5.85-1.16,8.77-1.73,2.33-.42,4.66-.83,6.99-1.25.88.41,1.76.83,2.64,1.24,8.98,1,10.15,3.7,6.44,14.79Zm-2.77-3.72c-1.11-6.79-5-7.08-8.95-6.91-4.07.17-9.66.59-8.33,5.94,1.08,4.35,5.62,7.85,8.62,11.72,3.11-3.86,6.22-7.72,8.66-10.76Z"/>
    <path class="cls-33" d="m1036.42,630.78c-2.92.58-5.85,1.15-8.77,1.73,2.92-.58,5.85-1.15,8.77-1.73Z"/>
    <path class="cls-33" d="m1027.51,634.4c.09,2.63.19,5.25.28,7.89-.09-2.62-.19-5.26-.28-7.89Z"/>
    <path class="cls-33" d="m1046.05,630.77c-.88-.41-1.75-.83-2.64-1.24.88.41,1.76.83,2.64,1.24Z"/>
    <path class="cls-15" d="m1049.72,641.84c-2.44,3.03-5.55,6.89-8.66,10.76-3-3.87-7.54-7.37-8.62-11.72-1.33-5.35,4.26-5.77,8.33-5.94,3.94-.17,7.84.12,8.95,6.91Z"/>
  </g>
  <rect class="cls-20" y="1065.13" width="2116.17" height="306.78"/>
  <rect class="cls-20" x="50.09" y="172.96" width="2116.17" height="306.78"/>
  <text class="cls-39" transform="translate(836.52 1118.14)"><tspan class="cls-42" x="0" y="0">S</tspan><tspan x="23.95" y="0">o</tspan><tspan class="cls-41" x="50.3" y="0">r</tspan><tspan class="cls-37" x="66.19" y="0">r</tspan><tspan class="cls-38" x="83.09" y="0">y!!</tspan><tspan class="cls-35" x="127.77" y="0"> </tspan><tspan class="cls-36" x="135.74" y="0">Y</tspan><tspan class="cls-40" x="158.06" y="0">ou can not a</tspan><tspan class="cls-34" x="404.68" y="0">cc</tspan><tspan class="cls-40" x="447.11" y="0">es this page</tspan></text>
  <g>
    <text class="cls-2" transform="translate(1004.27 373.26)"><tspan x="0" y="0">403</tspan></text>
    <text class="cls-1" transform="translate(1093.62 439.16)"><tspan class="cls-43" x="0" y="0">F</tspan><tspan x="18.9" y="0">orbidden</tspan></text>
  </g>
</svg>