<?xml version="1.0" encoding="UTF-8"?>
<svg xmlns="http://www.w3.org/2000/svg" viewBox="0 0 771.98 797.33">
  <defs>
    <style>
      .cls-1 {
        opacity: .4;
      }

      .cls-1, .cls-2, .cls-3, .cls-4, .cls-5, .cls-6, .cls-7, .cls-8, .cls-9, .cls-10 {
        stroke-width: 0px;
      }

      .cls-1, .cls-4 {
        fill: #fff;
      }

      .cls-2 {
        fill: #37474f;
      }

      .cls-3 {
        opacity: .2;
      }

      .cls-5 {
        fill: #263238;
      }

      .cls-6 {
        fill: #dbdbdb;
      }

      .cls-7 {
        fill: #ebebeb;
      }

      .cls-8 {
        fill: #455a64;
      }

      .cls-9 {
        fill: #ffc727;
      }

      .cls-10 {
        opacity: .1;
      }
    </style>
  </defs>
  <g id="Background_Complete" data-name="Background Complete">
    <g>
      <path class="cls-7" d="m92.03,511.57c-15.87.14-40.16.44-55.85.45,0,0-.44,0-.44,0,0,0,0-.45,0-.45l-.05-23.6s0-.5,0-.5c0,0,.5,0,.5,0l27.92.06s27.92.16,27.92.16h.28s0,.27,0,.27l-.27,23.6h0Zm0,0l-.27-23.6s.27.27.27.27c0,0-27.92.16-27.92.16l-27.92.06.5-.5-.05,23.6-.45-.45c15.57.04,40.1.28,55.85.45h0Z"/>
      <path class="cls-7" d="m60.87,541.33c-15.87.14-40.16.44-55.85.45,0,0-.44,0-.44,0,0,0,0-.45,0-.45,0,0-.05-23.6-.05-23.6,0,0,0-.5,0-.5h.5s27.92.06,27.92.06l27.92.16h.28s0,.27,0,.27c0,0-.27,23.6-.27,23.6h0Zm0,0s-.27-23.6-.27-23.6c0,0,.27.27.27.27,0,0-27.92.16-27.92.16l-27.92.06.5-.5-.05,23.6s-.45-.45-.45-.45c15.57.04,40.1.28,55.85.45h0Z"/>
      <path class="cls-7" d="m60.87,30.67c-15.87.14-40.16.44-55.85.45,0,0-.44,0-.44,0v-.45s-.05-23.6-.05-23.6v-.5s.5,0,.5,0c0,0,27.92.06,27.92.06l27.92.16s.28,0,.28,0c0,0,0,.27,0,.27l-.27,23.6h0Zm0,0l-.27-23.6s.27.27.27.27c0,0-27.92.16-27.92.16l-27.92.06.5-.5-.05,23.6s-.45-.45-.45-.45c15.57.04,40.1.28,55.85.45h0Z"/>
      <path class="cls-7" d="m766.95,30.67c-15.87.14-40.16.44-55.85.45,0,0-.44,0-.44,0,0,0,0-.45,0-.45,0,0-.05-23.6-.05-23.6,0,0,0-.5,0-.5,0,0,.5,0,.5,0l27.92.06,27.92.16h.28s0,.27,0,.27l-.27,23.6h0Zm0,0l-.27-23.6.27.27-27.92.16-27.92.06.5-.5-.05,23.6s-.45-.45-.45-.45c15.57.04,40.1.28,55.85.45h0Z"/>
      <path class="cls-7" d="m735.8,60.43c-15.87.14-40.16.44-55.85.45,0,0-.44,0-.44,0,0,0,0-.45,0-.45l-.05-23.6s0-.5,0-.5c0,0,.5,0,.5,0,0,0,27.92.06,27.92.06l27.92.16h.28s0,.27,0,.27l-.27,23.6h0Zm0,0s-.27-23.6-.27-23.6c0,0,.27.27.27.27,0,0-27.92.16-27.92.16l-27.92.06.5-.5-.05,23.6-.45-.45c15.57.04,40.1.28,55.85.45h0Z"/>
      <path class="cls-7" d="m592.77,336.52c-15.87.14-40.16.44-55.85.45,0,0-.44,0-.44,0,0,0,0-.45,0-.45,0,0-.05-23.6-.05-23.6v-.5s.5,0,.5,0l27.92.06s27.92.16,27.92.16c0,0,.28,0,.28,0v.27s-.28,23.6-.28,23.6h0Zm0,0l-.27-23.6s.27.27.27.27l-27.92.16-27.92.06s.5-.5.5-.5l-.05,23.6-.45-.45c15.57.04,40.1.28,55.85.45h0Z"/>
      <path class="cls-7" d="m561.61,366.27c-15.87.14-40.16.44-55.85.45,0,0-.44,0-.44,0,0,0,0-.45,0-.45,0,0-.05-23.6-.05-23.6,0,0,0-.5,0-.5h.5s27.92.06,27.92.06l27.92.16h.28s0,.27,0,.27c0,0-.27,23.6-.27,23.6h0Zm0,0l-.27-23.6s.27.27.27.27c0,0-27.92.16-27.92.16,0,0-27.92.06-27.92.06l.5-.5-.05,23.6-.45-.45c15.57.04,40.1.28,55.85.45h0Z"/>
      <path class="cls-7" d="m530.58,336.52c-15.87.14-40.16.44-55.85.45,0,0-.44,0-.44,0,0,0,0-.45,0-.45l-.05-23.6s0-.5,0-.5c0,0,.5,0,.5,0,0,0,27.92.06,27.92.06,0,0,27.92.16,27.92.16,0,0,.28,0,.28,0v.27s-.28,23.6-.28,23.6h0Zm0,0l-.27-23.6s.27.27.27.27l-27.92.16s-27.92.06-27.92.06l.5-.5s-.05,23.6-.05,23.6c0,0-.45-.45-.45-.45,15.57.04,40.1.28,55.85.45h0Z"/>
      <path class="cls-7" d="m766.95,541.33c-15.87.14-40.16.44-55.85.45,0,0-.44,0-.44,0v-.45s-.05-23.6-.05-23.6v-.5s.5,0,.5,0c0,0,27.92.06,27.92.06l27.92.16s.28,0,.28,0v.27s-.28,23.6-.28,23.6h0Zm0,0l-.27-23.6.27.27-27.92.16-27.92.06.5-.5-.05,23.6s-.45-.45-.45-.45c15.57.04,40.1.28,55.85.45h0Z"/>
      <path class="cls-7" d="m292.45,100.85c-15.87.14-40.16.44-55.85.45,0,0-.44,0-.44,0v-.45s-.05-23.6-.05-23.6c0,0,0-.5,0-.5,0,0,.5,0,.5,0,0,0,27.92.06,27.92.06,0,0,27.92.16,27.92.16h.28s0,.27,0,.27l-.27,23.6h0Zm0,0l-.27-23.6s.27.27.27.27l-27.92.16-27.92.06s.5-.5.5-.5l-.05,23.6-.45-.45c15.57.04,40.1.28,55.85.45h0Z"/>
    </g>
    <g>
      <path class="cls-7" d="m709.58,257.19l11-17.73-5.43-3.36c-1.6-.99-2.46-2.79-2.3-4.67.09-1.03.12-2.08.1-3.12-.04-1.87.94-3.62,2.59-4.5l5.63-3.02-9.86-18.39-5.63,3.02c-1.65.89-3.64.74-5.18-.33-.86-.6-1.74-1.14-2.65-1.64-1.65-.9-2.67-2.62-2.61-4.5l.2-6.38-20.85-.65-.19,6.41c-.06,1.88-1.21,3.51-2.91,4.32-.46.22-.92.45-1.37.69-.45.24-.9.5-1.33.76-1.6.97-3.59,1.02-5.18.04l-5.47-3.39-11,17.73,5.44,3.38c1.6.99,2.46,2.8,2.3,4.67-.09,1.03-.12,2.07-.1,3.11.04,1.87-.94,3.61-2.59,4.5l-5.63,3.02,9.86,18.39,5.63-3.02c1.65-.88,3.64-.74,5.18.33.85.59,1.74,1.14,2.64,1.63,1.65.9,2.68,2.62,2.62,4.5l-.2,6.4,20.85.65.2-6.4c.06-1.87,1.21-3.5,2.9-4.3.46-.22.92-.45,1.38-.7.45-.24.9-.5,1.34-.76,1.61-.97,3.61-1.03,5.21-.04l5.43,3.37Zm-17.66-13.17c-8.32,4.46-18.67,1.34-23.13-6.98-4.46-8.32-1.34-18.68,6.97-23.14,8.32-4.46,18.69-1.33,23.15,6.99,4.46,8.32,1.32,18.67-7,23.13Z"/>
      <path class="cls-7" d="m108.64,458.08l11-17.73-5.43-3.36c-1.6-.99-2.46-2.79-2.3-4.67.09-1.03.12-2.08.1-3.12-.04-1.87.94-3.62,2.59-4.5l5.63-3.02-9.86-18.39-5.63,3.02c-1.65.89-3.64.74-5.18-.33-.86-.6-1.74-1.14-2.65-1.64-1.65-.9-2.67-2.62-2.61-4.5l.2-6.38-20.85-.65-.19,6.41c-.06,1.88-1.21,3.51-2.91,4.32-.46.22-.92.45-1.37.69-.45.24-.9.5-1.33.76-1.6.97-3.59,1.02-5.18.04l-5.47-3.39-11,17.73,5.44,3.38c1.6.99,2.46,2.8,2.3,4.67-.09,1.03-.12,2.07-.1,3.11.04,1.87-.94,3.61-2.59,4.5l-5.63,3.02,9.86,18.39,5.63-3.02c1.65-.88,3.64-.74,5.18.33.85.59,1.74,1.14,2.64,1.63,1.65.9,2.68,2.62,2.62,4.5l-.2,6.4,20.85.65.2-6.4c.06-1.87,1.21-3.5,2.9-4.3.46-.22.92-.45,1.38-.7.45-.24.9-.5,1.34-.76,1.61-.97,3.61-1.03,5.21-.04l5.43,3.37Zm-17.66-13.17c-8.32,4.46-18.67,1.34-23.13-6.98-4.46-8.32-1.34-18.68,6.97-23.14,8.32-4.46,18.69-1.33,23.15,6.99,4.46,8.32,1.32,18.67-7,23.13Z"/>
      <path class="cls-7" d="m322.23,118.52l-7.3-12.66-3.87,2.24c-1.14.66-2.54.6-3.64-.12-.61-.4-1.24-.76-1.89-1.09-1.17-.59-1.92-1.78-1.92-3.09v-4.47h-14.62v4.47c0,1.31-.75,2.49-1.92,3.09-.65.33-1.28.7-1.89,1.09-1.1.72-2.5.78-3.64.12l-3.87-2.24-7.3,12.66,3.89,2.24c1.14.66,1.77,1.91,1.7,3.22-.02.36-.03.72-.03,1.08s0,.72.03,1.08c.07,1.31-.56,2.56-1.69,3.21l-3.9,2.25,7.3,12.66,3.89-2.24c1.14-.66,2.54-.59,3.64.13.61.4,1.24.76,1.88,1.09,1.17.6,1.92,1.78,1.92,3.09v4.48h14.62v-4.48c0-1.31.75-2.49,1.92-3.09.65-.33,1.28-.7,1.88-1.09,1.1-.72,2.5-.79,3.64-.13l3.89,2.24,7.3-12.66-3.89-2.24c-1.14-.66-1.76-1.9-1.7-3.22.02-.36.03-.72.03-1.08s0-.72-.03-1.08c-.07-1.32.56-2.57,1.7-3.23l3.88-2.24Zm-13.97,6.54c0,6.61-5.36,11.97-11.97,11.97s-11.98-5.35-11.98-11.97,5.37-11.98,11.98-11.98,11.97,5.37,11.97,11.98Z"/>
    </g>
  </g>
  <g id="Plant">
    <g>
      <g>
        <path class="cls-5" d="m84.92,486.71c-24.41,23.9-28.51,60.88-23.37,93.26.13.73,1.27.53,1.27-.16,0-7.37-.22-14.68-.2-21.96.13-.33.25-.65.38-.98,6.37-4.63,12.23-9.87,15.86-17.04,4.08-8.02,5.68-17.06,8.8-25.44.29-.8-.57-.57-1.13-.15-14.85,10.95-19.58,22.74-23.84,38.49.2-8.17.82-16.35,2.58-24.52,3.21-14.95,9.56-29.76,20.29-40.85.4-.42-.22-1.07-.65-.65Z"/>
        <g>
          <path class="cls-9" d="m89.51,489.5c4.2.14,6.83,6.85,10.11,8.81,1.73,1.04,3.42.98,4.63-.73,3.24-4.53-1.21-10.11-5.39-13.24,2.99,1.23,5.47,3.39,8.7,4.01,1.95.36,3.47-.37,3.93-2.35,1.42-6.17-6.32-8.92-11.63-9.05,2.57-1.79,9.95-6.66,6.03-9.05-3.97-2.4-12.63,4.56-15.46,6.85-4.15,3.37-9.1,8.4-9.29,13.67-.24,6.15,5.13,2.37,8.36,1.08Z"/>
          <path class="cls-10" d="m89.51,489.5c4.2.14,6.83,6.85,10.11,8.81,1.73,1.04,3.42.98,4.63-.73,3.24-4.53-1.21-10.11-5.39-13.24,2.99,1.23,5.47,3.39,8.7,4.01,1.95.36,3.47-.37,3.93-2.35,1.42-6.17-6.32-8.92-11.63-9.05,2.57-1.79,9.95-6.66,6.03-9.05-3.97-2.4-12.63,4.56-15.46,6.85-4.15,3.37-9.1,8.4-9.29,13.67-.24,6.15,5.13,2.37,8.36,1.08Z"/>
          <path class="cls-9" d="m88.3,490.54c5.37-2.44,15.69,1.07,16.56-.96,1.78-4.14-6.47-6.97-10.91-7.52,4.1-1.11,11.95-2.88,11.71-6.83-.29-4.83-12.04-.68-17.99,3.88-7.49,5.74-7.44,11.29-6.2,12.4,1.7,1.52,5.95-.56,6.84-.97Z"/>
        </g>
      </g>
      <g>
        <path class="cls-5" d="m29.33,484.35c25.3,22.95,30.81,59.75,26.9,92.31-.11.74-1.25.58-1.27-.11-.28-7.37-.34-14.68-.63-21.95-.15-.33-.27-.64-.42-.96-6.54-4.39-12.59-9.39-16.5-16.42-4.38-7.86-6.32-16.83-9.76-25.08-.32-.79.54-.59,1.12-.2,15.26,10.38,20.43,21.98,25.29,37.55-.51-8.16-1.45-16.31-3.51-24.41-3.77-14.81-10.68-29.37-21.83-40.05-.42-.41.18-1.08.62-.67Z"/>
        <g>
          <path class="cls-9" d="m24.85,487.31c-4.19.3-6.57,7.11-9.76,9.19-1.69,1.11-3.38,1.11-4.66-.55-3.41-4.4.82-10.15,4.88-13.43-2.94,1.34-5.34,3.6-8.54,4.33-1.94.43-3.48-.23-4.02-2.2-1.66-6.11,5.98-9.15,11.28-9.48-2.64-1.69-10.2-6.27-6.37-8.81,3.88-2.55,12.8,4.07,15.71,6.25,4.28,3.21,9.42,8.05,9.8,13.31.48,6.14-5.04,2.56-8.32,1.39Z"/>
          <path class="cls-10" d="m24.85,487.31c-4.19.3-6.57,7.11-9.76,9.19-1.69,1.11-3.38,1.11-4.66-.55-3.41-4.4.82-10.15,4.88-13.43-2.94,1.34-5.34,3.6-8.54,4.33-1.94.43-3.48-.23-4.02-2.2-1.66-6.11,5.98-9.15,11.28-9.48-2.64-1.69-10.2-6.27-6.37-8.81,3.88-2.55,12.8,4.07,15.71,6.25,4.28,3.21,9.42,8.05,9.8,13.31.48,6.14-5.04,2.56-8.32,1.39Z"/>
          <path class="cls-9" d="m26.1,488.29c-5.46-2.24-15.63,1.67-16.59-.33-1.93-4.07,6.2-7.22,10.62-7.93-4.14-.95-12.05-2.42-11.96-6.38.11-4.83,12.01-1.13,18.12,3.2,7.7,5.46,7.87,11,6.67,12.15-1.64,1.59-5.97-.34-6.87-.71Z"/>
        </g>
      </g>
      <g>
        <path class="cls-5" d="m55.2,544.97c1.87,12.1,4.18,24.61,7.86,36.29.35,1.07,1.93.79,1.77-.36-1.66-11.18-4.69-22.16-6.35-33.35-1.69-11.32-2.59-22.79-1.94-34.24,1.07-18.85,6.18-38.9,18.48-53.64.27-.35-.3-.84-.58-.52-24.62,28.71-20.7,63.91-20.68,67.06-3.49-11.89-7.08-25.51-20.26-37.61-.57-.52-1.01-.27-.92.61,2.36,22.04,8.49,33.55,21.27,45.34.36,3.49.81,6.97,1.37,10.4Z"/>
        <g>
          <path class="cls-9" d="m75.23,462.98c4.43-1.97,10.54,3.67,14.92,4.06,2.32.21,4.04-.71,4.44-3.09,1.09-6.33-6.34-9.88-12.26-11.02,3.72-.23,7.39.76,11.04-.22,2.21-.61,3.42-2.13,2.89-4.42-1.63-7.12-11.05-6.07-16.62-3.53,1.77-3.15,6.98-11.92,1.71-12.43-5.33-.49-10.81,11.09-12.59,14.89-2.61,5.58-5.22,13.3-2.76,18.86,2.84,6.5,6.52-.13,9.22-3.09Z"/>
          <path class="cls-10" d="m75.23,462.98c4.43-1.97,10.54,3.67,14.92,4.06,2.32.21,4.04-.71,4.44-3.09,1.09-6.33-6.34-9.88-12.26-11.02,3.72-.23,7.39.76,11.04-.22,2.21-.61,3.42-2.13,2.89-4.42-1.63-7.12-11.05-6.07-16.62-3.53,1.77-3.15,6.98-11.92,1.71-12.43-5.33-.49-10.81,11.09-12.59,14.89-2.61,5.58-5.22,13.3-2.76,18.86,2.84,6.5,6.52-.13,9.22-3.09Z"/>
          <path class="cls-9" d="m74.5,464.67c4.34-5.24,16.81-6.78,16.7-9.33-.24-5.19-10.22-3.98-15.11-2.31,3.69-3.21,10.95-9,8.71-12.98-2.74-4.86-12.84,5.36-16.71,13.08-4.88,9.73-2.04,15.46-.2,15.98,2.53.72,5.89-3.58,6.61-4.44Z"/>
        </g>
      </g>
      <path class="cls-9" d="m39,551.61l-10.86,82.97h66.08c-1.36-7.35-13.66-83.07-13.66-83.07l-41.56.1Z"/>
    </g>
  </g>
  <g id="Floor">
    <path class="cls-5" d="m0,634.86c247.29-.61,524.69-.62,771.98,0-247.29.62-524.69.61-771.98,0h0Z"/>
  </g>
  <g id="Shadow">
    <ellipse class="cls-7" cx="385.99" cy="757.96" rx="278.45" ry="39.37"/>
  </g>
  <g id="_404_Error" data-name="404 Error">
    <g>
      <g>
        <path class="cls-5" d="m213.33,344.43l-11.6-45.64-91.61,23.28-12.11-47.64,73.21-166.84,36.31-9.23,35.3,138.91,29.31-7.45,12.19,47.97-29.31,7.45,11.6,45.64-53.3,13.55Zm-62.76-83.7l45.3-11.51-14.98-58.96-30.32,70.47Z"/>
        <path class="cls-5" d="m475.7,192.08c0,15.12-2.29,29.04-6.87,41.76-4.59,12.72-10.89,23.72-18.91,33-8.02,9.28-17.47,16.5-28.35,21.65-10.89,5.16-22.75,7.73-35.57,7.73s-24.75-2.58-35.74-7.73c-11-5.16-20.51-12.37-28.53-21.65-8.02-9.28-14.26-20.28-18.73-33-4.47-12.72-6.7-26.64-6.7-41.76s2.23-29.04,6.7-41.76c4.47-12.72,10.71-23.72,18.73-33,8.02-9.28,17.53-16.55,28.53-21.82,11-5.27,22.91-7.91,35.74-7.91s24.69,2.64,35.57,7.91c10.88,5.27,20.33,12.54,28.35,21.82,8.02,9.28,14.32,20.28,18.91,33,4.58,12.72,6.87,26.64,6.87,41.76Zm-55.34,0c0-16.04-3.21-29.04-9.62-39.01-6.42-9.97-14.66-14.95-24.75-14.95s-18.96,4.98-25.26,14.95c-6.3,9.97-9.45,22.97-9.45,39.01s3.15,28.99,9.45,38.84c6.3,9.85,14.72,14.78,25.26,14.78s18.33-4.92,24.75-14.78c6.41-9.85,9.62-22.8,9.62-38.84Z"/>
        <path class="cls-5" d="m574.37,335.63l7.53-46.48-93.3-15.12,7.86-48.52,133.58-123.9,36.98,5.99-22.92,141.48,29.86,4.84-7.92,48.86-29.86-4.84-7.53,46.48-54.28-8.79Zm-24.25-101.77l46.14,7.48,9.73-60.05-55.87,52.58Z"/>
      </g>
      <g>
        <path class="cls-5" d="m308.79,54.48c-3.92,0-7.48-.77-10.68-2.3-3.2-1.53-5.94-3.57-8.22-6.11-2.29-2.54-4.06-5.45-5.32-8.72-1.26-3.27-1.89-6.61-1.89-10.04s.67-6.99,2-10.26c1.33-3.27,3.17-6.16,5.51-8.68,2.34-2.52,5.12-4.52,8.34-6,3.22-1.48,6.72-2.23,10.49-2.23s7.41.79,10.6,2.38c3.19,1.58,5.92,3.66,8.19,6.23,2.26,2.57,4.02,5.48,5.28,8.75,1.26,3.27,1.89,6.59,1.89,9.96,0,3.57-.65,6.98-1.96,10.23-1.31,3.24-3.12,6.11-5.43,8.6-2.31,2.49-5.08,4.48-8.3,5.96-3.22,1.49-6.72,2.23-10.49,2.23Zm-15.55-27.17c0,2.31.35,4.55,1.06,6.72.7,2.16,1.72,4.08,3.06,5.74,1.33,1.66,2.97,2.99,4.91,4,1.94,1.01,4.14,1.51,6.6,1.51s4.74-.52,6.68-1.55c1.94-1.03,3.57-2.4,4.91-4.11,1.33-1.71,2.34-3.63,3.02-5.77.68-2.14,1.02-4.31,1.02-6.53s-.37-4.55-1.09-6.72c-.73-2.16-1.76-4.07-3.09-5.74-1.33-1.66-2.97-2.98-4.9-3.96-1.94-.98-4.11-1.47-6.53-1.47s-4.75.52-6.72,1.55c-1.96,1.03-3.6,2.39-4.9,4.07-1.31,1.69-2.3,3.6-2.98,5.74-.68,2.14-1.02,4.31-1.02,6.53Z"/>
        <path class="cls-5" d="m360.26,54.86c-3.22,0-6.11-.55-8.68-1.66-2.57-1.11-4.74-2.6-6.53-4.49-1.79-1.89-3.16-4.06-4.11-6.53-.96-2.46-1.43-5.06-1.43-7.77s.48-5.38,1.43-7.85c.95-2.46,2.33-4.64,4.11-6.53,1.79-1.89,3.96-3.38,6.53-4.49,2.56-1.11,5.46-1.66,8.68-1.66s6.1.55,8.64,1.66c2.54,1.11,4.7,2.6,6.49,4.49,1.79,1.89,3.16,4.06,4.11,6.53.95,2.47,1.43,5.08,1.43,7.85s-.48,5.31-1.43,7.77c-.96,2.47-2.31,4.64-4.07,6.53-1.76,1.89-3.92,3.38-6.49,4.49-2.57,1.11-5.46,1.66-8.68,1.66Zm-10.34-20.45c0,1.76.26,3.36.79,4.79.53,1.43,1.26,2.68,2.19,3.74.93,1.06,2.02,1.87,3.28,2.45,1.26.58,2.62.87,4.08.87s2.82-.29,4.07-.87c1.26-.58,2.35-1.4,3.28-2.45.93-1.06,1.66-2.31,2.19-3.77.53-1.46.79-3.07.79-4.83s-.26-3.29-.79-4.75c-.53-1.46-1.26-2.72-2.19-3.77-.93-1.06-2.03-1.87-3.28-2.45-1.26-.58-2.62-.87-4.07-.87s-2.82.3-4.08.91c-1.26.6-2.35,1.43-3.28,2.49-.93,1.06-1.66,2.31-2.19,3.77-.53,1.46-.79,3.04-.79,4.75Z"/>
        <path class="cls-5" d="m411.42,54.86c-3.12,0-5.84-.69-8.15-2.08-2.32-1.38-4.13-3.26-5.43-5.62v23.02h-10.11V14.57h8.83v6.79c1.46-2.31,3.35-4.14,5.66-5.47,2.31-1.33,4.98-2,8-2,2.67,0,5.13.54,7.4,1.62s4.21,2.54,5.85,4.38c1.63,1.84,2.92,4,3.85,6.49.93,2.49,1.4,5.12,1.4,7.89s-.43,5.56-1.28,8.07c-.86,2.52-2.05,4.7-3.58,6.57-1.54,1.86-3.36,3.32-5.47,4.38-2.11,1.06-4.43,1.58-6.94,1.58Zm-3.4-8.6c1.51,0,2.9-.33,4.19-.98,1.28-.65,2.38-1.53,3.28-2.64.9-1.11,1.61-2.39,2.11-3.85.5-1.46.76-2.97.76-4.53,0-1.66-.28-3.21-.83-4.64-.55-1.43-1.32-2.68-2.3-3.74-.98-1.06-2.14-1.89-3.47-2.49-1.33-.6-2.78-.91-4.34-.91-.96,0-1.94.16-2.94.49-1.01.33-1.94.79-2.79,1.4-.86.6-1.62,1.31-2.3,2.11-.68.81-1.19,1.69-1.55,2.64v9.28c.91,2.26,2.29,4.14,4.15,5.62,1.86,1.48,3.87,2.23,6.04,2.23Z"/>
        <path class="cls-5" d="m450.51,54.86c-3.32,0-6.57-.53-9.73-1.58-3.17-1.06-5.89-2.57-8.15-4.53l3.77-6.34c2.42,1.71,4.77,3.01,7.06,3.89,2.29.88,4.57,1.32,6.83,1.32,2.01,0,3.6-.38,4.75-1.13,1.16-.75,1.73-1.84,1.73-3.24s-.68-2.44-2.04-3.09c-1.36-.65-3.57-1.41-6.64-2.26-2.57-.7-4.75-1.38-6.57-2.04-1.81-.65-3.27-1.4-4.38-2.23-1.11-.83-1.91-1.79-2.42-2.87s-.75-2.38-.75-3.89c0-2.01.39-3.82,1.17-5.43.78-1.61,1.87-2.98,3.28-4.11,1.41-1.13,3.06-2,4.94-2.6,1.89-.6,3.93-.91,6.15-.91,2.97,0,5.75.43,8.34,1.28,2.59.86,4.97,2.24,7.13,4.15l-4.08,6.11c-2.01-1.51-3.96-2.62-5.85-3.32-1.89-.7-3.76-1.06-5.62-1.06-1.71,0-3.15.35-4.3,1.06-1.16.71-1.74,1.84-1.74,3.4,0,.71.14,1.28.42,1.74.28.45.72.86,1.32,1.21.6.35,1.4.69,2.38,1.02.98.33,2.2.67,3.66,1.02,2.72.71,5.04,1.41,6.98,2.11,1.94.71,3.52,1.51,4.75,2.41,1.23.91,2.14,1.95,2.72,3.13.58,1.18.87,2.6.87,4.26,0,3.87-1.43,6.93-4.3,9.17-2.87,2.24-6.77,3.36-11.7,3.36Z"/>
        <path class="cls-5" d="m475.03,33.96V0h10.11v33.96h-10.11Zm0,20.15v-11.4h10.11v11.4h-10.11Z"/>
      </g>
    </g>
  </g>
  <g id="Robot">
    <g>
      <g>
        <rect class="cls-2" x="358.13" y="505.4" width="66.34" height="5.43"/>
        <rect class="cls-2" x="358.13" y="512.48" width="66.34" height="5.43"/>
        <rect class="cls-2" x="358.13" y="519.56" width="66.34" height="5.43"/>
        <rect class="cls-2" x="358.13" y="526.64" width="66.34" height="5.43"/>
        <rect class="cls-2" x="358.13" y="533.72" width="66.34" height="5.43"/>
      </g>
      <g>
        <rect class="cls-2" x="327.07" y="674.93" width="126.12" height="5.43"/>
        <rect class="cls-2" x="327.07" y="682.01" width="126.12" height="5.43"/>
        <rect class="cls-2" x="327.07" y="689.08" width="126.12" height="5.43"/>
        <rect class="cls-2" x="327.07" y="696.16" width="126.12" height="5.43"/>
        <rect class="cls-2" x="327.07" y="703.24" width="126.12" height="5.43"/>
      </g>
      <g>
        <g>
          <path class="cls-9" d="m271.73,460.48c.06-.73-27.61-10-27.61-10l1.63-95.06,36.69-7.87-10.72,112.93Z"/>
          <path class="cls-3" d="m271.73,460.48c.06-.73-27.61-10-27.61-10l1.63-95.06,36.69-7.87-10.72,112.93Z"/>
        </g>
        <g>
          <path class="cls-9" d="m525.14,497.8c.19-.71,29.36.11,29.36.11l31.18-89.81-31.74-20.02-28.8,109.72Z"/>
          <path class="cls-3" d="m525.14,497.8c.19-.71,29.36.11,29.36.11l31.18-89.81-31.74-20.02-28.8,109.72Z"/>
        </g>
        <path class="cls-9" d="m266.4,495.49s10.26-153.74,19.25-204.31c0,0,185.72,14.05,285.97,52.37,0,0-51.69,179.57-54.36,188.48,0,0-130.78-25.76-250.87-36.54Z"/>
        <g>
          <path class="cls-10" d="m432.17,311.7c-3.02,18.51-6.07,37.02-9.24,55.5l-9.57,55.44-.52-.78,62.23,14.78,31.08,7.53,31.05,7.68-31.21-6.98-31.17-7.13-62.28-14.55-.63-.15.11-.64,9.91-55.38c3.33-18.46,6.77-36.89,10.25-55.32Z"/>
          <path class="cls-10" d="m425.34,322.26c.03,1.7-1.32,3.44-3.26,3.61-.94.09-1.97-.21-2.73-.88-.77-.67-1.22-1.69-1.23-2.73,0-1.04.46-2.07,1.23-2.73.76-.67,1.79-.97,2.73-.88,1.94.17,3.3,1.92,3.26,3.61Zm0,0c0-.86-.39-1.7-1.02-2.24-.64-.54-1.48-.76-2.24-.67-1.57.18-2.58,1.59-2.56,2.91-.02,1.32.99,2.73,2.56,2.91.76.09,1.6-.13,2.24-.68.64-.54,1.02-1.38,1.02-2.24Z"/>
          <path class="cls-10" d="m422.08,345.13c.03,1.7-1.32,3.44-3.26,3.61-.94.09-1.97-.21-2.73-.88-.77-.67-1.22-1.69-1.23-2.73,0-1.04.46-2.07,1.23-2.73.76-.67,1.79-.97,2.73-.88,1.94.17,3.3,1.92,3.26,3.61Zm0,0c0-.86-.39-1.7-1.02-2.24-.64-.54-1.48-.76-2.24-.67-1.57.18-2.58,1.59-2.56,2.91-.02,1.32.99,2.73,2.56,2.91.76.09,1.6-.13,2.24-.68.64-.54,1.02-1.38,1.02-2.24Z"/>
          <path class="cls-10" d="m418.07,369.3c.03,1.7-1.32,3.44-3.26,3.61-.94.09-1.97-.21-2.73-.88-.77-.67-1.22-1.69-1.23-2.73,0-1.04.46-2.07,1.23-2.73.76-.67,1.79-.97,2.73-.88,1.94.17,3.3,1.92,3.26,3.61Zm0,0c0-.86-.39-1.7-1.02-2.24-.64-.54-1.48-.76-2.24-.67-1.57.18-2.58,1.59-2.56,2.91-.02,1.32.99,2.73,2.56,2.91.76.09,1.6-.13,2.24-.68.64-.54,1.02-1.38,1.02-2.24Z"/>
          <path class="cls-10" d="m414.05,393.47c.03,1.7-1.32,3.44-3.26,3.61-.94.09-1.96-.21-2.73-.88-.77-.67-1.22-1.69-1.23-2.73,0-1.04.46-2.07,1.23-2.73.76-.67,1.79-.97,2.73-.88,1.94.17,3.3,1.92,3.26,3.61Zm0,0c0-.86-.39-1.7-1.02-2.24-.64-.54-1.48-.76-2.24-.67-1.57.18-2.58,1.59-2.56,2.91-.02,1.32.99,2.73,2.56,2.91.76.09,1.6-.13,2.24-.68.64-.54,1.02-1.38,1.02-2.24Z"/>
          <path class="cls-10" d="m427.73,432.02c.03,1.7-1.32,3.44-3.26,3.61-.94.09-1.97-.21-2.73-.88-.77-.67-1.22-1.69-1.23-2.73,0-1.04.46-2.07,1.23-2.73.76-.67,1.79-.97,2.73-.88,1.94.17,3.3,1.92,3.26,3.61Zm0,0c0-.86-.39-1.7-1.02-2.24-.64-.54-1.48-.76-2.24-.67-1.57.18-2.58,1.59-2.56,2.91-.02,1.32.99,2.73,2.56,2.91.76.09,1.6-.13,2.24-.68.64-.54,1.02-1.38,1.02-2.24Z"/>
          <path class="cls-10" d="m450.55,437.58c.03,1.7-1.32,3.44-3.26,3.61-.94.09-1.96-.21-2.73-.88-.77-.67-1.22-1.69-1.23-2.73,0-1.04.46-2.07,1.23-2.73.76-.67,1.79-.97,2.73-.88,1.94.17,3.3,1.92,3.26,3.61Zm0,0c0-.86-.39-1.7-1.02-2.24-.64-.54-1.48-.76-2.24-.67-1.57.18-2.58,1.59-2.56,2.91-.02,1.32.99,2.73,2.56,2.91.76.09,1.6-.13,2.24-.68.64-.54,1.02-1.38,1.02-2.24Z"/>
          <path class="cls-10" d="m473.36,443.15c.03,1.7-1.32,3.44-3.26,3.61-.94.09-1.97-.21-2.73-.88-.77-.67-1.22-1.69-1.23-2.73,0-1.04.46-2.07,1.23-2.73.76-.67,1.79-.97,2.73-.88,1.94.17,3.3,1.92,3.26,3.61Zm0,0c0-.86-.39-1.7-1.02-2.24-.64-.54-1.48-.76-2.24-.67-1.57.18-2.58,1.59-2.56,2.91-.02,1.32.99,2.73,2.56,2.91.76.09,1.6-.13,2.24-.68.64-.54,1.02-1.38,1.02-2.24Z"/>
          <path class="cls-10" d="m496.18,448.72c.03,1.7-1.32,3.44-3.26,3.61-.94.09-1.97-.21-2.73-.88-.77-.67-1.22-1.69-1.23-2.73,0-1.04.46-2.07,1.23-2.73.76-.67,1.79-.97,2.73-.88,1.94.17,3.3,1.92,3.26,3.61Zm0,0c0-.86-.39-1.7-1.02-2.24-.64-.54-1.48-.76-2.24-.67-1.57.18-2.58,1.59-2.56,2.91-.02,1.32.99,2.73,2.56,2.91.76.09,1.6-.13,2.24-.68.64-.54,1.02-1.38,1.02-2.24Z"/>
          <path class="cls-10" d="m518.99,454.53c-.1,1.69-1.58,3.33-3.53,3.35-.95.02-1.94-.36-2.66-1.09-.71-.72-1.09-1.78-1.02-2.82.08-1.03.62-2.02,1.43-2.63.81-.61,1.86-.83,2.79-.67,1.93.32,3.14,2.17,2.97,3.85Zm0,0c.06-.85-.26-1.72-.85-2.31-.6-.59-1.41-.87-2.18-.84-1.58.06-2.7,1.38-2.78,2.7-.13,1.31.78,2.8,2.33,3.1.75.15,1.6-.01,2.28-.5.68-.49,1.12-1.3,1.19-2.15Z"/>
          <path class="cls-10" d="m410.03,417.64c.03,1.7-1.32,3.44-3.26,3.61-.94.09-1.97-.21-2.73-.88-.77-.67-1.22-1.69-1.23-2.73,0-1.04.46-2.07,1.23-2.73.76-.67,1.79-.97,2.73-.88,1.94.17,3.3,1.92,3.26,3.61Zm0,0c0-.86-.39-1.7-1.02-2.24-.64-.54-1.48-.76-2.24-.67-1.57.18-2.58,1.59-2.56,2.91-.02,1.32.99,2.73,2.56,2.91.76.09,1.6-.13,2.24-.68.64-.54,1.02-1.38,1.02-2.24Z"/>
        </g>
        <g>
          <g>
            <circle class="cls-3" cx="336.36" cy="418.47" r="52.74" transform="translate(-197.39 360.41) rotate(-45)"/>
            <circle class="cls-5" cx="336.36" cy="418.47" r="42.29" transform="translate(-174.09 584.9) rotate(-69.27)"/>
            <g>
              <rect class="cls-9" x="323.05" y="402.09" width="10.02" height="10.02" transform="translate(69.33 -47.22) rotate(9.2)"/>
              <rect class="cls-9" x="314.76" y="390.6" width="10.02" height="10.02" transform="translate(67.38 -46.05) rotate(9.2)"/>
              <rect class="cls-9" x="354.31" y="397" width="10.02" height="10.02" transform="translate(68.91 -52.29) rotate(9.2)"/>
              <rect class="cls-9" x="308.39" y="429.92" width="10.02" height="10.02" transform="translate(73.59 -44.52) rotate(9.2)"/>
              <rect class="cls-9" x="347.94" y="436.33" width="10.02" height="10.02" transform="translate(75.12 -50.76) rotate(9.2)"/>
              <rect class="cls-9" x="319.88" y="421.64" width="10.02" height="10.02" transform="translate(72.41 -46.47) rotate(9.2)"/>
              <rect class="cls-9" x="331.35" y="413.46" width="10.02" height="10.02" transform="translate(71.25 -48.41) rotate(9.2)"/>
              <rect class="cls-9" x="342.82" y="405.29" width="10.02" height="10.02" transform="translate(70.09 -50.35) rotate(9.2)"/>
              <rect class="cls-9" x="339.66" y="424.84" width="10.02" height="10.02" transform="translate(73.19 -49.59) rotate(9.2)"/>
            </g>
          </g>
          <g>
            <g>
              <circle class="cls-9" cx="477.88" cy="440.57" r="52.74" transform="translate(-165.78 530.96) rotate(-50.67)"/>
              <circle class="cls-3" cx="477.88" cy="440.57" r="52.74" transform="translate(-165.78 530.96) rotate(-50.67)"/>
              <path class="cls-3" d="m529.19,452.77c-.24,1.04-.52,2.04-.83,3.05l-102.8-21.93c.24-1.83.57-3.67,1-5.52,6.73-28.33,35.16-45.84,63.51-39.11,28.33,6.73,45.84,35.17,39.11,63.51Z"/>
            </g>
            <circle class="cls-5" cx="477.88" cy="440.57" r="42.29" transform="translate(-132.91 218.29) rotate(-22.68)"/>
            <rect class="cls-9" x="472.87" y="415.64" width="10.02" height="49.86" transform="translate(114.82 -98.56) rotate(13.37)"/>
            <g>
              <path class="cls-9" d="m532.25,451.78l-107.98-25.66c7.08-29.81,37-48.23,66.82-41.15,29.81,7.08,48.24,37,41.16,66.81Z"/>
              <path class="cls-3" d="m532.25,451.78l-107.98-25.66c7.08-29.81,37-48.23,66.82-41.15,29.81,7.08,48.24,37,41.16,66.81Z"/>
            </g>
          </g>
          <path class="cls-10" d="m386.12,471.92c.27-4.22,1.82-8.49,4.88-11.87,1.51-1.7,3.52-3.04,5.73-3.86,2.23-.82,4.63-.96,6.91-.77,2.32.27,4.69,1.09,6.63,2.55,1.9,1.5,3.35,3.44,4.21,5.54,1.76,4.18,1.95,8.65,1.1,12.79-.7-4.14-1.77-8.16-3.72-11.46-1.93-3.33-4.98-5.4-8.62-5.72-3.71-.46-7.33.53-10.25,3-2.92,2.46-5.14,5.98-6.88,9.8Z"/>
        </g>
        <g>
          <path class="cls-4" d="m280.85,364.36c.44-5.63,1.07-11.24,1.6-16.86.6-5.61,1.22-11.22,1.9-16.82.65-5.6,1.38-11.2,2.1-16.79.7-5.6,1.51-11.18,2.26-16.77l.2-1.49,1.51.1c12.17.77,24.31,1.75,36.44,3,6.06.62,12.12,1.33,18.16,2.1,6.04.87,12.08,1.67,18.08,2.76l-36.46-2.26-36.42-2.36,1.71-1.4c-.83,5.58-1.6,11.17-2.47,16.74-.86,5.57-1.71,11.15-2.64,16.72-.9,5.57-1.86,11.13-2.84,16.69-1.05,5.55-1.99,11.11-3.13,16.65Z"/>
          <path class="cls-4" d="m289.62,406.98c1.22-6.77,4.3-13.23,8.44-18.85,1.03-1.41,2.2-2.72,3.33-4.06,1.22-1.26,2.49-2.48,3.74-3.71,1.36-1.11,2.74-2.21,4.14-3.28,1.49-.94,2.96-1.93,4.47-2.83,1.59-.76,3.18-1.55,4.79-2.28l5.01-1.73,5.19-1.07c1.74-.25,3.51-.31,5.26-.44,7.03-.18,13.95,1.32,20.3,3.89-6.76-1.27-13.5-1.97-20.14-1.34-6.62.62-13.06,2.6-18.82,5.84-5.8,3.17-10.94,7.53-15.28,12.61-4.32,5.1-7.9,10.88-10.43,17.26Z"/>
          <path class="cls-4" d="m435.09,421.22c2.15-6.54,6.09-12.51,10.96-17.5,1.21-1.26,2.56-2.39,3.86-3.57,1.38-1.08,2.81-2.11,4.22-3.16,1.5-.91,3.02-1.81,4.56-2.67,1.61-.73,3.2-1.5,4.82-2.19,1.68-.54,3.36-1.1,5.06-1.6l5.2-1.03,5.28-.34c1.76-.01,3.52.18,5.27.29,6.99.79,13.64,3.23,19.57,6.66-6.52-2.19-13.1-3.81-19.76-4.1-6.65-.3-13.29.77-19.44,3.19-6.18,2.33-11.87,5.95-16.87,10.38-4.99,4.45-9.33,9.68-12.72,15.65Z"/>
        </g>
      </g>
      <g>
        <g>
          <g>
            <path class="cls-9" d="m272.3,590.23c-13.51,0-43.08-3.04-62.12-27.51-24.35-31.31-15.55-91.37-15.16-93.92l10.57,1.61c-.09.58-8.49,58.08,13.03,85.75,21.04,27.05,59.2,23.17,59.59,23.12l1.2,10.62c-.42.05-3.03.33-7.11.33Z"/>
            <path class="cls-1" d="m272.3,590.23c-13.51,0-43.08-3.04-62.12-27.51-24.35-31.31-15.55-91.37-15.16-93.92l10.57,1.61c-.09.58-8.49,58.08,13.03,85.75,21.04,27.05,59.2,23.17,59.59,23.12l1.2,10.62c-.42.05-3.03.33-7.11.33Z"/>
          </g>
          <path class="cls-9" d="m208.71,477.68c-1.93,0-3.9-.16-5.9-.49-17.83-2.89-25.73-13.56-29.21-22-3.49-8.46-4.3-18.7-2.4-30.42l22.61,3.66c-1.18,7.26-.84,13.66.96,18.02,1.28,3.11,3.77,6.84,11.7,8.12,3.62.59,7.53.28,11.63-5.91,3.16-4.77,5.06-11.27,5.73-15.38l22.61,3.66c-.52,3.24-2.74,14.56-9.25,24.37-7.08,10.68-17.05,16.35-28.49,16.35Z"/>
          <g>
            <path class="cls-9" d="m294.64,620.83c-.04-.49-19.16-3.54-19.16-3.54l-9.28-62.4,23.16-9.15,5.28,75.09Z"/>
            <path class="cls-3" d="m294.64,620.83c-.04-.49-19.16-3.54-19.16-3.54l-9.28-62.4,23.16-9.15,5.28,75.09Z"/>
          </g>
        </g>
        <g>
          <path class="cls-9" d="m483.68,620.94c.05-.49,19.23-3.12,19.23-3.12l10.66-62.18-22.95-9.66-6.94,74.96Z"/>
          <path class="cls-3" d="m483.68,620.94c.05-.49,19.23-3.12,19.23-3.12l10.66-62.18-22.95-9.66-6.94,74.96Z"/>
        </g>
        <path class="cls-9" d="m286.69,531.76s154.65-6.61,206.89,2.09c0,0-15.34,149.64-16.17,152.54,0,0-153.84-.41-177.88,0,0,0-13.03-99.51-12.84-154.64Z"/>
        <g>
          <path class="cls-3" d="m333.66,572.77s84.42-3.33,112.94,1.06c0,0-8.37,75.46-8.83,76.92,0,0-83.98-.21-97.11,0,0,0-5.77-51.64-7.01-77.98Z"/>
          <path class="cls-3" d="m345.2,650.71c-1.93,0-3.47.03-4.54.04,0,0-5.76-51.65-7.01-77.99,0,0,1.92-.07,5.27-.19l6.27,78.14Z"/>
          <g>
            <path class="cls-9" d="m370.1,591.39c-4.73-1.49-9.77,1.14-11.26,5.86-1.49,4.74,1.14,9.77,5.87,11.27,4.73,1.49,9.76-1.13,11.26-5.87,1.49-4.73-1.13-9.77-5.86-11.26Zm4.82,10.93c-1.31,4.16-5.74,6.46-9.89,5.15-4.15-1.31-6.46-5.73-5.15-9.89,1.31-4.15,5.73-6.46,9.89-5.15,4.15,1.31,6.45,5.73,5.15,9.89Zm-4.82-10.93c-4.73-1.49-9.77,1.14-11.26,5.86-1.49,4.74,1.14,9.77,5.87,11.27,4.73,1.49,9.76-1.13,11.26-5.87,1.49-4.73-1.13-9.77-5.86-11.26Zm4.82,10.93c-1.31,4.16-5.74,6.46-9.89,5.15-4.15-1.31-6.46-5.73-5.15-9.89,1.31-4.15,5.73-6.46,9.89-5.15,4.15,1.31,6.45,5.73,5.15,9.89Zm-4.82-10.93c-4.73-1.49-9.77,1.14-11.26,5.86-1.49,4.74,1.14,9.77,5.87,11.27,4.73,1.49,9.76-1.13,11.26-5.87,1.49-4.73-1.13-9.77-5.86-11.26Zm4.82,10.93c-1.31,4.16-5.74,6.46-9.89,5.15-4.15-1.31-6.46-5.73-5.15-9.89,1.31-4.15,5.73-6.46,9.89-5.15,4.15,1.31,6.45,5.73,5.15,9.89Zm-1.83-20.42c-9.98-3.14-20.6,2.4-23.74,12.36-3.14,9.97,2.39,20.6,12.36,23.74,9.96,3.14,20.6-2.4,23.73-12.37,3.14-9.96-2.39-20.6-12.36-23.74Zm4.2,21.17c-1.72,5.46-7.56,8.5-13.01,6.78-5.46-1.72-8.5-7.55-6.78-13.01,1.72-5.46,7.56-8.5,13.01-6.78,5.45,1.72,8.49,7.55,6.77,13.01Zm-1.33-.42c1.49-4.73-1.13-9.77-5.86-11.26-4.73-1.49-9.77,1.14-11.26,5.86-1.49,4.74,1.14,9.77,5.87,11.27,4.73,1.49,9.76-1.13,11.26-5.87Zm-1.04-.33c-1.31,4.16-5.74,6.46-9.89,5.15-4.15-1.31-6.46-5.73-5.15-9.89,1.31-4.15,5.73-6.46,9.89-5.15,4.15,1.31,6.45,5.73,5.15,9.89Zm-4.82-10.93c-4.73-1.49-9.77,1.14-11.26,5.86-1.49,4.74,1.14,9.77,5.87,11.27,4.73,1.49,9.76-1.13,11.26-5.87,1.49-4.73-1.13-9.77-5.86-11.26Zm4.82,10.93c-1.31,4.16-5.74,6.46-9.89,5.15-4.15-1.31-6.46-5.73-5.15-9.89,1.31-4.15,5.73-6.46,9.89-5.15,4.15,1.31,6.45,5.73,5.15,9.89Zm-4.82-10.93c-4.73-1.49-9.77,1.14-11.26,5.86-1.49,4.74,1.14,9.77,5.87,11.27,4.73,1.49,9.76-1.13,11.26-5.87,1.49-4.73-1.13-9.77-5.86-11.26Zm4.82,10.93c-1.31,4.16-5.74,6.46-9.89,5.15-4.15-1.31-6.46-5.73-5.15-9.89,1.31-4.15,5.73-6.46,9.89-5.15,4.15,1.31,6.45,5.73,5.15,9.89Z"/>
            <g>
              <polygon class="cls-9" points="365.42 618.35 358.48 616.16 357.31 621.19 363.49 623.14 365.42 618.35"/>
              <polygon class="cls-9" points="352.94 611.85 349.58 605.39 345.2 608.13 348.19 613.87 352.94 611.85"/>
              <polygon class="cls-9" points="348.72 598.43 350.91 591.49 345.87 590.32 343.93 596.5 348.72 598.43"/>
              <polygon class="cls-9" points="355.22 585.95 361.68 582.59 358.94 578.21 353.2 581.2 355.22 585.95"/>
              <polygon class="cls-9" points="368.64 581.73 375.58 583.92 376.74 578.88 370.57 576.94 368.64 581.73"/>
              <polygon class="cls-9" points="381.11 588.23 384.47 594.69 388.86 591.95 385.87 586.21 381.11 588.23"/>
              <polygon class="cls-9" points="385.34 601.65 383.15 608.59 388.18 609.75 390.13 603.58 385.34 601.65"/>
              <polygon class="cls-9" points="378.84 614.12 372.38 617.48 375.12 621.87 380.86 618.88 378.84 614.12"/>
            </g>
          </g>
          <g>
            <path class="cls-6" d="m400.63,617.8c-2.8-1.82-6.54-1.03-8.37,1.77-1.82,2.8-1.03,6.54,1.77,8.37,2.8,1.82,6.54,1.03,8.36-1.77,1.82-2.8,1.03-6.54-1.76-8.36Zm1.15,7.96c-1.6,2.46-4.89,3.15-7.34,1.55-2.46-1.6-3.15-4.89-1.55-7.35,1.6-2.46,4.89-3.15,7.35-1.55,2.45,1.6,3.15,4.88,1.55,7.34Zm-1.15-7.96c-2.8-1.82-6.54-1.03-8.37,1.77-1.82,2.8-1.03,6.54,1.77,8.37,2.8,1.82,6.54,1.03,8.36-1.77,1.82-2.8,1.03-6.54-1.76-8.36Zm1.15,7.96c-1.6,2.46-4.89,3.15-7.34,1.55-2.46-1.6-3.15-4.89-1.55-7.35,1.6-2.46,4.89-3.15,7.35-1.55,2.45,1.6,3.15,4.88,1.55,7.34Zm-1.15-7.96c-2.8-1.82-6.54-1.03-8.37,1.77-1.82,2.8-1.03,6.54,1.77,8.37,2.8,1.82,6.54,1.03,8.36-1.77,1.82-2.8,1.03-6.54-1.76-8.36Zm1.15,7.96c-1.6,2.46-4.89,3.15-7.34,1.55-2.46-1.6-3.15-4.89-1.55-7.35,1.6-2.46,4.89-3.15,7.35-1.55,2.45,1.6,3.15,4.88,1.55,7.34Zm2.51-13.57c-5.9-3.84-13.79-2.17-17.63,3.72-3.84,5.9-2.17,13.79,3.73,17.63,5.89,3.84,13.79,2.17,17.63-3.73,3.84-5.89,2.17-13.79-3.72-17.63Zm-1.1,14.49c-2.1,3.23-6.44,4.15-9.66,2.05-3.23-2.1-4.14-6.44-2.04-9.67,2.1-3.23,6.44-4.14,9.67-2.04,3.22,2.1,4.14,6.43,2.04,9.66Zm-.79-.51c1.82-2.8,1.03-6.54-1.76-8.36-2.8-1.82-6.54-1.03-8.37,1.77-1.82,2.8-1.03,6.54,1.77,8.37,2.8,1.82,6.54,1.03,8.36-1.77Zm-.62-.4c-1.6,2.46-4.89,3.15-7.34,1.55-2.46-1.6-3.15-4.89-1.55-7.35,1.6-2.46,4.89-3.15,7.35-1.55,2.45,1.6,3.15,4.88,1.55,7.34Zm-1.15-7.96c-2.8-1.82-6.54-1.03-8.37,1.77-1.82,2.8-1.03,6.54,1.77,8.37,2.8,1.82,6.54,1.03,8.36-1.77,1.82-2.8,1.03-6.54-1.76-8.36Zm1.15,7.96c-1.6,2.46-4.89,3.15-7.34,1.55-2.46-1.6-3.15-4.89-1.55-7.35,1.6-2.46,4.89-3.15,7.35-1.55,2.45,1.6,3.15,4.88,1.55,7.34Zm-1.15-7.96c-2.8-1.82-6.54-1.03-8.37,1.77-1.82,2.8-1.03,6.54,1.77,8.37,2.8,1.82,6.54,1.03,8.36-1.77,1.82-2.8,1.03-6.54-1.76-8.36Zm1.15,7.96c-1.6,2.46-4.89,3.15-7.34,1.55-2.46-1.6-3.15-4.89-1.55-7.35,1.6-2.46,4.89-3.15,7.35-1.55,2.45,1.6,3.15,4.88,1.55,7.34Z"/>
            <g>
              <polygon class="cls-6" points="392.71 634.44 388.61 631.76 386.94 634.82 390.59 637.19 392.71 634.44"/>
              <polygon class="cls-6" points="385.8 627.96 384.79 623.17 381.45 624.15 382.35 628.42 385.8 627.96"/>
              <polygon class="cls-6" points="385.49 618.5 388.16 614.39 385.11 612.73 382.73 616.38 385.49 618.5"/>
              <polygon class="cls-6" points="391.96 611.59 396.75 610.57 395.77 607.24 391.51 608.14 391.96 611.59"/>
              <polygon class="cls-6" points="401.42 611.27 405.53 613.95 407.19 610.89 403.54 608.51 401.42 611.27"/>
              <polygon class="cls-6" points="408.34 617.74 409.35 622.54 412.69 621.56 411.79 617.29 408.34 617.74"/>
              <polygon class="cls-6" points="408.65 627.21 405.98 631.32 409.03 632.98 411.41 629.33 408.65 627.21"/>
              <polygon class="cls-6" points="402.18 634.12 397.39 635.14 398.37 638.47 402.63 637.57 402.18 634.12"/>
            </g>
          </g>
        </g>
        <g>
          <polygon class="cls-9" points="489.84 668.99 495.78 670.09 512.78 554.97 506.01 553.73 489.84 668.99"/>
          <g>
            <path class="cls-9" d="m437.77,650.74l8.83-76.92,59.41-20.1s-16.17,116.5-16.17,115.26l-52.07-18.24Z"/>
            <path class="cls-1" d="m437.77,650.74l8.83-76.92,59.41-20.1s-16.17,116.5-16.17,115.26l-52.07-18.24Z"/>
          </g>
        </g>
        <path class="cls-4" d="m293.78,576.94c-.97-6.37-1.49-12.8-1.89-19.23-.18-3.22-.26-6.44-.34-9.66-.06-3.22-.12-6.44-.02-9.67l.03-.85.82-.04c11.8-.63,23.6-1.41,35.41-1.93,11.81-.58,23.61-1.11,35.43-1.48-11.78,1.07-23.56,1.98-35.35,2.83-11.78.92-23.58,1.58-35.37,2.39l.85-.89-.05,9.62.11,9.62c.02,3.21.08,6.42.17,9.63l.2,9.65Z"/>
        <path class="cls-4" d="m454.89,574.95c3.68-1.75,7.42-3.37,11.2-4.87,3.77-1.54,7.58-2.99,11.43-4.32,3.86-1.32,7.72-2.61,11.66-3.7,3.93-1.11,7.89-2.13,11.94-2.79l1-.16-.18.95c-.93,4.98-1.91,9.95-3.06,14.9.43-5.06,1.04-10.09,1.69-15.11l.82.79c-3.92.94-7.82,2.03-11.7,3.18-3.88,1.16-7.74,2.38-11.6,3.64l-23.19,7.51Z"/>
        <g>
          <polygon class="cls-10" points="319.49 532.07 320.49 551.31 321.35 570.56 322.83 609.06 323.99 647.56 324.46 666.82 324.77 686.08 323.77 666.84 322.91 647.6 321.43 609.1 320.28 570.59 319.81 551.34 319.49 532.07"/>
          <path class="cls-10" d="m313.98,543.67c.37,1.66-.61,3.63-2.48,4.18-.91.27-1.97.18-2.85-.32-.88-.5-1.53-1.42-1.75-2.43-.2-1.02.04-2.12.66-2.92.62-.81,1.56-1.3,2.51-1.4,1.94-.22,3.61,1.23,3.91,2.9Zm0,0c-.18-.84-.71-1.59-1.45-1.99-.73-.4-1.6-.45-2.33-.22-1.5.49-2.22,2.07-1.94,3.36.24,1.3,1.51,2.48,3.09,2.35.76-.07,1.54-.45,2.06-1.1.52-.66.72-1.56.56-2.4Z"/>
          <path class="cls-10" d="m315.31,566.74c.37,1.66-.61,3.63-2.48,4.18-.91.27-1.97.18-2.85-.32-.88-.5-1.53-1.42-1.75-2.43-.2-1.02.04-2.12.66-2.92.62-.81,1.56-1.3,2.51-1.4,1.94-.22,3.61,1.23,3.91,2.9Zm0,0c-.18-.84-.71-1.59-1.45-1.99-.73-.4-1.6-.45-2.33-.22-1.5.49-2.22,2.07-1.94,3.36.24,1.3,1.51,2.48,3.09,2.35.76-.07,1.54-.45,2.06-1.1.52-.66.72-1.56.56-2.4Z"/>
          <path class="cls-10" d="m316.15,591.23c.37,1.66-.61,3.63-2.48,4.18-.91.27-1.97.18-2.85-.32-.88-.5-1.53-1.42-1.75-2.43-.2-1.02.04-2.12.66-2.92.62-.81,1.56-1.3,2.51-1.4,1.94-.22,3.61,1.23,3.91,2.9Zm0,0c-.18-.84-.71-1.59-1.45-1.99-.73-.4-1.6-.45-2.33-.22-1.5.49-2.22,2.07-1.94,3.36.24,1.3,1.51,2.48,3.09,2.35.76-.07,1.54-.45,2.06-1.1.52-.66.72-1.56.56-2.4Z"/>
          <path class="cls-10" d="m316.99,615.71c.37,1.66-.61,3.63-2.48,4.18-.91.27-1.97.18-2.85-.32-.88-.5-1.53-1.42-1.75-2.43-.2-1.02.04-2.12.66-2.92.62-.81,1.56-1.3,2.51-1.4,1.94-.22,3.61,1.23,3.91,2.9Zm0,0c-.18-.84-.71-1.59-1.45-1.99-.73-.4-1.6-.45-2.33-.22-1.5.49-2.22,2.07-1.94,3.36.24,1.3,1.51,2.48,3.09,2.35.76-.07,1.54-.45,2.06-1.1.52-.66.72-1.56.56-2.4Z"/>
          <path class="cls-10" d="m317.83,640.2c.37,1.66-.61,3.63-2.48,4.18-.91.27-1.97.18-2.85-.32-.88-.5-1.53-1.42-1.75-2.43-.2-1.02.04-2.12.66-2.92.62-.81,1.56-1.3,2.51-1.4,1.94-.22,3.61,1.23,3.91,2.9Zm0,0c-.18-.84-.71-1.59-1.45-1.99-.73-.4-1.6-.45-2.33-.22-1.5.49-2.22,2.07-1.94,3.36.24,1.3,1.51,2.48,3.09,2.35.76-.07,1.54-.45,2.06-1.1.52-.66.72-1.56.56-2.4Z"/>
          <path class="cls-10" d="m318.67,664.69c.37,1.66-.61,3.63-2.48,4.18-.91.27-1.97.18-2.85-.32-.88-.5-1.53-1.42-1.75-2.43-.2-1.02.04-2.12.66-2.92.62-.81,1.56-1.3,2.51-1.4,1.94-.22,3.61,1.23,3.91,2.9Zm0,0c-.18-.84-.71-1.59-1.45-1.99-.73-.4-1.6-.45-2.33-.22-1.5.49-2.22,2.07-1.94,3.36.24,1.3,1.51,2.48,3.09,2.35.76-.07,1.54-.45,2.06-1.1.52-.66.72-1.56.56-2.4Z"/>
        </g>
      </g>
      <g>
        <rect class="cls-9" x="238.28" y="715.17" width="91.5" height="10.69" transform="translate(-196.77 113.35) rotate(-16.86)"/>
        <rect class="cls-1" x="238.28" y="715.17" width="91.5" height="10.69" transform="translate(-196.77 113.35) rotate(-16.86)"/>
        <rect class="cls-9" x="276.28" y="712.57" width="10.69" height="15.88" transform="translate(-205.14 119.25) rotate(-17.64)"/>
        <g>
          <polygon class="cls-9" points="241.08 753.89 218.48 656.04 150.28 672.21 183.86 767.57 241.08 753.89"/>
          <g>
            <polygon class="cls-9" points="256.21 748.91 241.08 753.89 218.48 656.04 240.25 661.22 256.21 748.91"/>
            <polygon class="cls-3" points="256.21 748.91 241.08 753.89 218.48 656.04 240.25 661.22 256.21 748.91"/>
          </g>
        </g>
        <circle class="cls-9" cx="327.82" cy="707.25" r="11.61"/>
      </g>
      <g>
        <rect class="cls-9" x="484.14" y="674.59" width="10.69" height="91.5" transform="translate(-342.4 978.12) rotate(-73.02)"/>
        <rect class="cls-1" x="484.14" y="674.59" width="10.69" height="91.5" transform="translate(-342.4 978.12) rotate(-73.02)"/>
        <rect class="cls-9" x="483.95" y="715" width="15.88" height="10.69" transform="translate(-344.22 968.89) rotate(-72.23)"/>
        <g>
          <polygon class="cls-9" points="532.36 753.8 555.17 656 623.34 672.32 589.55 767.61 532.36 753.8"/>
          <g>
            <polygon class="cls-9" points="517.24 748.8 532.36 753.8 555.17 656 533.39 661.14 517.24 748.8"/>
            <polygon class="cls-3" points="517.24 748.8 532.36 753.8 555.17 656 533.39 661.14 517.24 748.8"/>
          </g>
        </g>
        <path class="cls-9" d="m434.12,706.95c-.01,6.41,5.17,11.62,11.58,11.63,6.41.01,11.62-5.17,11.63-11.58.01-6.41-5.17-11.62-11.58-11.63-6.41-.01-11.62,5.17-11.63,11.58Z"/>
      </g>
      <g>
        <g>
          <path class="cls-9" d="m521.73,586.27c.27-.26,28.4-26.34,61.49-17.42,33.83,9.13,61.77,60.09,62.05,60.6l9.4-5.08c-1.22-2.26-30.36-55.53-68.67-65.84-38.96-10.51-70.32,18.74-71.63,20l7.36,7.75Z"/>
          <path class="cls-1" d="m521.73,586.27c.27-.26,28.4-26.34,61.49-17.42,33.83,9.13,61.77,60.09,62.05,60.6l9.4-5.08c-1.22-2.26-30.36-55.53-68.67-65.84-38.96-10.51-70.32,18.74-71.63,20l7.36,7.75Z"/>
        </g>
        <path class="cls-9" d="m632.79,680.75l20.26-10.7c-1.94-3.68-4.34-10.01-4.69-15.73-.45-7.41,2.49-10.01,5.73-11.72,7.1-3.75,11.33-2.26,14.23-.56,4.06,2.4,8.19,7.3,11.62,13.81l20.26-10.7c-5.54-10.5-12.35-18.19-20.24-22.84-7.87-4.64-20.6-8.4-36.57.03-12.45,6.57-18.81,18.43-17.9,33.37.72,11.76,5.76,22.13,7.29,25.03Z"/>
      </g>
      <g>
        <path class="cls-5" d="m526,550.57c4.39-3.03,8.89-5.89,13.4-8.72,4.5-2.85,9.08-5.57,13.65-8.3,4.6-2.68,9.2-5.37,13.87-7.92l7.01-3.83c2.37-1.22,4.71-2.49,7.11-3.66-2.19,1.53-4.43,2.96-6.65,4.45l-6.75,4.28c-4.5,2.85-9.08,5.57-13.65,8.29-4.6,2.68-9.2,5.36-13.87,7.92-4.66,2.57-9.34,5.12-14.12,7.49Z"/>
        <path class="cls-5" d="m514.36,594.28c6.29,3.58,12.25,7.63,18.13,11.78,5.85,4.2,11.61,8.52,17.04,13.3-6.29-3.58-12.25-7.62-18.13-11.78-5.84-4.21-11.61-8.52-17.04-13.3Z"/>
        <path class="cls-5" d="m524.69,588.9c4.85,1.47,9.63,3.14,14.4,4.83,4.77,1.67,9.5,3.49,14.22,5.3,4.71,1.85,9.41,3.71,14.06,5.7l6.97,2.99c2.3,1.06,4.62,2.06,6.9,3.18-2.43-.72-4.82-1.55-7.24-2.32l-7.16-2.51c-4.77-1.68-9.5-3.49-14.22-5.3-4.7-1.86-9.41-3.71-14.06-5.7-4.66-1.97-9.31-3.97-13.88-6.17Z"/>
        <path class="cls-5" d="m538.48,554.67c4.65-1.21,9.34-2.22,14.03-3.19,4.69-1,9.4-1.85,14.11-2.7,4.72-.81,9.44-1.61,14.19-2.28l7.12-.99c2.39-.26,4.76-.59,7.16-.79-2.32.62-4.67,1.13-7,1.69l-7.03,1.5c-4.69,1-9.4,1.85-14.12,2.7-4.72.81-9.44,1.61-14.19,2.27-4.74.68-9.49,1.33-14.28,1.78Z"/>
      </g>
    </g>
  </g>
  <g id="Gears">
    <g>
      <path class="cls-5" d="m426.38,583.75c2.59-10.66,8.6-23.24,19.35-27.6,10.34-3.78,20.3,3.36,21.31,14.06.54,3.6-.87,10.09-5.78,8.79-4.49-2.43-4.37-12.22-4.2-16.71.81-11.48,4.95-23.8,14.69-30.69,6.47-4.47,14.86-5.6,22.48-4.23,11.55,2.18,21.11,10.51,27.34,20.14-6.42-9.46-16.02-17.45-27.46-19.51-11.58-2.03-23.48,2.26-29.58,12.62-5.75,9.26-8.95,25.42-4.65,35.69.82,1.74,2.36,2.57,4.06,1.51,3.54-2.91,2.36-9.2.76-12.95-2.97-7.27-11.44-10.85-18.77-8.12-10.55,4.17-16.81,16.56-19.56,27.01h0Z"/>
      <path class="cls-5" d="m253.76,632.17c7.88-13.91,27.71-19.65,39.41-6.99,5.31,5.67,8.48,13.49,8.04,21.31-.2,2.88-1.49,6.77-4.94,6.88-2.09.06-4.3-.97-5.15-2.97-3.28-9.11,7.21-22.1,14.33-27.03,9.37-7.05,22.73-8.48,33.02-2.57,10.26,5.74,15.87,17.3,17.77,28.52-2.14-11.07-7.91-22.37-18.09-27.95-10.09-5.59-23.05-4.16-32.16,2.74-7.08,5.27-14.26,14.14-14.56,23.26.04,1.8.7,3.67,2.28,4.47,1.47.76,3.57.92,4.78-.42,1.2-1.27,1.65-3.2,1.83-5.03.46-7.5-2.66-15.19-7.73-20.68-11.3-12.46-30.84-6.9-38.82,6.43h0Z"/>
      <path class="cls-5" d="m167.34,181.04c-.18-10.82-3.29-24.31-12.55-30.9-6.47-4.4-15.55-2.94-20.16,3.41-2.46,3.26-5.1,9.07-2.35,12.75,1.38,1.42,3.1,1,4.3-.5,6.61-8.91,7.38-25.43,4-35.77-3.45-11.51-13.99-18.52-25.71-19.31-11.6-.72-22.83,4.75-31.32,12.4,8.35-7.86,19.63-13.67,31.36-13.03,7.73.49,15.61,3.59,20.82,9.47,9.87,11.31,9.79,31.45,3.26,44.41-1.45,2.74-4.38,5.93-7.38,2.96-2.1-2.43-1.43-6.01-.52-8.75,3.54-10.15,14.92-14.71,24.05-8.57,9.42,6.85,12.22,20.4,12.2,31.42h0Z"/>
      <path class="cls-5" d="m579.84,278.48c-10.56-2.34-24.4-2.47-32.97,5-7.64,7.15-5.82,18.72,2.78,24.18,2.23,1.37,5.2,2.73,7.69,1.49,1.7-1.01,1.69-2.78.52-4.3-7.12-8.51-23.01-13.11-33.85-12.24-12,.67-21.27,9.29-24.78,20.5-3.41,11.11-.71,23.31,4.75,33.35-5.69-9.95-8.71-22.28-5.35-33.53,2.28-7.4,7.13-14.34,14.07-18.04,13.3-6.96,32.87-2.18,43.94,7.19,2.33,2.05,4.75,5.65,1.16,7.87-2.86,1.47-6.18-.01-8.63-1.54-9.05-5.81-10.82-17.94-2.72-25.39,8.86-7.57,22.69-7.12,33.4-4.54h0Z"/>
      <path class="cls-5" d="m464.18,157.62c-4.81-18.55,7.25-39.9,27.9-38.9,9.27.42,18.52,4.46,24.67,11.5,2.21,2.61,4.36,6.97,1.53,9.91-1.71,1.78-4.43,2.72-6.8,1.75-3.38-1.37-5.48-4.66-7.03-7.76-3.96-8.45-4.78-18.15-3.26-27.28,2.18-13.96,12.24-26.14,26.05-29.81,13.6-3.66,28.05,1.51,39.09,9.51-11.1-7.72-25.51-12.59-38.92-8.87-13.36,3.68-23.29,15.77-25.32,29.34-1.68,10.32-.34,24.27,7.03,32.21,1.52,1.48,3.66,2.59,5.78,1.94,1.94-.59,3.9-2.25,3.81-4.45-.04-2.19-1.31-4.21-2.66-5.89-5.91-6.83-15.03-10.81-24-11.27-20.22-1.15-32.21,19.89-27.87,38.09h0Z"/>
      <g>
        <path class="cls-8" d="m247.52,632.57c-4.19-1.32-8.65,1.01-9.96,5.19-1.32,4.19,1.01,8.65,5.19,9.97,4.18,1.32,8.64-1,9.96-5.19,1.32-4.18-1-8.65-5.18-9.96Zm4.26,9.67c-1.16,3.68-5.07,5.72-8.75,4.56-3.67-1.16-5.71-5.07-4.55-8.75,1.16-3.67,5.07-5.71,8.75-4.55,3.67,1.16,5.71,5.07,4.55,8.75Zm-4.26-9.67c-4.19-1.32-8.65,1.01-9.96,5.19-1.32,4.19,1.01,8.65,5.19,9.97,4.18,1.32,8.64-1,9.96-5.19,1.32-4.18-1-8.65-5.18-9.96Zm4.26,9.67c-1.16,3.68-5.07,5.72-8.75,4.56-3.67-1.16-5.71-5.07-4.55-8.75,1.16-3.67,5.07-5.71,8.75-4.55,3.67,1.16,5.71,5.07,4.55,8.75Zm-4.26-9.67c-4.19-1.32-8.65,1.01-9.96,5.19-1.32,4.19,1.01,8.65,5.19,9.97,4.18,1.32,8.64-1,9.96-5.19,1.32-4.18-1-8.65-5.18-9.96Zm4.26,9.67c-1.16,3.68-5.07,5.72-8.75,4.56-3.67-1.16-5.71-5.07-4.55-8.75,1.16-3.67,5.07-5.71,8.75-4.55,3.67,1.16,5.71,5.07,4.55,8.75Zm-1.62-18.06c-8.83-2.78-18.22,2.12-21,10.94-2.78,8.82,2.12,18.22,10.94,21,8.81,2.78,18.22-2.12,21-10.94,2.78-8.81-2.12-18.22-10.93-21Zm3.72,18.73c-1.52,4.83-6.68,7.52-11.51,6-4.83-1.52-7.52-6.68-5.99-11.51,1.52-4.83,6.69-7.52,11.51-5.99,4.82,1.52,7.51,6.68,5.99,11.51Zm-1.18-.37c1.32-4.18-1-8.65-5.18-9.96-4.19-1.32-8.65,1.01-9.96,5.19-1.32,4.19,1.01,8.65,5.19,9.97,4.18,1.32,8.64-1,9.96-5.19Zm-.92-.29c-1.16,3.68-5.07,5.72-8.75,4.56-3.67-1.16-5.71-5.07-4.55-8.75,1.16-3.67,5.07-5.71,8.75-4.55,3.67,1.16,5.71,5.07,4.55,8.75Zm-4.26-9.67c-4.19-1.32-8.65,1.01-9.96,5.19-1.32,4.19,1.01,8.65,5.19,9.97,4.18,1.32,8.64-1,9.96-5.19,1.32-4.18-1-8.65-5.18-9.96Zm4.26,9.67c-1.16,3.68-5.07,5.72-8.75,4.56-3.67-1.16-5.71-5.07-4.55-8.75,1.16-3.67,5.07-5.71,8.75-4.55,3.67,1.16,5.71,5.07,4.55,8.75Zm-4.26-9.67c-4.19-1.32-8.65,1.01-9.96,5.19-1.32,4.19,1.01,8.65,5.19,9.97,4.18,1.32,8.64-1,9.96-5.19,1.32-4.18-1-8.65-5.18-9.96Zm4.26,9.67c-1.16,3.68-5.07,5.72-8.75,4.56-3.67-1.16-5.71-5.07-4.55-8.75,1.16-3.67,5.07-5.71,8.75-4.55,3.67,1.16,5.71,5.07,4.55,8.75Z"/>
        <g>
          <polygon class="cls-8" points="243.38 656.42 237.24 654.49 236.21 658.94 241.67 660.66 243.38 656.42"/>
          <polygon class="cls-8" points="232.34 650.67 229.37 644.96 225.49 647.38 228.14 652.46 232.34 650.67"/>
          <polygon class="cls-8" points="228.61 638.8 230.54 632.66 226.09 631.63 224.37 637.09 228.61 638.8"/>
          <polygon class="cls-8" points="234.36 627.77 240.07 624.79 237.65 620.92 232.57 623.56 234.36 627.77"/>
          <polygon class="cls-8" points="246.23 624.03 252.37 625.97 253.4 621.51 247.93 619.79 246.23 624.03"/>
          <polygon class="cls-8" points="257.26 629.78 260.23 635.49 264.11 633.07 261.47 627.99 257.26 629.78"/>
          <polygon class="cls-8" points="261 641.65 259.06 647.79 263.51 648.82 265.24 643.36 261 641.65"/>
          <polygon class="cls-8" points="255.25 652.69 249.54 655.66 251.96 659.54 257.03 656.89 255.25 652.69"/>
        </g>
      </g>
      <g>
        <g>
          <path class="cls-5" d="m557.24,579.2c8.42-11.35,6.05-27.38-5.3-35.8-11.35-8.42-27.38-6.05-35.8,5.29-8.42,11.35-6.05,27.38,5.3,35.8,11.35,8.42,27.38,6.05,35.8-5.3Zm-10.95-8.13c-3.94,5.3-11.42,6.41-16.72,2.48-5.3-3.94-6.41-11.42-2.47-16.72,3.93-5.3,11.41-6.41,16.72-2.47,5.3,3.93,6.41,11.41,2.47,16.71Z"/>
          <polygon class="cls-5" points="526.02 586.58 518.12 580.71 514.41 586.63 521.44 591.85 526.02 586.58"/>
          <polygon class="cls-5" points="512.96 572.75 511.52 563.02 504.71 564.58 505.99 573.24 512.96 572.75"/>
          <polygon class="cls-5" points="513.5 553.74 519.36 545.84 513.44 542.13 508.23 549.15 513.5 553.74"/>
          <polygon class="cls-5" points="527.32 540.68 537.06 539.24 535.5 532.43 526.84 533.71 527.32 540.68"/>
          <polygon class="cls-5" points="546.33 541.21 554.24 547.08 557.95 541.16 550.92 535.95 546.33 541.21"/>
          <polygon class="cls-5" points="559.4 555.04 560.84 564.77 567.65 563.22 566.37 554.56 559.4 555.04"/>
          <polygon class="cls-5" points="558.86 574.05 553 581.95 558.91 585.67 564.13 578.64 558.86 574.05"/>
          <polygon class="cls-5" points="545.04 587.12 535.3 588.56 536.86 595.37 545.52 594.09 545.04 587.12"/>
        </g>
        <path class="cls-5" d="m527.53,565.18l5.44,6.86,8.66-1.29,3.21-8.13-5.43-6.85-8.66,1.28-3.22,8.14Zm10.31-3.51c1.23.92,1.49,2.65.57,3.88-.91,1.23-2.65,1.49-3.88.57-1.23-.91-1.49-2.65-.57-3.88.91-1.23,2.65-1.49,3.88-.57Z"/>
      </g>
      <g>
        <path class="cls-5" d="m576.42,80.9c-3.66-1.15-7.57.88-8.72,4.54-1.16,3.67.88,7.57,4.54,8.72,3.66,1.15,7.56-.88,8.71-4.54,1.15-3.66-.88-7.56-4.54-8.72Zm3.73,8.46c-1.01,3.22-4.44,5-7.65,3.99-3.21-1.01-5-4.44-3.99-7.66,1.01-3.21,4.44-5,7.66-3.99,3.21,1.01,5,4.44,3.98,7.65Zm-3.73-8.46c-3.66-1.15-7.57.88-8.72,4.54-1.16,3.67.88,7.57,4.54,8.72,3.66,1.15,7.56-.88,8.71-4.54,1.15-3.66-.88-7.56-4.54-8.72Zm3.73,8.46c-1.01,3.22-4.44,5-7.65,3.99-3.21-1.01-5-4.44-3.99-7.66,1.01-3.21,4.44-5,7.66-3.99,3.21,1.01,5,4.44,3.98,7.65Zm-3.73-8.46c-3.66-1.15-7.57.88-8.72,4.54-1.16,3.67.88,7.57,4.54,8.72,3.66,1.15,7.56-.88,8.71-4.54,1.15-3.66-.88-7.56-4.54-8.72Zm3.73,8.46c-1.01,3.22-4.44,5-7.65,3.99-3.21-1.01-5-4.44-3.99-7.66,1.01-3.21,4.44-5,7.66-3.99,3.21,1.01,5,4.44,3.98,7.65Zm-1.41-15.81c-7.72-2.43-15.95,1.86-18.38,9.57-2.43,7.72,1.85,15.95,9.57,18.38,7.71,2.43,15.94-1.86,18.37-9.57,2.43-7.71-1.85-15.95-9.56-18.37Zm3.25,16.39c-1.33,4.23-5.85,6.58-10.07,5.25-4.22-1.33-6.58-5.85-5.25-10.07,1.33-4.23,5.85-6.58,10.07-5.25,4.22,1.33,6.57,5.85,5.24,10.07Zm-1.03-.32c1.15-3.66-.88-7.56-4.54-8.72-3.66-1.15-7.57.88-8.72,4.54-1.16,3.67.88,7.57,4.54,8.72,3.66,1.15,7.56-.88,8.71-4.54Zm-.81-.26c-1.01,3.22-4.44,5-7.65,3.99-3.21-1.01-5-4.44-3.99-7.66,1.01-3.21,4.44-5,7.66-3.99,3.21,1.01,5,4.44,3.98,7.65Zm-3.73-8.46c-3.66-1.15-7.57.88-8.72,4.54-1.16,3.67.88,7.57,4.54,8.72,3.66,1.15,7.56-.88,8.71-4.54,1.15-3.66-.88-7.56-4.54-8.72Zm3.73,8.46c-1.01,3.22-4.44,5-7.65,3.99-3.21-1.01-5-4.44-3.99-7.66,1.01-3.21,4.44-5,7.66-3.99,3.21,1.01,5,4.44,3.98,7.65Zm-3.73-8.46c-3.66-1.15-7.57.88-8.72,4.54-1.16,3.67.88,7.57,4.54,8.72,3.66,1.15,7.56-.88,8.71-4.54,1.15-3.66-.88-7.56-4.54-8.72Zm3.73,8.46c-1.01,3.22-4.44,5-7.65,3.99-3.21-1.01-5-4.44-3.99-7.66,1.01-3.21,4.44-5,7.66-3.99,3.21,1.01,5,4.44,3.98,7.65Z"/>
        <g>
          <polygon class="cls-5" points="572.8 101.77 567.43 100.07 566.53 103.97 571.31 105.48 572.8 101.77"/>
          <polygon class="cls-5" points="563.14 96.73 560.54 91.74 557.15 93.86 559.46 98.3 563.14 96.73"/>
          <polygon class="cls-5" points="559.88 86.35 561.57 80.98 557.67 80.07 556.17 84.85 559.88 86.35"/>
          <polygon class="cls-5" points="564.91 76.69 569.9 74.09 567.79 70.7 563.34 73.01 564.91 76.69"/>
          <polygon class="cls-5" points="575.29 73.42 580.67 75.12 581.57 71.22 576.79 69.71 575.29 73.42"/>
          <polygon class="cls-5" points="584.95 78.46 587.55 83.45 590.94 81.33 588.63 76.89 584.95 78.46"/>
          <polygon class="cls-5" points="588.22 88.84 586.53 94.21 590.42 95.12 591.93 90.34 588.22 88.84"/>
          <polygon class="cls-5" points="583.19 98.5 578.19 101.1 580.31 104.49 584.75 102.18 583.19 98.5"/>
        </g>
      </g>
      <g>
        <path class="cls-5" d="m505.04,347.78c-3.66-1.15-7.57.88-8.72,4.54-1.16,3.67.88,7.57,4.54,8.72,3.66,1.15,7.56-.88,8.71-4.54,1.15-3.66-.88-7.56-4.54-8.72Zm3.73,8.46c-1.01,3.22-4.44,5-7.65,3.99s-5-4.44-3.99-7.66c1.01-3.21,4.44-5,7.66-3.99,3.21,1.01,5,4.44,3.98,7.65Zm-3.73-8.46c-3.66-1.15-7.57.88-8.72,4.54-1.16,3.67.88,7.57,4.54,8.72,3.66,1.15,7.56-.88,8.71-4.54,1.15-3.66-.88-7.56-4.54-8.72Zm3.73,8.46c-1.01,3.22-4.44,5-7.65,3.99s-5-4.44-3.99-7.66c1.01-3.21,4.44-5,7.66-3.99,3.21,1.01,5,4.44,3.98,7.65Zm-3.73-8.46c-3.66-1.15-7.57.88-8.72,4.54-1.16,3.67.88,7.57,4.54,8.72,3.66,1.15,7.56-.88,8.71-4.54,1.15-3.66-.88-7.56-4.54-8.72Zm3.73,8.46c-1.01,3.22-4.44,5-7.65,3.99s-5-4.44-3.99-7.66c1.01-3.21,4.44-5,7.66-3.99,3.21,1.01,5,4.44,3.98,7.65Zm-1.41-15.81c-7.72-2.43-15.95,1.86-18.38,9.57-2.43,7.72,1.85,15.95,9.57,18.38,7.71,2.43,15.94-1.86,18.37-9.57,2.43-7.71-1.85-15.95-9.56-18.37Zm3.25,16.39c-1.33,4.23-5.85,6.58-10.07,5.25s-6.58-5.85-5.25-10.07c1.33-4.23,5.85-6.58,10.07-5.25,4.22,1.33,6.57,5.85,5.24,10.07Zm-1.03-.32c1.15-3.66-.88-7.56-4.54-8.72-3.66-1.15-7.57.88-8.72,4.54-1.16,3.67.88,7.57,4.54,8.72,3.66,1.15,7.56-.88,8.71-4.54Zm-.81-.26c-1.01,3.22-4.44,5-7.65,3.99s-5-4.44-3.99-7.66c1.01-3.21,4.44-5,7.66-3.99,3.21,1.01,5,4.44,3.98,7.65Zm-3.73-8.46c-3.66-1.15-7.57.88-8.72,4.54-1.16,3.67.88,7.57,4.54,8.72,3.66,1.15,7.56-.88,8.71-4.54,1.15-3.66-.88-7.56-4.54-8.72Zm3.73,8.46c-1.01,3.22-4.44,5-7.65,3.99s-5-4.44-3.99-7.66c1.01-3.21,4.44-5,7.66-3.99,3.21,1.01,5,4.44,3.98,7.65Zm-3.73-8.46c-3.66-1.15-7.57.88-8.72,4.54-1.16,3.67.88,7.57,4.54,8.72,3.66,1.15,7.56-.88,8.71-4.54,1.15-3.66-.88-7.56-4.54-8.72Zm3.73,8.46c-1.01,3.22-4.44,5-7.65,3.99s-5-4.44-3.99-7.66c1.01-3.21,4.44-5,7.66-3.99,3.21,1.01,5,4.44,3.98,7.65Z"/>
        <g>
          <polygon class="cls-5" points="501.41 368.65 496.04 366.95 495.14 370.85 499.92 372.36 501.41 368.65"/>
          <polygon class="cls-5" points="491.76 363.61 489.15 358.62 485.76 360.74 488.07 365.18 491.76 363.61"/>
          <polygon class="cls-5" points="488.49 353.23 490.18 347.86 486.28 346.95 484.78 351.73 488.49 353.23"/>
          <polygon class="cls-5" points="493.52 343.57 498.51 340.97 496.4 337.58 491.95 339.89 493.52 343.57"/>
          <polygon class="cls-5" points="503.9 340.3 509.28 342 510.18 338.1 505.4 336.59 503.9 340.3"/>
          <polygon class="cls-5" points="513.56 345.34 516.16 350.33 519.56 348.21 517.24 343.77 513.56 345.34"/>
          <polygon class="cls-5" points="516.83 355.72 515.14 361.09 519.03 362 520.54 357.22 516.83 355.72"/>
          <polygon class="cls-5" points="511.8 365.38 506.8 367.98 508.92 371.37 513.36 369.06 511.8 365.38"/>
        </g>
      </g>
      <g>
        <g>
          <path class="cls-5" d="m96.48,137.67c2.88-11.82-4.37-23.74-16.19-26.62-11.83-2.88-23.75,4.37-26.63,16.19-2.88,11.83,4.37,23.75,16.19,26.63,11.82,2.88,23.74-4.37,26.62-16.2Zm-11.41-2.78c-1.35,5.53-6.91,8.91-12.43,7.56-5.53-1.35-8.91-6.91-7.56-12.44,1.35-5.52,6.91-8.91,12.44-7.56,5.52,1.35,8.91,6.91,7.56,12.43Z"/>
          <polygon class="cls-5" points="74.19 153.98 65.96 151.98 64.99 157.91 72.31 159.7 74.19 153.98"/>
          <polygon class="cls-5" points="59.19 147.39 54.79 140.15 49.91 143.67 53.83 150.11 59.19 147.39"/>
          <polygon class="cls-5" points="53.25 132.13 55.26 123.9 49.32 122.93 47.54 130.25 53.25 132.13"/>
          <polygon class="cls-5" points="59.84 117.13 67.08 112.73 63.57 107.85 57.13 111.77 59.84 117.13"/>
          <polygon class="cls-5" points="75.11 111.19 83.34 113.2 84.3 107.26 76.98 105.48 75.11 111.19"/>
          <polygon class="cls-5" points="90.1 117.78 94.5 125.02 99.39 121.51 95.47 115.07 90.1 117.78"/>
          <polygon class="cls-5" points="96.04 133.05 94.04 141.28 99.97 142.24 101.76 134.92 96.04 133.05"/>
          <polygon class="cls-5" points="89.45 148.04 82.21 152.44 85.73 157.32 92.17 153.41 89.45 148.04"/>
        </g>
        <path class="cls-5" d="m68.21,136.5l6.61,3.62,6.44-3.92-.17-7.53-6.6-3.62-6.44,3.91.17,7.53Zm7-6.23c1.28.31,2.07,1.6,1.75,2.89-.31,1.28-1.6,2.07-2.89,1.75-1.28-.31-2.07-1.61-1.76-2.89.31-1.28,1.61-2.07,2.89-1.76Z"/>
      </g>
    </g>
  </g>
  <g id="Speech_Bubble" data-name="Speech Bubble">
    <g>
      <g>
        <path class="cls-4" d="m594.44,365.47c-5.03-7.65-7.85-16.26-7.85-25.36,0-32.12,35.28-58.17,78.76-58.17s78.73,26.05,78.73,58.17-35.24,58.17-78.73,58.17c-21.09,0-40.2-6.11-54.32-16.09l-27.13,6.9,10.54-23.62Z"/>
        <path class="cls-5" d="m594.44,365.47c-21.93-34.23,4.46-67.92,38.5-78.69,24.3-8,51.81-6.87,75.06,3.99,48.17,22.73,48.85,74.91.78,98.3-15.43,7.47-32.84,10.35-49.87,9.33-17-1.05-34.02-6.12-48.01-16.02.86.07-27.12,6.74-26.97,6.82,0,0-.22.05-.22.05,0,0,.09-.21.09-.21l10.64-23.57h0Zm0,0l-10.44,23.66s-.13-.15-.13-.15c0,0,27.1-7.01,27.1-7.01,0,0,.1-.03.1-.03,0,0,.09.06.09.06,34.18,23.51,88.01,21.47,117.87-8.31,19.64-19.79,19.21-48.26-.62-67.75-15.13-15.01-36.59-22.36-57.6-23.47-21.09-1.08-43,3.89-60.33,16.28-22.2,15.52-31.65,42.97-16.03,66.72h0Z"/>
      </g>
      <g>
        <path class="cls-5" d="m624.84,349.64v4.33h-17.62v-25.38h17.3v4.33h-12.37v6.11h10.69v4h-10.69v6.61h12.69Z"/>
        <path class="cls-5" d="m628.7,353.97v-25.38h11.23c1.17,0,2.25.25,3.23.73.99.49,1.84,1.13,2.56,1.93.72.8,1.28,1.7,1.68,2.72.4,1.01.61,2.03.61,3.06,0,1.64-.41,3.14-1.23,4.49-.82,1.35-1.94,2.32-3.34,2.91l5.79,9.55h-5.54l-5.18-8.51h-4.86v8.51h-4.93Zm4.93-12.83h6.18c.45,0,.88-.11,1.27-.32.39-.21.73-.51,1.02-.88.29-.37.51-.8.68-1.3.17-.5.25-1.04.25-1.61s-.1-1.14-.29-1.64c-.19-.5-.45-.93-.77-1.3-.32-.37-.69-.66-1.11-.86-.42-.2-.84-.3-1.27-.3h-5.97v8.22Z"/>
        <path class="cls-5" d="m652.47,353.97v-25.38h11.23c1.17,0,2.25.25,3.23.73.99.49,1.84,1.13,2.56,1.93.72.8,1.28,1.7,1.68,2.72.4,1.01.61,2.03.61,3.06,0,1.64-.41,3.14-1.23,4.49-.82,1.35-1.94,2.32-3.34,2.91l5.79,9.55h-5.54l-5.18-8.51h-4.86v8.51h-4.93Zm4.93-12.83h6.18c.45,0,.88-.11,1.27-.32.39-.21.73-.51,1.02-.88.29-.37.51-.8.68-1.3.17-.5.25-1.04.25-1.61s-.1-1.14-.29-1.64c-.19-.5-.45-.93-.77-1.3-.32-.37-.69-.66-1.11-.86-.42-.2-.84-.3-1.27-.3h-5.97v8.22Z"/>
        <path class="cls-5" d="m687.08,354.15c-1.86,0-3.54-.36-5.06-1.09-1.51-.73-2.81-1.69-3.9-2.9-1.09-1.2-1.92-2.58-2.52-4.13-.59-1.55-.89-3.13-.89-4.75s.32-3.31.95-4.86c.63-1.55,1.5-2.92,2.61-4.11,1.11-1.19,2.43-2.14,3.95-2.84,1.53-.7,3.18-1.06,4.97-1.06s3.51.38,5.02,1.13c1.51.75,2.81,1.73,3.88,2.95,1.07,1.21,1.91,2.6,2.5,4.15.6,1.55.89,3.12.89,4.72,0,1.69-.31,3.31-.93,4.84-.62,1.54-1.48,2.9-2.57,4.08-1.1,1.18-2.41,2.12-3.93,2.82-1.53.7-3.18,1.05-4.97,1.05Zm-7.36-12.87c0,1.1.17,2.16.5,3.18.33,1.03.82,1.93,1.45,2.72s1.41,1.42,2.32,1.89c.92.48,1.96.72,3.13.72s2.25-.24,3.16-.73c.92-.49,1.69-1.14,2.32-1.95.63-.81,1.11-1.72,1.43-2.74.32-1.01.48-2.04.48-3.09s-.17-2.16-.52-3.18c-.35-1.02-.83-1.93-1.46-2.72-.63-.79-1.41-1.41-2.32-1.88-.92-.47-1.95-.7-3.09-.7s-2.25.25-3.18.73c-.93.49-1.71,1.13-2.32,1.93-.62.8-1.09,1.7-1.41,2.72-.32,1.01-.48,2.04-.48,3.09Z"/>
        <path class="cls-5" d="m703.28,353.97v-25.38h11.23c1.17,0,2.25.25,3.23.73.99.49,1.84,1.13,2.56,1.93.72.8,1.28,1.7,1.68,2.72.4,1.01.61,2.03.61,3.06,0,1.64-.41,3.14-1.23,4.49-.82,1.35-1.94,2.32-3.34,2.91l5.79,9.55h-5.54l-5.18-8.51h-4.86v8.51h-4.93Zm4.93-12.83h6.18c.45,0,.88-.11,1.27-.32.39-.21.73-.51,1.02-.88.29-.37.51-.8.68-1.3.17-.5.25-1.04.25-1.61s-.1-1.14-.29-1.64c-.19-.5-.45-.93-.77-1.3-.32-.37-.69-.66-1.11-.86-.42-.2-.84-.3-1.27-.3h-5.97v8.22Z"/>
      </g>
    </g>
  </g>
</svg>